<svg width="512" height="512" viewBox="0 0 512 512" fill="none" xmlns="http://www.w3.org/2000/svg">
<g clip-path="url(#clip0_9_246)">
<path fill-rule="evenodd" clip-rule="evenodd" d="M73.5686 307.424C67.3037 322.473 63.8038 338.529 63.2368 354.82C64.1013 364.867 67.528 374.525 73.1893 382.871C83.842 395.204 96.6528 405.493 110.994 413.234L203.619 474.899C215.016 483.97 227.832 491.098 241.55 495.996C250.457 498.116 259.737 498.116 268.644 495.996C282.453 491.158 295.372 484.079 306.882 475.044L400.5 413.342C414.987 405.579 427.944 395.248 438.738 382.853C444.44 374.462 447.863 364.734 448.673 354.621C448.058 338.198 444.465 322.022 438.07 306.882L356.193 49.2024C354.365 40.8572 351.062 32.9053 346.439 25.7212C343.072 21.6299 338.721 18.4603 333.795 16.5093C325.564 14.2776 317.001 13.5314 308.508 14.3057H201.903C193.406 13.5334 184.84 14.2982 176.615 16.5635C171.677 18.5106 167.323 21.6953 163.971 25.8115C159.369 32.996 156.095 40.9497 154.308 49.2928L73.5686 307.424ZM312.716 68.9989C316.524 75.0536 319.222 81.7391 320.682 88.7412L390.981 319.652C364.576 305.957 336.235 296.375 306.936 291.24L261.256 136.625C260.975 135.712 260.48 134.879 259.811 134.197C259.142 133.515 258.319 133.002 257.412 132.703C256.505 132.405 255.539 132.327 254.595 132.479C253.652 132.63 252.759 133.005 251.99 133.572C250.958 134.327 250.203 135.399 249.841 136.625L204.684 291.186C175.248 296.31 146.774 305.929 120.26 319.706L190.848 88.7954C192.294 81.7803 194.999 75.0853 198.832 69.0351C201.628 65.6039 205.243 62.9326 209.344 61.2682C216.254 59.4006 223.442 58.7888 230.568 59.4619H281.016C288.148 58.7882 295.343 59.4 302.258 61.2682C306.371 62.9375 309.994 65.6221 312.788 69.0712L312.716 68.9989ZM258.294 347.396C280.032 348.655 301.589 342.803 319.706 330.725C321.766 337.208 322.496 344.04 321.853 350.812C321.211 357.584 319.209 364.157 315.967 370.137C309.303 381.464 299.631 390.723 288.025 396.887C275.851 404.618 265.374 411.337 265.374 429.165C265.359 434.884 266.65 440.53 269.149 445.674C260.94 442.265 253.924 436.499 248.99 429.105C244.055 421.711 241.422 413.02 241.423 404.131V403.029C241.423 390.692 241.423 375.501 224.047 375.501C221.625 375.5 219.226 375.972 216.985 376.892C212.475 378.76 208.89 382.339 207.014 386.845C206.083 389.083 205.598 391.483 205.587 393.907C193.678 380.901 187.28 363.78 187.742 346.15C187.657 338.52 188.723 330.921 190.903 323.608C198.128 337.281 225.583 347.45 258.294 347.45V347.396Z" fill="#FF5D01"/>
</g>
<defs>
<clipPath id="clip0_9_246">
<rect width="512" height="512" fill="white"/>
</clipPath>
</defs>
</svg>
