<svg width="512" height="512" viewBox="0 0 512 512" fill="none" xmlns="http://www.w3.org/2000/svg">
<path d="M454.975 164.736C453.951 163.648 452.863 162.56 451.775 161.536C450.687 160.512 449.663 159.36 448.575 158.336C447.487 157.312 446.463 156.16 445.375 155.136C444.287 154.112 443.263 152.96 442.175 151.936C441.087 150.912 440.063 149.76 438.975 148.736C437.887 147.712 436.863 146.56 435.775 145.536C434.687 144.512 433.663 143.36 432.575 142.336C464.321 173.534 482.507 215.976 483.199 260.48C483.199 366.528 375.551 452.8 243.199 452.8C169.087 452.8 102.783 425.728 58.6875 383.296L61.8875 386.496L65.0875 389.696L68.2875 392.896L71.4875 396.096L74.6875 399.296L77.8875 402.496L81.0875 405.696C125.119 449.92 192.896 478.4 268.799 478.4C401.151 478.4 508.799 392.128 508.799 286.4C508.799 241.216 489.343 198.4 454.975 164.736Z" fill="black"/>
<path d="M467.199 260.48C467.199 357.824 366.911 436.736 243.199 436.736C119.487 436.736 19.1992 357.824 19.1992 260.48C19.1992 200.128 57.5992 146.816 116.607 115.2C175.615 83.584 212.351 51.2 243.199 51.2C274.047 51.2 300.415 77.632 369.791 115.2C428.799 146.816 467.199 200.128 467.199 260.48Z" fill="#FBF0DF"/>
<path d="M467.2 260.48C467.169 247.975 465.446 235.531 462.08 223.488C444.608 436.608 184.64 446.848 82.4316 383.104C128.377 418.716 185.075 437.63 243.2 436.736C366.72 436.736 467.2 357.696 467.2 260.48Z" fill="#F6DECE"/>
<path d="M156.991 103.488C185.599 86.336 223.615 54.144 260.991 54.08C255.241 52.2214 249.242 51.2503 243.199 51.2C227.711 51.2 211.199 59.2 190.399 71.232C183.167 75.456 175.679 80.128 167.743 84.992C152.831 94.208 135.743 104.64 116.543 115.072C55.6152 148.032 19.1992 202.368 19.1992 260.48C19.1992 263.04 19.1992 265.6 19.1992 268.096C57.9832 131.072 128.447 120.64 156.991 103.488Z" fill="#FFFEFC"/>
<path fill-rule="evenodd" clip-rule="evenodd" d="M224.766 67.392C224.856 82.5038 221.683 97.457 215.465 111.23C209.246 125.004 200.128 137.273 188.734 147.2C186.942 148.8 188.35 151.872 190.654 150.976C212.222 142.592 241.342 117.504 229.054 66.88C228.542 64 224.766 64.768 224.766 67.392ZM239.294 67.392C247.125 80.1691 252.1 94.4886 253.879 109.369C255.657 124.249 254.197 139.337 249.598 153.6C248.83 155.84 251.582 157.76 253.118 155.904C267.134 137.984 279.358 102.4 242.75 64C240.894 62.336 238.014 64.896 239.294 67.136V67.392ZM256.958 66.304C269.222 74.9859 279.48 86.1967 287.043 99.1801C294.606 112.164 299.296 126.618 300.798 141.568C300.734 142.107 300.879 142.65 301.203 143.084C301.528 143.519 302.008 143.812 302.543 143.903C303.078 143.993 303.627 143.874 304.077 143.571C304.527 143.267 304.842 142.802 304.958 142.272C310.846 119.936 307.518 81.856 259.07 62.08C256.51 61.056 254.846 64.512 256.958 66.048V66.304ZM138.814 132.864C153.402 128.506 166.908 121.125 178.453 111.2C189.998 101.276 199.324 89.0316 205.822 75.264C206.974 72.96 210.622 73.856 210.046 76.416C198.974 127.616 161.918 138.304 138.878 136.896C136.446 136.96 136.51 133.568 138.814 132.864Z" fill="#CCBEA7"/>
<path d="M243.199 452.8C110.847 452.8 3.19922 366.528 3.19922 260.48C3.19922 196.48 42.7512 136.768 108.991 100.992C128.191 90.752 144.639 80.448 159.295 71.424C167.359 66.432 174.975 61.76 182.335 57.408C204.799 44.096 223.999 35.2 243.199 35.2C262.399 35.2 279.167 42.88 300.159 55.296C306.559 58.944 312.959 62.912 319.807 67.264C335.743 77.12 353.727 88.256 377.407 100.992C443.647 136.768 483.199 196.416 483.199 260.48C483.199 366.528 375.551 452.8 243.199 452.8ZM243.199 51.2C227.711 51.2 211.199 59.2 190.399 71.232C183.167 75.456 175.679 80.128 167.743 84.992C152.831 94.208 135.743 104.64 116.543 115.072C55.6152 148.032 19.1992 202.368 19.1992 260.48C19.1992 357.696 119.679 436.8 243.199 436.8C366.719 436.8 467.199 357.696 467.199 260.48C467.199 202.368 430.783 148.032 369.791 115.2C345.599 102.4 326.719 90.368 311.423 80.896C304.447 76.608 298.047 72.64 292.223 69.12C272.831 57.6 258.687 51.2 243.199 51.2Z" fill="black"/>
<path d="M288.319 307.2C285.444 318.976 278.9 329.532 269.631 337.344C262.673 344.089 253.665 348.323 244.031 349.376C234.108 348.49 224.784 344.246 217.599 337.344C208.426 329.495 201.973 318.943 199.167 307.2C199.074 306.503 199.142 305.794 199.366 305.127C199.589 304.46 199.962 303.853 200.456 303.353C200.951 302.852 201.553 302.472 202.217 302.24C202.881 302.008 203.589 301.932 204.287 302.016H283.263C283.957 301.942 284.658 302.027 285.313 302.263C285.969 302.5 286.563 302.882 287.05 303.381C287.536 303.88 287.904 304.483 288.124 305.144C288.344 305.806 288.41 306.509 288.319 307.2Z" fill="#B71422"/>
<path d="M217.599 337.856C224.769 344.762 234.059 349.046 243.967 350.016C253.851 349.032 263.117 344.749 270.271 337.856C272.559 335.723 274.697 333.435 276.671 331.008C272.728 326.535 267.912 322.916 262.519 320.374C257.126 317.831 251.27 316.419 245.311 316.224C238.934 316.375 232.69 318.073 227.116 321.173C221.541 324.272 216.804 328.68 213.311 334.016C214.783 335.36 216.063 336.64 217.599 337.856Z" fill="#FF6164"/>
<path d="M218.622 332.8C221.795 328.699 225.857 325.37 230.501 323.064C235.146 320.759 240.253 319.536 245.438 319.488C255.023 319.771 264.155 323.629 271.038 330.304C272.51 328.704 273.918 327.04 275.262 325.376C267.12 317.622 256.36 313.213 245.118 313.024C239.11 313.076 233.188 314.457 227.777 317.068C222.366 319.68 217.601 323.457 213.822 328.128C215.335 329.772 216.938 331.332 218.622 332.8Z" fill="black"/>
<path d="M243.775 353.216C233.11 352.282 223.074 347.771 215.295 340.416C205.388 332.037 198.415 320.714 195.391 308.096C195.174 306.973 195.211 305.815 195.499 304.708C195.787 303.6 196.319 302.571 197.055 301.696C197.932 300.637 199.04 299.792 200.293 299.227C201.547 298.661 202.913 298.389 204.287 298.432H283.263C284.636 298.403 285.997 298.681 287.248 299.246C288.5 299.811 289.609 300.648 290.495 301.696C291.225 302.575 291.747 303.606 292.024 304.714C292.301 305.822 292.325 306.978 292.095 308.096C289.071 320.714 282.098 332.037 272.191 340.416C264.429 347.758 254.417 352.268 243.775 353.216ZM204.287 305.856C203.263 305.856 203.007 306.304 202.943 306.432C205.649 317.374 211.768 327.17 220.415 334.4C226.738 340.629 234.959 344.571 243.775 345.6C252.569 344.583 260.78 340.69 267.135 334.528C275.755 327.286 281.851 317.492 284.543 306.56C284.404 306.355 284.21 306.193 283.984 306.092C283.758 305.99 283.509 305.953 283.263 305.984L204.287 305.856Z" fill="black"/>
<path d="M340.608 311.168C361.286 311.168 378.048 301.311 378.048 289.152C378.048 276.993 361.286 267.136 340.608 267.136C319.93 267.136 303.168 276.993 303.168 289.152C303.168 301.311 319.93 311.168 340.608 311.168Z" fill="#FEBBD0"/>
<path d="M146.879 311.168C167.557 311.168 184.319 301.311 184.319 289.152C184.319 276.993 167.557 267.136 146.879 267.136C126.202 267.136 109.439 276.993 109.439 289.152C109.439 301.311 126.202 311.168 146.879 311.168Z" fill="#FEBBD0"/>
<path fill-rule="evenodd" clip-rule="evenodd" d="M164.479 280.32C171.457 280.333 178.281 278.275 184.088 274.408C189.896 270.541 194.426 265.038 197.105 258.595C199.783 252.153 200.491 245.06 199.137 238.216C197.784 231.371 194.431 225.081 189.501 220.143C184.572 215.205 178.289 211.84 171.447 210.474C164.604 209.108 157.511 209.803 151.063 212.47C144.616 215.137 139.105 219.657 135.227 225.458C131.349 231.258 129.279 238.079 129.279 245.056C129.279 254.398 132.986 263.357 139.585 269.969C146.185 276.58 155.138 280.303 164.479 280.32ZM323.007 280.32C329.993 280.371 336.835 278.346 342.668 274.502C348.501 270.658 353.061 265.168 355.769 258.729C358.477 252.29 359.212 245.192 357.881 238.335C356.549 231.477 353.211 225.17 348.289 220.213C343.368 215.255 337.085 211.871 330.238 210.489C323.39 209.108 316.287 209.791 309.828 212.453C303.37 215.114 297.847 219.633 293.961 225.438C290.074 231.243 287.999 238.071 287.999 245.056C287.982 254.37 291.657 263.31 298.219 269.92C304.78 276.529 313.694 280.269 323.007 280.32Z" fill="black"/>
<path fill-rule="evenodd" clip-rule="evenodd" d="M153.6 247.296C156.223 247.309 158.791 246.542 160.978 245.094C163.165 243.646 164.873 241.582 165.885 239.162C166.898 236.743 167.169 234.077 166.665 231.503C166.161 228.929 164.905 226.562 163.054 224.703C161.204 222.844 158.844 221.576 156.272 221.059C153.701 220.543 151.034 220.802 148.609 221.802C146.185 222.803 144.112 224.501 142.653 226.681C141.195 228.861 140.416 231.425 140.416 234.048C140.416 237.551 141.803 240.911 144.274 243.393C146.744 245.876 150.098 247.279 153.6 247.296ZM312.128 247.296C314.751 247.309 317.319 246.542 319.506 245.094C321.693 243.646 323.401 241.582 324.413 239.162C325.426 236.743 325.697 234.077 325.193 231.503C324.689 228.929 323.433 226.562 321.582 224.703C319.732 222.844 317.372 221.576 314.8 221.059C312.229 220.543 309.562 220.802 307.137 221.802C304.713 222.803 302.64 224.501 301.181 226.681C299.723 228.861 298.944 231.425 298.944 234.048C298.944 237.529 300.313 240.869 302.756 243.348C305.199 245.828 308.52 247.246 312 247.296H312.128Z" fill="white"/>
</svg>
