<svg width="512" height="512" viewBox="0 0 512 512" fill="none" xmlns="http://www.w3.org/2000/svg">
<circle cx="256" cy="256" r="254" fill="black"/>
<path d="M257.45 460L340.1 377.671L257.45 295.343L227 325.943L258.175 357.271C244.642 357.757 231.471 355.571 218.662 350.714C205.854 345.857 194.375 338.329 184.225 328.129C174.558 318.414 167.187 307.243 162.112 294.614C157.037 281.986 154.5 269.357 154.5 256.729C154.5 248.471 155.587 240.214 157.762 231.957C159.937 223.7 162.958 215.686 166.825 207.914L134.925 175.857C126.708 188 120.667 200.871 116.8 214.471C112.933 228.071 111 241.914 111 256C111 274.457 114.625 292.671 121.875 310.643C129.125 328.614 139.758 344.643 153.775 358.729C167.792 372.814 183.5 383.379 200.9 390.421C218.3 397.464 236.183 401.229 254.55 401.714L227 429.4L257.45 460ZM377.075 336.143C385.292 324 391.333 311.129 395.2 297.529C399.067 283.929 401 270.086 401 256C401 237.543 397.496 219.207 390.487 200.993C383.479 182.779 372.967 166.629 358.95 152.543C344.933 138.457 329.104 128.014 311.462 121.214C293.821 114.414 275.817 111.014 257.45 111.014L285 82.6L254.55 52L171.9 134.329L254.55 216.657L285 186.057L253.1 154C266.15 154 279.442 156.55 292.975 161.65C306.508 166.75 318.108 174.157 327.775 183.871C337.442 193.586 344.812 204.757 349.887 217.386C354.962 230.014 357.5 242.643 357.5 255.271C357.5 263.529 356.412 271.786 354.237 280.043C352.062 288.3 349.042 296.314 345.175 304.086L377.075 336.143Z" fill="#0075F3"/>
</svg>
