<svg width="512" height="512" viewBox="0 0 512 512" fill="none" xmlns="http://www.w3.org/2000/svg">
<g clip-path="url(#clip0_58_12)">
<circle cx="256" cy="256" r="254" fill="black"/>
<path d="M256.001 469.333C226.49 469.333 198.757 463.733 172.801 452.533C146.846 441.333 124.268 426.133 105.068 406.933C85.868 387.733 70.668 365.156 59.468 339.2C48.268 313.244 42.668 285.511 42.668 256C42.668 226.489 48.268 198.756 59.468 172.8C70.668 146.844 85.868 124.267 105.068 105.067C124.268 85.8667 146.846 70.6667 172.801 59.4667C198.757 48.2667 226.49 42.6667 256.001 42.6667C285.512 42.6667 313.246 48.2667 339.201 59.4667C365.157 70.6667 387.735 85.8667 406.935 105.067C426.135 124.267 441.335 146.844 452.535 172.8C463.735 198.756 469.335 226.489 469.335 256C469.335 285.511 463.735 313.244 452.535 339.2C441.335 365.156 426.135 387.733 406.935 406.933C387.735 426.133 365.157 441.333 339.201 452.533C313.246 463.733 285.512 469.333 256.001 469.333ZM256.001 426.667C303.646 426.667 344.001 410.133 377.068 377.067C410.135 344 426.668 303.644 426.668 256C426.668 253.511 426.579 250.933 426.401 248.267C426.224 245.6 426.135 243.378 426.135 241.6C424.357 251.911 419.557 260.444 411.735 267.2C403.912 273.956 394.668 277.333 384.001 277.333H341.335C329.601 277.333 319.557 273.156 311.201 264.8C302.846 256.444 298.668 246.4 298.668 234.667V213.333H213.335V170.667C213.335 158.933 217.512 148.889 225.868 140.533C234.224 132.178 244.268 128 256.001 128H277.335C277.335 119.822 279.557 112.622 284.001 106.4C288.446 100.178 293.868 95.1111 300.268 91.2C293.157 89.4222 285.957 88 278.668 86.9333C271.379 85.8667 263.824 85.3333 256.001 85.3333C208.357 85.3333 168.001 101.867 134.935 134.933C101.868 168 85.3346 208.356 85.3346 256H192.001C215.468 256 235.557 264.356 252.268 281.067C268.979 297.778 277.335 317.867 277.335 341.333V362.667H213.335V421.333C220.446 423.111 227.468 424.444 234.401 425.333C241.335 426.222 248.535 426.667 256.001 426.667Z" fill="white"/>
</g>
<defs>
<clipPath id="clip0_58_12">
<rect width="512" height="512" fill="white"/>
</clipPath>
</defs>
</svg>
