<svg width="512" height="512" viewBox="0 0 512 512" fill="none" xmlns="http://www.w3.org/2000/svg">
<g clip-path="url(#clip0_53_136)">
<path d="M197.335 469.333L188.802 401.067C184.179 399.289 179.824 397.156 175.735 394.667C171.646 392.178 167.646 389.511 163.735 386.667L100.268 413.333L41.6016 312L96.5349 270.4C96.1793 267.911 96.0016 265.511 96.0016 263.2V248.8C96.0016 246.489 96.1793 244.089 96.5349 241.6L41.6016 200L100.268 98.6667L163.735 125.333C167.646 122.489 171.735 119.822 176.002 117.333C180.268 114.844 184.535 112.711 188.802 110.933L197.335 42.6667H314.668L323.202 110.933C327.824 112.711 332.179 114.844 336.268 117.333C340.357 119.822 344.357 122.489 348.268 125.333L411.735 98.6667L470.402 200L415.468 241.6C415.824 244.089 416.002 246.489 416.002 248.8V263.2C416.002 265.511 415.646 267.911 414.935 270.4L469.868 312L411.202 413.333L348.268 386.667C344.357 389.511 340.268 392.178 336.002 394.667C331.735 397.156 327.468 399.289 323.202 401.067L314.668 469.333H197.335ZM257.068 330.667C277.69 330.667 295.29 323.378 309.868 308.8C324.446 294.222 331.735 276.622 331.735 256C331.735 235.378 324.446 217.778 309.868 203.2C295.29 188.622 277.69 181.333 257.068 181.333C236.09 181.333 218.402 188.622 204.002 203.2C189.602 217.778 182.402 235.378 182.402 256C182.402 276.622 189.602 294.222 204.002 308.8C218.402 323.378 236.09 330.667 257.068 330.667Z" fill="#713DFF"/>
</g>
<defs>
<clipPath id="clip0_53_136">
<rect width="512" height="512" fill="white"/>
</clipPath>
</defs>
</svg>
