<svg width="512" height="512" viewBox="0 0 512 512" fill="none" xmlns="http://www.w3.org/2000/svg">
<circle cx="256" cy="256" r="254" fill="black"/>
<g clip-path="url(#clip0_35_1458)">
<path d="M361.834 510H150.166C60.2084 510 2 451.791 2 361.834V148.546C2 60.2084 60.2084 2 148.546 2H361.834C451.791 2 510 60.2084 510 150.166V361.834C510 451.791 451.791 510 361.834 510Z" fill="#263238"/>
<path d="M328.369 348.101C318.864 348.101 310.395 345.151 303.383 339.373C295.008 332.57 288.35 322.428 288.115 310.505C287.997 304.484 294.326 304.484 294.326 304.484C294.326 304.484 304.607 304.362 309.594 304.362C314.582 304.484 316.041 311.676 316.276 313.48C318.205 329.645 327.028 336.691 333.803 339.909C337.874 341.835 336.861 347.857 328.369 348.126V348.101Z" fill="white"/>
<path d="M243.015 265.963C234.64 264.938 222.218 264.061 214.196 262.013C201.186 258.697 201.538 246.579 202.103 242.629C203.68 230.78 207.867 219.809 214.313 209.618C222.336 197.134 233.864 186.163 248.685 177.239C276.494 160.538 319.109 150.168 361.833 150.168C369.751 150.168 427.391 150.168 427.391 162.074C427.391 168.689 414.082 168.072 408.288 168.072C364.764 168.072 333.78 174.192 310.724 187.455C287.998 200.45 272.164 220.345 261.437 249.797C260.308 252.358 256.567 267.523 243.015 265.987V265.963Z" fill="white"/>
<path d="M280.988 387.5C259.391 387.963 239.04 377.844 223.631 360.193C210.574 345.247 202.716 330.179 201.257 310.845C200.363 298.215 205.751 293.852 213.068 294.607C218.125 295.119 233.864 295.9 242.875 297.826C249.628 299.24 254.121 303.116 255.25 311.089C261.202 353.61 287.081 370.335 302.491 373.944C305.197 374.577 306.867 376.382 306.773 379.624C306.655 382.721 304.937 386.963 281.011 387.475L280.988 387.5Z" fill="white"/>
<path d="M219.463 425.245C204.148 425.903 189.161 422.709 184.879 421.929C166.859 418.613 151.755 412.884 138.815 404.375C107.831 384.041 89.1277 348.127 86.8925 305.606C86.328 295.512 85.0808 276.227 108.302 277.69C117.877 278.226 133.075 283.005 143.779 286.199C157.071 290.051 163.494 300.681 163.494 311.19C163.494 371.143 213.665 409.459 237.478 409.459C242.936 409.459 245.415 411.227 245.415 414.75C245.415 417.396 242.942 424.245 219.487 425.269L219.463 425.245Z" fill="white"/>
<path d="M139.544 249.061C130.486 247.379 121.641 243.503 113.03 241.284C86.3981 234.433 90.9384 206.589 93.4326 198.958C117.664 125.034 194.596 100.312 256.682 93.7048C315.144 87.4875 376.313 92.2907 433.294 108.723C437.364 109.845 448.586 112.649 446.162 119.476C443.739 126.303 436.987 121.548 374.831 120.134C354.34 119.671 333.872 121.012 313.333 124.279C278.091 129.838 241.86 141.37 212.735 165.702C198.689 177.478 186.338 192.497 178.08 210.247C175.916 214.903 174.222 219.561 172.763 224.217C171.281 229.142 165.729 253.865 139.567 249.086L139.544 249.061Z" fill="white"/>
<path d="M288.584 263.329C293.571 240.191 311.562 205.728 380.353 205.728C388.29 205.728 390.936 208.374 390.936 211.02C390.936 213.665 387.234 216.311 382.999 216.311C341.198 216.311 327.92 241.97 318.274 268.254C315.169 276.714 308.087 277.982 299.218 276.47C293.007 275.324 286.255 274.568 288.584 263.329Z" fill="white"/>
</g>
<defs>
<clipPath id="clip0_35_1458">
<rect width="508" height="508" fill="white" transform="translate(2 2)"/>
</clipPath>
</defs>
</svg>
