<svg width="512" height="512" viewBox="0 0 512 512" fill="none" xmlns="http://www.w3.org/2000/svg">
<g clip-path="url(#clip0_53_2)">
<path d="M236.28 4.70576C247.113 -1.56815 264.834 -1.56824 275.691 4.70576L463.784 113.285C469.593 116.934 474.378 122.001 477.689 128.009L348.956 202.325L387.344 180.123C373.979 157.119 354.819 138.017 331.774 124.722C308.73 111.427 282.603 104.402 255.998 104.347C215.79 104.388 177.24 120.379 148.809 148.81C120.377 177.242 104.386 215.792 104.346 256C104.308 282.619 111.323 308.774 124.679 331.8L124.659 331.811C137.973 354.856 157.112 373.995 180.158 387.306C203.208 400.62 229.354 407.636 255.973 407.652C282.579 407.602 308.707 400.58 331.753 387.285C354.799 373.989 373.956 354.885 387.317 331.878L321.684 293.9C315.011 305.416 305.433 314.98 293.906 321.635C282.38 328.291 269.308 331.804 255.998 331.826C242.694 331.811 229.627 328.3 218.107 321.643C206.588 314.987 197.021 305.419 190.364 293.9L317.8 220.302L190.34 293.9C183.713 282.37 180.231 269.301 180.244 256.003C180.257 242.704 183.764 229.643 190.413 218.126C197.062 206.609 206.621 197.04 218.132 190.38C229.642 183.719 242.701 180.199 255.999 180.174C269.301 180.199 282.365 183.713 293.886 190.363C305.407 197.013 314.982 206.568 321.658 218.074L321.684 218.099L477.689 128.009C481.275 134.181 483.477 141.147 483.477 147.421V364.58C483.476 370.854 481.274 377.819 477.689 383.99C474.104 390.187 469.188 395.591 463.784 398.716L275.691 507.295C264.834 513.569 247.113 513.568 236.28 507.295L48.1865 398.716C42.7832 395.591 37.8664 390.187 34.2812 383.99L34.2998 383.978C30.7188 377.81 28.5195 370.849 28.5195 364.579V147.421C28.5196 134.898 37.3799 119.533 48.1865 113.285L236.28 4.70576ZM375.857 206.745V230.698H351.91V242.675H375.857V266.628H351.91V278.604H375.857V302.557H387.831V278.604H411.778V302.557H423.752V278.604H447.699V266.628H423.752V242.675H447.699V230.698H423.752V206.745H411.778V230.698H387.831V206.745H375.857ZM411.778 242.675V266.628H387.831V242.675H411.778Z" fill="#6400FF"/>
</g>
<defs>
<clipPath id="clip0_53_2">
<rect width="512" height="512" fill="white"/>
</clipPath>
</defs>
</svg>
