<svg width="512" height="512" viewBox="0 0 512 512" fill="none" xmlns="http://www.w3.org/2000/svg">
<path d="M468 255C468 212.698 455.404 171.355 431.818 136.239C408.232 101.123 374.725 73.8248 335.566 57.8245C296.407 41.8242 253.37 37.8462 211.942 46.3975C170.514 54.9487 132.57 75.642 102.947 105.84C73.3236 136.037 53.363 174.372 45.609 215.957C37.855 257.541 42.6588 300.493 59.4083 339.338C76.1577 378.182 104.094 411.16 139.657 434.067C175.219 456.974 216.797 468.773 259.091 467.961L258.541 439.317C221.935 440.02 185.95 429.808 155.171 409.982C124.391 390.156 100.213 361.614 85.7159 327.994C71.2193 294.374 67.0616 257.2 73.7726 221.208C80.4837 185.216 97.7596 152.038 123.398 125.902C149.037 99.7661 181.877 81.8562 217.734 74.4551C253.59 67.054 290.837 70.497 324.729 84.3452C358.621 98.1934 387.622 121.82 408.036 152.212C428.449 182.605 439.351 218.388 439.351 255H468Z" fill="#E551FF"/>
<path d="M370 209C370 197.567 366.889 186.349 360.999 176.549C355.11 166.749 346.665 158.737 336.569 153.37C326.473 148.004 315.108 145.486 303.69 146.087C292.273 146.688 281.234 150.384 271.757 156.78C262.28 163.176 254.722 172.03 249.894 182.394C245.065 192.758 243.148 204.24 244.348 215.611C245.547 226.981 249.819 237.81 256.704 246.938C263.589 256.066 272.828 263.148 283.431 267.425L291.983 246.227C285.227 243.502 279.34 238.989 274.953 233.173C270.566 227.357 267.844 220.457 267.08 213.212C266.315 205.967 267.537 198.651 270.613 192.047C273.69 185.444 278.505 179.802 284.544 175.727C290.582 171.651 297.616 169.296 304.891 168.913C312.166 168.531 319.408 170.135 325.841 173.554C332.274 176.973 337.655 182.079 341.407 188.323C345.159 194.567 347.142 201.715 347.142 209H370Z" fill="#E551FF"/>
</svg>
