<svg width="512" height="512" viewBox="0 0 512 512" fill="none" xmlns="http://www.w3.org/2000/svg">
<g clip-path="url(#clip0_34_1401)">
<path d="M501.737 220.76C489.284 212.376 456.557 208.795 432.765 215.204C431.482 191.503 419.263 171.53 396.908 154.104L388.632 148.548L383.117 156.878C372.275 173.337 367.708 195.265 369.327 215.197C370.603 227.478 374.875 241.284 383.117 251.3C352.151 269.264 323.609 265.186 197.203 265.186H2.03991C1.46894 293.731 6.05683 348.645 40.9732 393.347C44.8289 398.284 49.0608 403.061 53.6487 407.663C82.0358 436.093 124.926 456.94 189.062 457C286.906 457.087 370.737 404.196 421.728 276.305C438.508 276.58 482.801 279.314 504.478 237.421C505.009 236.715 509.993 226.309 509.993 226.309L501.731 220.753L501.737 220.76ZM129.406 194.654H74.5259V249.54H129.406V194.654ZM200.307 194.654H145.427V249.54H200.307V194.654ZM271.207 194.654H216.327V249.54H271.207V194.654ZM342.108 194.654H287.228V249.54H342.108V194.654ZM58.5053 194.654H3.62518V249.54H58.5053V194.654ZM129.406 125.33H74.5259V180.217H129.406V125.33ZM200.307 125.33H145.427V180.217H200.307V125.33ZM271.207 125.33H216.327V180.217H271.207V125.33ZM271.207 56H216.327V110.886H271.207V56Z" fill="#1D63ED"/>
</g>
<defs>
<clipPath id="clip0_34_1401">
<rect width="508" height="401" fill="white" transform="translate(2 56)"/>
</clipPath>
</defs>
</svg>
