<svg width="512" height="512" viewBox="0 0 512 512" fill="none" xmlns="http://www.w3.org/2000/svg">
<g clip-path="url(#clip0_69_17)">
<path d="M118.583 241.63C124.539 231.228 120.889 218.056 110.43 212.209C99.971 206.363 86.6633 210.055 80.7065 220.457L10.7826 342.56C4.82578 352.962 8.4757 366.134 18.9349 371.98C29.3941 377.827 42.7019 374.134 48.6587 363.732L118.583 241.63Z" fill="#C5F74F"/>
<path d="M269.297 148.007C275.254 137.605 271.604 124.433 261.145 118.586C250.686 112.74 237.378 116.432 231.421 126.834L161.497 248.937C155.541 259.339 159.191 272.511 169.65 278.357C180.109 284.204 193.417 280.511 199.374 270.109L269.297 148.007Z" fill="#C5F74F"/>
<path d="M501.211 148.011C507.168 137.609 503.518 124.437 493.059 118.59C482.6 112.744 469.292 116.437 463.335 126.838L393.411 248.941C387.455 259.343 391.105 272.515 401.564 278.362C412.023 284.208 425.331 280.515 431.288 270.114L501.211 148.011Z" fill="#C5F74F"/>
<path d="M350.442 241.63C356.399 231.228 352.749 218.056 342.29 212.209C331.83 206.363 318.523 210.055 312.566 220.457L242.642 342.56C236.685 352.962 240.335 366.134 250.794 371.98C261.253 377.827 274.561 374.134 280.518 363.732L350.442 241.63Z" fill="#C5F74F"/>
</g>
<defs>
<clipPath id="clip0_69_17">
<rect width="512" height="512" fill="white"/>
</clipPath>
</defs>
</svg>
