<svg width="512" height="512" viewBox="0 0 512 512" fill="none" xmlns="http://www.w3.org/2000/svg">
<g clip-path="url(#clip0_10_277)">
<path d="M462 0H50C22.3858 0 0 22.3858 0 50V462C0 489.614 22.3858 512 50 512H462C489.614 512 512 489.614 512 462V50C512 22.3858 489.614 0 462 0Z" fill="#F7DF1E"/>
<path d="M79.3599 419.84H115.2V455.68H79.3599V419.84Z" fill="black"/>
<path d="M235.484 456.73V436.89H169.697V404.838H228.818V384.998H169.697V358.892H233.236V338.97H145.92V456.73H235.484ZM277.978 456.73V379.937L325.453 456.73H349.309V338.97H327.217V417.613L279.022 338.97H255.887V456.73H277.978ZM429.875 456.73L472.049 338.97H446.827L417.989 426.125L388.188 338.97H362.401L404.493 456.73H429.875Z" fill="black"/>
</g>
<defs>
<clipPath id="clip0_10_277">
<rect width="512" height="512" fill="white"/>
</clipPath>
</defs>
</svg>
