<svg width="512" height="512" viewBox="0 0 512 512" fill="none" xmlns="http://www.w3.org/2000/svg">
<g clip-path="url(#clip0_7_165)">
<path d="M462 0H50C22.3858 0 0 22.3858 0 50V462C0 489.614 22.3858 512 50 512H462C489.614 512 512 489.614 512 462V50C512 22.3858 489.614 0 462 0Z" fill="#F7DF1E"/>
<path d="M462 0H50C22.3858 0 0 22.3858 0 50V462C0 489.614 22.3858 512 50 512H462C489.614 512 512 489.614 512 462V50C512 22.3858 489.614 0 462 0Z" fill="#F7DF1E"/>
<path d="M340.433 397.917C351.008 415.183 364.767 427.875 389.1 427.875C409.542 427.875 422.6 417.658 422.6 403.542C422.6 386.625 409.183 380.633 386.683 370.792L374.35 365.5C338.75 350.333 315.1 331.333 315.1 291.167C315.1 254.167 343.292 226 387.35 226C418.717 226 441.267 236.917 457.517 265.5L419.1 290.167C410.642 275 401.517 269.025 387.35 269.025C372.9 269.025 363.742 278.192 363.742 290.167C363.742 304.967 372.908 310.958 394.075 320.125L406.408 325.408C448.325 343.383 471.992 361.708 471.992 402.908C471.992 447.325 437.1 471.658 390.242 471.658C344.425 471.658 314.825 449.825 300.342 421.208L340.433 397.917Z" fill="black"/>
<path d="M272.622 468.391H135V229.432H272.622V270.948H185.668V323.414H266.574V364.929H185.668V426.549H272.622V468.391Z" fill="black"/>
</g>
<defs>
<clipPath id="clip0_7_165">
<rect width="512" height="512" fill="white"/>
</clipPath>
</defs>
</svg>
