<svg width="512" height="512" viewBox="0 0 512 512" fill="none" xmlns="http://www.w3.org/2000/svg">
<path d="M356.189 195.329L259.761 139.656C258.574 138.97 257.228 138.609 255.858 138.609C254.488 138.609 253.142 138.97 251.956 139.656L155.527 195.329C154.341 196.013 153.356 196.996 152.67 198.181C151.985 199.366 151.623 200.711 151.621 202.08V313.426C151.621 316.21 153.113 318.786 155.527 320.186L251.956 375.859C254.37 377.25 257.338 377.25 259.761 375.859L356.189 320.186C358.604 318.794 360.088 316.218 360.088 313.426V202.08C360.088 199.289 358.604 196.72 356.189 195.321V195.329Z" fill="#8080F2"/>
<path d="M5.13341 246.042L120.355 45.5957C124.538 38.3443 132.274 33 140.641 33H371.076C379.45 33 387.179 38.3443 391.369 45.5957L506.584 245.604C508.639 249.204 509.72 253.277 509.72 257.423C509.72 261.568 508.639 265.642 506.584 269.242L391.369 468.05C387.179 475.294 379.45 479 371.076 479H140.641C132.274 479 124.538 475.409 120.355 468.158L5.1411 269.026C3.08472 265.544 2 261.574 2 257.53C2 253.486 3.08472 249.516 5.1411 246.034L5.13341 246.042ZM100.539 342.424C100.539 345.377 102.315 348.099 104.868 349.575L251.633 434.246C254.186 435.723 257.385 435.723 259.938 434.246L406.81 349.575C409.363 348.099 411.147 345.377 411.147 342.424V173.075C411.147 170.13 409.386 167.4 406.841 165.923L260.069 81.268C258.806 80.5435 257.376 80.1623 255.92 80.1623C254.464 80.1623 253.034 80.5435 251.771 81.268L104.884 165.931C102.331 167.407 100.531 170.137 100.531 173.082V342.432L100.539 342.424Z" fill="#4B32C3"/>
</svg>
