<svg width="512" height="512" viewBox="0 0 512 512" fill="none" xmlns="http://www.w3.org/2000/svg">
<path fill-rule="evenodd" clip-rule="evenodd" d="M355.739 90.112H413.659C465.176 90.112 507 131.954 507 183.492V387.242C507 438.781 465.176 480.623 413.659 480.623H409.093C382.578 476.473 371.079 468.518 362.196 461.796L288.556 401.221C286.709 399.733 284.408 398.923 282.037 398.923C279.666 398.923 277.365 399.733 275.518 401.221L251.593 420.903L184.216 365.477C182.371 363.987 180.072 363.175 177.701 363.175C175.33 363.175 173.03 363.987 171.186 365.477L77.5796 447.857C58.7397 463.185 46.2791 460.355 38.198 459.467C17.325 442.33 4 416.329 4 387.242V183.492C4 131.954 45.8243 90.112 97.3502 90.112H155.141L155.036 90.344L153.087 96.027L152.481 97.9766L149.858 109.614L149.497 111.657L148.346 123.312L148.192 126.512L148.168 127.633L148.277 132.978L148.542 136.109L149.189 141.015L150.018 145.426L150.999 149.491L152.274 153.89L155.581 163.207L156.671 166.001L162.43 178.174L164.463 181.914L171.123 193.349L173.671 197.474L182.966 211.166L184.309 212.98L196.402 228.727L200.309 233.573L214.118 249.724L216.956 252.83L228.338 265.082L232.847 269.753L240.299 277.156L238.802 278.407L237.871 279.247C235.337 281.61 232.94 284.115 230.69 286.75C229.609 288.025 228.579 289.342 227.603 290.698C226.112 292.768 224.778 294.946 223.615 297.218C223.019 298.397 222.486 299.605 222.016 300.84C220.802 303.994 220.073 307.313 219.853 310.685L219.811 313.595C219.917 317.699 220.751 321.752 222.278 325.564C223.825 329.428 226.081 332.969 228.931 336.002C231.005 338.211 233.364 340.132 235.946 341.715C238.148 343.062 240.494 344.174 242.931 345.017C248.232 346.816 253.855 347.455 259.425 346.895H259.455C264.206 346.434 268.824 345.062 273.057 342.854C274.883 341.888 276.621 340.763 278.249 339.491C282.917 335.857 286.533 331.046 288.728 325.552C290.442 321.267 291.282 316.69 291.207 312.08L291.074 309.672C290.761 306.49 290.002 303.368 288.818 300.397C288.306 299.105 287.722 297.842 287.072 296.61C285.867 294.344 284.493 292.171 282.969 290.107C282.27 289.164 281.548 288.239 280.801 287.332C278.313 284.363 275.636 281.557 272.786 278.934L270.771 277.219L274.183 273.848L288.849 258.525L293.921 252.954L301.806 244.08L306.936 238.077L314.249 229.167L319.2 222.939L326.471 213.212L330.143 208.18L335.35 200.391L339.688 193.753L347.859 179.515L352.534 170.174L352.669 169.888L356.248 161.222C356.293 161.11 356.335 160.996 356.368 160.878L360.223 148.852L360.627 147.099L362.299 137.525L362.624 134.934L362.723 133.346L362.838 127.353L362.808 126.235L362.5 120.868L362.121 116.701L360.223 104.681C360.195 104.519 360.158 104.36 360.112 104.202L357.675 95.3159L356.835 92.845L355.739 90.112ZM383.271 344.192C371.202 344.361 361.323 354.244 361.154 366.315C361.332 378.386 371.205 388.264 383.271 388.435C395.334 388.261 405.21 378.386 405.394 366.315C405.219 354.244 395.34 344.361 383.271 344.192Z" fill="url(#paint0_radial_98_39)"/>
<path fill-rule="evenodd" clip-rule="evenodd" d="M222.363 472.668L218.459 475.952C214.847 478.926 210.327 480.574 205.649 480.623H97.3475C75.7737 480.65 54.8619 473.171 38.1953 459.467C46.2764 460.355 58.737 463.185 77.5769 447.857L171.183 365.477C173.028 363.987 175.327 363.175 177.698 363.175C180.069 363.175 182.368 363.987 184.213 365.477L251.591 420.903L275.515 401.221C277.363 399.733 279.663 398.923 282.034 398.923C284.406 398.923 286.706 399.733 288.554 401.221L362.194 461.796C371.076 468.518 382.576 476.473 409.09 480.623H360.103C355.776 480.568 351.572 479.168 348.076 476.615L347.218 475.952L343.583 472.93C343.293 472.575 342.97 472.249 342.619 471.956C323.864 456.381 305.1 440.815 286.328 425.26C285.224 424.344 283.834 423.844 282.4 423.847C280.966 423.851 279.578 424.357 278.479 425.278C278.479 425.278 278.611 425.435 223.101 471.956C222.829 472.182 222.582 472.421 222.363 472.668ZM383.268 344.192C371.199 344.361 361.32 354.244 361.151 366.315C361.329 378.386 371.202 388.264 383.268 388.435C395.331 388.261 405.208 378.386 405.391 366.315C405.217 354.244 395.337 344.361 383.268 344.192ZM240.296 277.156L232.844 269.753L228.335 265.082L216.953 252.83L214.116 249.724L200.306 233.573L196.399 228.724L184.306 212.98L182.963 211.166L173.668 197.474L171.12 193.349L164.46 181.914L162.427 178.174L156.668 166.001L155.578 163.207L152.271 153.89L150.997 149.491L150.015 145.426L149.187 141.012L148.539 136.109L148.274 132.978L148.166 127.633L148.19 126.512L148.343 123.312L149.494 111.654L149.855 109.614L152.479 97.9766L153.084 96.027L155.033 90.344L155.656 88.8736L158.759 82.0576L160.909 78.0018L163.903 73.0601L166.888 68.6607L169.014 65.8644L171.463 62.9115L174.159 59.9434L176.469 57.6202L182.092 52.6694L186.204 49.3036C186.303 49.2193 186.406 49.1439 186.511 49.0716L191.375 45.7812L195.24 43.3163L202.58 39.4503C202.691 39.381 202.818 39.3268 202.935 39.2725L213.345 34.9516L214.306 34.59L223.558 31.8811L227.465 31.0042L232.748 29.9435L236.251 29.4102L241.624 28.7413L245.287 28.4158L252.561 28.0301L255.41 28L260.804 28.1115L262.208 28.1898L270.027 28.8407L280.367 30.2991L281.563 30.5492L291.783 33.0924L294.783 33.9873L298.117 35.1414L302.177 36.6781L305.388 38.0401L310.104 40.2639L313.077 41.7916L318.421 44.9284L320.411 46.1548L327.694 51.4732L329.785 53.2872L334.863 57.9155L335.113 58.1656L339.42 62.7879L340.902 64.4603L345.956 71.1798L346.986 72.7859L350.998 79.5626L352.206 81.8859L354.468 86.9421L356.832 92.845L357.673 95.3159L360.109 104.202C360.154 104.359 360.191 104.518 360.221 104.681L362.118 116.698L362.498 120.868L362.805 126.235L362.835 127.353L362.721 133.346L362.621 134.934L362.296 137.525L360.624 147.099L360.221 148.852L356.365 160.878C356.331 160.995 356.291 161.109 356.245 161.222L352.667 169.888L352.531 170.174L347.857 179.515L339.685 193.753L335.348 200.391L330.14 208.18L326.469 213.212L319.198 222.939L314.246 229.167L306.933 238.077L301.803 244.08L293.918 252.954L288.846 258.525L274.181 273.848L270.768 277.219L272.783 278.934C275.632 281.559 278.31 284.358 280.798 287.332C281.545 288.239 282.268 289.164 282.967 290.107C284.491 292.171 285.864 294.344 287.069 296.61C287.719 297.836 288.301 299.105 288.816 300.397C289.987 303.365 290.777 306.502 291.072 309.672L291.204 312.08C291.28 316.69 290.436 321.27 288.725 325.552C286.531 331.046 282.915 335.856 278.247 339.488C276.617 340.766 274.879 341.887 273.054 342.854C268.821 345.062 264.203 346.434 259.452 346.895H259.422C253.853 347.456 248.229 346.816 242.928 345.017C240.488 344.171 238.146 343.064 235.944 341.715C233.361 340.132 231.002 338.211 228.929 336.002C226.079 332.969 223.822 329.428 222.275 325.564C220.749 321.753 219.913 317.7 219.808 313.595L219.851 310.685C220.07 307.313 220.799 303.992 222.013 300.84C222.486 299.602 223.019 298.394 223.613 297.218C224.775 294.943 226.112 292.768 227.6 290.698C228.573 289.342 229.609 288.025 230.688 286.75C232.937 284.115 235.334 281.61 237.868 279.247L238.799 278.407L240.296 277.156Z" fill="#24175B"/>
<path fill-rule="evenodd" clip-rule="evenodd" d="M218.46 475.952L278.479 425.278C279.579 424.357 280.966 423.851 282.4 423.847C283.835 423.844 285.225 424.344 286.328 425.26L347.218 475.952C350.922 478.967 355.549 480.617 360.324 480.623H205.43C210.183 480.624 214.789 478.973 218.46 475.952ZM255.82 295.055L256.407 295.227C256.597 295.317 256.757 295.453 256.928 295.57L257.419 296.004C258.63 297.119 259.808 298.291 260.94 299.49C261.739 300.343 262.516 301.22 263.263 302.127C264.211 303.272 265.1 304.474 265.91 305.725C266.26 306.276 266.585 306.834 266.889 307.415C267.154 307.918 267.392 308.44 267.6 308.967C267.967 309.886 268.244 310.856 268.329 311.842L268.311 313.692C268.188 315.363 267.671 316.981 266.8 318.412C265.93 319.843 264.732 321.047 263.305 321.924C261.453 323.044 259.372 323.729 257.218 323.928L254.932 323.994L253.001 323.825C252.099 323.692 251.21 323.476 250.347 323.181C249.469 322.882 248.627 322.487 247.835 322.002L246.329 320.899C244.555 319.383 243.345 317.31 242.899 315.018C242.824 314.631 242.765 314.242 242.721 313.852L242.667 312.086C242.697 311.61 242.769 311.137 242.875 310.663C243.137 309.636 243.516 308.636 243.995 307.686C244.612 306.493 245.317 305.348 246.103 304.26C247.408 302.495 248.823 300.816 250.335 299.228C251.311 298.198 252.308 297.2 253.35 296.236L254.091 295.57C254.606 295.227 254.612 295.227 255.2 295.055H255.82ZM252.028 48.9601L252.266 48.9421V255.301L251.751 254.352C244.961 241.785 238.641 228.97 232.803 215.933C228.065 205.384 223.775 194.639 219.944 183.728C216.881 175.034 214.293 166.18 212.192 157.205C210.562 150.079 209.312 142.847 208.8 135.54C208.602 132.422 208.543 129.297 208.622 126.175C208.671 123.454 208.782 120.739 208.951 118.024C209.222 113.751 209.655 109.49 210.282 105.263C210.779 101.936 211.39 98.6184 212.149 95.34C212.752 92.7335 213.448 90.1482 214.246 87.605C215.396 83.9288 216.776 80.3371 218.381 76.8296C218.969 75.5671 219.601 74.3106 220.261 73.0781C224.243 65.6987 229.646 58.9038 236.724 54.3538C241.323 51.3609 246.57 49.5116 252.028 48.9601ZM278.774 49.4814L292.65 53.4408C299.106 55.7983 305.251 58.9308 310.951 62.7698C318.7 68.0032 325.378 74.6683 330.628 82.4072C333.71 87.0067 336.267 91.9369 338.252 97.1058C341.139 104.747 342.925 112.76 343.556 120.904C343.74 123.038 343.845 125.177 343.887 127.314C343.935 129.299 343.923 131.294 343.764 133.28C343.369 137.723 342.534 142.116 341.27 146.393C340.254 149.896 339.054 153.342 337.674 156.717C335.96 160.914 334.055 165.03 331.966 169.053C327.339 177.99 322.014 186.539 316.319 194.807C309.256 204.969 301.727 214.799 293.756 224.265C285.098 234.592 276.069 244.603 266.687 254.277C273.055 242.335 278.997 230.171 284.503 217.81C287.564 210.923 290.453 203.96 293.166 196.929C296.151 189.207 298.842 181.375 301.235 173.449C303.023 167.512 304.57 161.505 305.873 155.442C306.981 150.238 307.852 144.98 308.391 139.689C308.843 135.278 309.009 130.839 308.9 126.413C308.858 123.704 308.758 120.996 308.599 118.292C307.948 107.408 306.295 96.5604 303.123 86.1225C301.921 82.1645 300.459 78.2901 298.747 74.5245C294.687 65.6746 289.018 57.4002 281.35 51.3647L278.774 49.4814Z" fill="white"/>
<defs>
<radialGradient id="paint0_radial_98_39" cx="0" cy="0" r="1" gradientUnits="userSpaceOnUse" gradientTransform="translate(271.072 283.668) scale(364.38 364.533)">
<stop stop-color="#BA7BF0"/>
<stop offset="0.45" stop-color="#996BEC"/>
<stop offset="1" stop-color="#5046E4"/>
</radialGradient>
</defs>
</svg>
