<svg width="512" height="512" viewBox="0 0 512 512" fill="none" xmlns="http://www.w3.org/2000/svg">
<g clip-path="url(#clip0_24_789)">
<path d="M462 0C489.614 0 512 22.3858 512 50V462C512 489.614 489.614 512 462 512H50C22.3858 512 0 489.614 0 462V50C0 22.3858 22.3858 0 50 0H462ZM144.672 168.764C120.648 168.764 100.287 173.256 83.5879 182.24C66.9863 191.225 54.3398 203.92 45.6484 220.326C37.0547 236.732 32.7578 256.166 32.7578 278.627C32.7578 302.553 36.6152 322.719 44.3301 339.125C52.0449 355.531 63.3242 367.934 78.168 376.332C93.0117 384.73 111.078 388.93 132.367 388.93C147.699 388.93 161.42 387.855 173.529 385.707C185.639 383.461 197.309 380.482 208.539 376.771V265.736H123.578V303.529H164.154V348.207C160.248 348.891 156.049 349.574 151.557 350.258C147.162 350.844 141.742 351.137 135.297 351.137C122.113 351.137 111.42 348.109 103.217 342.055C95.0137 335.902 89.0078 327.455 85.1992 316.713C81.3906 305.873 79.4863 293.471 79.4863 279.506C79.4863 264.76 82.123 251.967 87.3965 241.127C92.7676 230.189 100.287 221.693 109.955 215.639C119.721 209.584 131.195 206.557 144.379 206.557C153.559 206.557 162.348 207.68 170.746 209.926C179.145 212.172 186.615 214.955 193.158 218.275L208.246 181.947C199.262 178.041 189.252 174.867 178.217 172.426C167.182 169.984 156 168.764 144.672 168.764ZM259.662 171.84V386H305.072V171.84H259.662ZM358.979 171.84V386H403.656V301.332H476.312V264.271H403.656V209.047H481.732V171.84H358.979Z" fill="#4687FF"/>
</g>
<defs>
<clipPath id="clip0_24_789">
<rect width="512" height="512" fill="white"/>
</clipPath>
</defs>
</svg>
