<svg width="512" height="512" viewBox="0 0 512 512" fill="none" xmlns="http://www.w3.org/2000/svg">
<g clip-path="url(#clip0_3_41)">
<mask id="mask0_3_41" style="mask-type:luminance" maskUnits="userSpaceOnUse" x="0" y="0" width="512" height="512">
<path d="M0 0.628862H511.371V512H0V0.628862Z" fill="white"/>
</mask>
<g mask="url(#mask0_3_41)">
<path d="M501.738 233.544L278.461 10.2845C275.403 7.22397 271.771 4.79611 267.774 3.13965C263.777 1.4832 259.492 0.630607 255.165 0.630607C250.838 0.630607 246.554 1.4832 242.557 3.13965C238.56 4.79611 234.928 7.22397 231.869 10.2845L185.522 56.6539L244.324 115.456C251.237 113.108 258.67 112.742 265.78 114.398C272.891 116.054 279.396 119.667 284.561 124.828C289.754 130.026 293.379 136.581 295.021 143.743C296.664 150.905 296.258 158.384 293.849 165.326L350.542 222.002C357.486 219.59 364.968 219.184 372.132 220.83C379.296 222.476 385.851 226.107 391.046 231.307C394.685 234.945 397.571 239.265 399.541 244.019C401.51 248.773 402.524 253.868 402.524 259.014C402.524 264.159 401.51 269.255 399.541 274.008C397.571 278.762 394.685 283.082 391.046 286.72C383.689 294.069 373.716 298.197 363.317 298.197C352.918 298.197 342.945 294.069 335.588 286.72C330.123 281.246 326.4 274.277 324.887 266.692C323.373 259.106 324.138 251.242 327.085 244.09L274.215 191.238V330.351C279.795 333.108 284.639 337.154 288.344 342.155C292.049 347.156 294.509 352.968 295.521 359.11C296.533 365.251 296.067 371.545 294.162 377.47C292.257 383.395 288.967 388.782 284.566 393.183C280.928 396.822 276.609 399.708 271.855 401.677C267.101 403.647 262.006 404.661 256.86 404.661C251.714 404.661 246.619 403.647 241.865 401.677C237.111 399.708 232.792 396.822 229.153 393.183C225.514 389.544 222.626 385.225 220.657 380.47C218.687 375.716 217.673 370.62 217.673 365.473C217.673 360.327 218.687 355.231 220.657 350.477C222.626 345.722 225.514 341.402 229.153 337.764C232.82 334.09 237.178 331.179 241.976 329.199V188.806C237.198 186.837 232.855 183.945 229.198 180.293C225.541 176.642 222.642 172.304 220.667 167.529C218.691 162.754 217.679 157.635 217.687 152.468C217.696 147.3 218.725 142.185 220.717 137.416L162.738 79.4268L9.62792 232.498C3.45808 238.68 -0.00708008 247.057 -0.00708008 255.791C-0.00708008 264.525 3.45808 272.903 9.62792 279.085L232.916 502.372C239.097 508.54 247.473 512.004 256.206 512.004C264.939 512.004 273.315 508.54 279.496 502.372L501.738 280.131C507.908 273.949 511.373 265.572 511.373 256.838C511.373 248.104 507.908 239.726 501.738 233.544Z" fill="#F03C2E"/>
</g>
</g>
<defs>
<clipPath id="clip0_3_41">
<rect width="512" height="512" fill="white"/>
</clipPath>
</defs>
</svg>
