<svg width="512" height="512" viewBox="0 0 512 512" fill="none" xmlns="http://www.w3.org/2000/svg">
<g clip-path="url(#clip0_60_62)">
<path d="M324.858 163.464H340.474L384.98 118.959L387.166 100.063C361.67 77.5602 330.859 61.928 297.642 54.6435C264.426 47.359 229.9 48.6627 197.327 58.4314C164.755 68.2001 135.21 86.1113 111.484 110.473C87.758 134.835 70.6344 164.843 61.7305 197.663C66.6886 195.631 72.1809 195.301 77.3464 196.726L166.357 182.047C166.357 182.047 170.886 174.551 173.228 175.02C192.3 154.074 218.657 141.21 246.904 139.061C275.151 136.913 303.15 145.643 325.171 163.464H324.858Z" fill="#EA4335"/>
<path d="M448.412 197.663C438.182 159.992 417.179 126.125 387.979 100.22L325.515 162.683C338.533 173.32 348.966 186.774 356.026 202.031C363.086 217.288 366.59 233.949 366.273 250.757V261.844C373.573 261.844 380.802 263.282 387.547 266.076C394.292 268.87 400.42 272.965 405.582 278.127C410.745 283.289 414.84 289.418 417.633 296.162C420.427 302.907 421.865 310.136 421.865 317.437C421.865 324.737 420.427 331.966 417.633 338.711C414.84 345.456 410.745 351.584 405.582 356.747C400.42 361.909 394.292 366.004 387.547 368.798C380.802 371.591 373.573 373.029 366.273 373.029H255.087L244 384.273V450.953L255.087 462.04H366.273C397.321 462.282 427.622 452.524 452.694 434.209C477.766 415.894 496.278 389.996 505.49 360.345C514.702 330.694 514.126 298.866 503.847 269.567C493.567 240.269 474.131 215.058 448.412 197.663Z" fill="#4285F4"/>
<path d="M143.719 461.415H254.904V372.405H143.719C135.797 372.403 127.969 370.699 120.763 367.408L105.147 372.249L60.3298 416.754L56.4258 432.37C81.5585 451.348 112.226 461.552 143.719 461.415Z" fill="#34A853"/>
<path d="M143.739 172.677C113.614 172.857 84.2962 182.442 59.882 200.093C35.4678 217.743 17.176 242.579 7.56155 271.13C-2.05292 299.681 -2.50998 330.522 6.2542 359.345C15.0184 388.169 32.5661 413.535 56.4466 431.901L120.94 367.408C112.744 363.705 105.569 358.069 100.031 350.983C94.4918 343.898 90.7547 335.574 89.14 326.727C87.5252 317.88 88.081 308.773 90.7597 300.188C93.4384 291.602 98.1599 283.795 104.519 277.436C110.879 271.076 118.686 266.355 127.271 263.676C135.856 260.998 144.963 260.442 153.811 262.056C162.658 263.671 170.981 267.408 178.067 272.947C185.152 278.486 190.788 285.661 194.491 293.857L258.985 229.363C245.448 211.666 228.001 197.341 208.009 187.507C188.016 177.674 166.02 172.598 143.739 172.677Z" fill="#FBBC05"/>
</g>
<defs>
<clipPath id="clip0_60_62">
<rect width="512" height="512" fill="white"/>
</clipPath>
</defs>
</svg>
