<svg width="512" height="512" viewBox="0 0 512 512" fill="none" xmlns="http://www.w3.org/2000/svg">
<g clip-path="url(#clip0_36_1478)">
<g clip-path="url(#clip1_36_1478)">
<path d="M129.463 399.36L5.85156 301.349L67.2916 187.246L243.566 256L129.463 399.36Z" fill="url(#paint0_linear_36_1478)"/>
<path d="M512 136.777L502.492 433.006L305.738 512L187.246 435.931L360.595 256L284.526 89.9657L352.549 8.04571L512 136.777Z" fill="url(#paint1_linear_36_1478)"/>
<path d="M512.002 136.777L356.207 321.097L284.527 89.9657L352.55 8.04571L512.002 136.777Z" fill="url(#paint2_linear_36_1478)"/>
<path d="M246.491 424.96L40.96 499.566L73.8743 384L117.029 242.103L0 202.606L73.8743 0L234.789 19.7486L392.777 200.411L246.491 424.96Z" fill="url(#paint3_linear_36_1478)"/>
<path d="M416.184 98.7429H100.207V414.72H416.184V98.7429Z" fill="black"/>
<path d="M247.956 355.474H129.465V375.223H247.956V355.474Z" fill="white"/>
<path d="M215.04 163.84V139.703H149.211V163.84H168.228V246.491H149.211V270.629H215.04V246.491H196.754V163.84H215.04Z" fill="white"/>
<path d="M277.942 272.823C267.702 272.823 258.925 270.629 252.342 266.971C245.76 263.314 239.908 258.194 235.52 253.074L253.805 232.594C257.462 236.983 261.12 239.909 264.777 242.103C268.434 244.297 272.822 245.76 277.211 245.76C282.331 245.76 286.72 244.297 290.377 240.64C293.302 236.983 294.765 231.863 294.765 223.817V139.703H324.022V225.28C324.022 233.326 323.291 239.909 321.097 245.76C318.902 251.611 315.977 256 311.588 260.389C307.931 264.046 302.811 267.703 296.96 269.166C291.108 271.36 285.257 272.823 277.942 272.823Z" fill="white"/>
</g>
</g>
<defs>
<linearGradient id="paint0_linear_36_1478" x1="5.77696" y1="293.225" x2="243.692" y2="293.225" gradientUnits="userSpaceOnUse">
<stop offset="0.2581" stop-color="#F97A12"/>
<stop offset="0.4591" stop-color="#B07B58"/>
<stop offset="0.7241" stop-color="#577BAE"/>
<stop offset="0.9105" stop-color="#1E7CE5"/>
<stop offset="1" stop-color="#087CFA"/>
</linearGradient>
<linearGradient id="paint1_linear_36_1478" x1="188.471" y1="181.979" x2="580.93" y2="399.141" gradientUnits="userSpaceOnUse">
<stop stop-color="#F97A12"/>
<stop offset="0.0717995" stop-color="#CB7A3E"/>
<stop offset="0.1541" stop-color="#9E7B6A"/>
<stop offset="0.242" stop-color="#757B91"/>
<stop offset="0.3344" stop-color="#537BB1"/>
<stop offset="0.4324" stop-color="#387CCC"/>
<stop offset="0.5381" stop-color="#237CE0"/>
<stop offset="0.6552" stop-color="#147CEF"/>
<stop offset="0.7925" stop-color="#0B7CF7"/>
<stop offset="1" stop-color="#087CFA"/>
</linearGradient>
<linearGradient id="paint2_linear_36_1478" x1="462.467" y1="313.895" x2="353.211" y2="-12.574" gradientUnits="userSpaceOnUse">
<stop stop-color="#FE315D"/>
<stop offset="0.0784025" stop-color="#CB417E"/>
<stop offset="0.1601" stop-color="#9E4E9B"/>
<stop offset="0.2474" stop-color="#755BB4"/>
<stop offset="0.3392" stop-color="#5365CA"/>
<stop offset="0.4365" stop-color="#386DDB"/>
<stop offset="0.5414" stop-color="#2374E9"/>
<stop offset="0.6576" stop-color="#1478F3"/>
<stop offset="0.794" stop-color="#0B7BF8"/>
<stop offset="1" stop-color="#087CFA"/>
</linearGradient>
<linearGradient id="paint3_linear_36_1478" x1="78.4121" y1="120.488" x2="406.116" y2="662.528" gradientUnits="userSpaceOnUse">
<stop stop-color="#FE315D"/>
<stop offset="0.0402328" stop-color="#F63462"/>
<stop offset="0.1037" stop-color="#DF3A71"/>
<stop offset="0.1667" stop-color="#C24383"/>
<stop offset="0.2912" stop-color="#AD4A91"/>
<stop offset="0.5498" stop-color="#755BB4"/>
<stop offset="0.9175" stop-color="#1D76ED"/>
<stop offset="1" stop-color="#087CFA"/>
</linearGradient>
<clipPath id="clip0_36_1478">
<rect width="512" height="512" fill="white"/>
</clipPath>
<clipPath id="clip1_36_1478">
<rect width="512" height="512" fill="white"/>
</clipPath>
</defs>
</svg>
