<svg width="512" height="512" viewBox="0 0 512 512" fill="none" xmlns="http://www.w3.org/2000/svg">
<path d="M189.309 395.623C189.309 395.623 169.843 406.943 203.162 410.773C243.527 415.378 264.157 414.718 308.64 406.299C308.64 406.299 320.335 413.632 336.667 419.983C236.949 462.721 110.985 417.508 189.309 395.623Z" fill="#5382A1"/>
<path d="M177.125 339.853C177.125 339.853 155.292 356.014 188.636 359.463C231.755 363.911 265.807 364.275 324.731 352.929C324.731 352.929 332.881 361.191 345.696 365.71C225.13 400.965 90.8423 368.49 177.125 339.853Z" fill="#5382A1"/>
<path d="M279.849 245.249C304.419 273.537 273.393 298.993 273.393 298.993C273.393 298.993 335.782 266.787 307.13 226.456C280.369 188.845 259.848 170.157 370.944 105.726C370.944 105.726 196.56 149.279 279.849 245.249Z" fill="#F8981D"/>
<path d="M411.734 436.873C411.734 436.873 426.139 448.743 395.869 457.925C338.311 475.362 156.304 480.627 105.743 458.62C87.5678 450.713 121.652 439.74 132.373 437.438C143.554 435.013 149.944 435.465 149.944 435.465C129.731 421.226 19.2972 463.424 93.8491 475.508C297.163 508.48 464.471 460.661 411.734 436.873Z" fill="#5382A1"/>
<path d="M198.669 282.069C198.669 282.069 106.088 304.058 165.884 312.043C191.131 315.424 241.461 314.659 288.342 310.731C326.656 307.499 365.128 300.627 365.128 300.627C365.128 300.627 351.618 306.413 341.844 313.087C247.83 337.813 66.2135 326.31 118.499 301.019C162.716 279.644 198.669 282.069 198.669 282.069Z" fill="#5382A1"/>
<path d="M364.751 374.9C460.32 325.239 416.133 277.515 385.29 283.944C377.731 285.518 374.36 286.881 374.36 286.881C374.36 286.881 377.167 282.485 382.527 280.582C443.542 259.131 490.468 343.85 362.83 377.403C362.83 377.403 364.309 376.083 364.751 374.9Z" fill="#5382A1"/>
<path d="M307.129 1.68527C307.129 1.68527 360.056 54.6308 256.929 136.046C174.231 201.355 238.071 238.593 256.895 281.138C208.623 237.585 173.197 199.245 196.963 163.562C231.846 111.182 328.484 85.7861 307.129 1.68527Z" fill="#F8981D"/>
<path d="M208.061 509.471C299.795 515.344 440.664 506.213 444 462.807C444 462.807 437.587 479.262 368.187 492.33C289.89 507.065 193.321 505.344 136.045 495.901C136.045 495.901 147.77 505.605 208.061 509.471Z" fill="#5382A1"/>
</svg>
