<svg width="512" height="512" viewBox="0 0 512 512" fill="none" xmlns="http://www.w3.org/2000/svg">
<path opacity="0.3" d="M268.724 59.1513C268.54 59.8883 268.536 60.6803 268.691 61.5163C268.691 61.5163 271.198 78.1583 268.352 85.5643L147.347 400.197L147.356 400.201C138.72 423.311 150.293 449.112 173.37 457.988C196.447 466.863 222.325 455.464 231.4 432.524L231.411 432.529L352.416 117.895C354.782 111.74 368.276 99.8163 368.276 99.8163C368.953 99.3003 369.478 98.7083 369.836 98.0383L369.895 97.9163C369.96 97.7843 370.036 97.6583 370.088 97.5213C373.208 89.4083 353.083 74.1163 325.136 63.3693C297.188 52.6213 272.003 50.4853 268.883 58.5983C268.83 58.7353 268.8 58.8793 268.761 59.0203L268.724 59.1513Z" fill="black"/>
<path d="M265.227 56.4773C265.042 57.2143 265.037 58.0063 265.194 58.8423C265.194 58.8423 267.702 75.4843 264.854 82.8903L143.848 397.522L143.859 397.526C135.224 420.636 146.796 446.437 169.873 455.313C192.948 464.188 218.828 452.789 227.903 429.849L227.914 429.854L348.919 115.22C351.284 109.065 364.779 97.1413 364.779 97.1413C365.456 96.6253 365.981 96.0343 366.339 95.3633L366.397 95.2413C366.462 95.1103 366.538 94.9833 366.59 94.8463C369.71 86.7333 349.585 71.4423 321.639 60.6943C293.691 49.9463 268.506 47.8103 265.386 55.9233C265.333 56.0603 265.303 56.2043 265.264 56.3453L265.227 56.4773Z" fill="url(#paint0_linear_5_105)"/>
<path d="M303.184 198.814L215.922 425.71L215.979 425.731C209.543 441.993 190.813 450.454 174.198 444.064C157.583 437.674 148.59 418.552 154.71 402.167L210.468 257.185C210.468 257.185 217.432 245.952 231.105 237.96C244.778 229.969 256.054 231.655 271.237 224.907C286.419 218.159 303.184 198.814 303.184 198.814Z" fill="url(#paint1_linear_5_105)"/>
<path d="M312.51 84.4762C329.855 91.1476 345.339 92.8574 347.094 88.2952C348.849 83.733 336.21 74.6264 318.864 67.955C301.518 61.2836 286.035 59.5738 284.28 64.136C282.525 68.6982 295.164 77.8048 312.51 84.4762Z" fill="#333333"/>
<path opacity="0.3" d="M265.193 58.8413C265.193 58.8413 267.664 75.5783 264.853 82.8893L143.848 397.522L143.859 397.526C135.224 420.636 146.796 446.437 169.873 455.313C173.878 456.853 177.965 457.768 182.037 458.135C166.481 446.433 159.807 425.503 166.944 406.405L166.933 406.401L285.537 98.0093C285.537 98.0093 269.393 82.8503 265.193 58.8413Z" fill="white"/>
<path opacity="0.5" d="M226.235 265.312C228.171 265.312 229.741 263.743 229.741 261.806C229.741 259.87 228.171 258.3 226.235 258.3C224.298 258.3 222.729 259.87 222.729 261.806C222.729 263.743 224.298 265.312 226.235 265.312Z" fill="white"/>
<path opacity="0.5" d="M249.218 292.512C252.136 292.512 254.503 290.146 254.503 287.227C254.503 284.308 252.136 281.942 249.218 281.942C246.299 281.942 243.933 284.308 243.933 287.227C243.933 290.146 246.299 292.512 249.218 292.512Z" fill="white"/>
<path opacity="0.5" d="M214.133 327.374C219.609 327.374 224.048 322.935 224.048 317.459C224.048 311.983 219.609 307.544 214.133 307.544C208.657 307.544 204.218 311.983 204.218 317.459C204.218 322.935 208.657 327.374 214.133 327.374Z" fill="white"/>
<path opacity="0.5" d="M198.079 341.081C200.998 341.081 203.365 338.715 203.365 335.795C203.365 332.876 200.998 330.509 198.079 330.509C195.159 330.509 192.793 332.876 192.793 335.795C192.793 338.715 195.159 341.081 198.079 341.081Z" fill="white"/>
<path opacity="0.5" d="M219.134 378.514C221.07 378.514 222.64 376.945 222.64 375.008C222.64 373.072 221.07 371.502 219.134 371.502C217.197 371.502 215.628 373.072 215.628 375.008C215.628 376.945 217.197 378.514 219.134 378.514Z" fill="white"/>
<defs>
<linearGradient id="paint0_linear_5_105" x1="195.159" y1="238.547" x2="296.365" y2="277.465" gradientUnits="userSpaceOnUse">
<stop stop-color="#919191"/>
<stop offset="1" stop-color="white"/>
</linearGradient>
<linearGradient id="paint1_linear_5_105" x1="192.573" y1="303.705" x2="253.843" y2="327.266" gradientUnits="userSpaceOnUse">
<stop stop-color="#990000"/>
<stop offset="1" stop-color="#E80000"/>
</linearGradient>
</defs>
</svg>
