<svg width="512" height="512" viewBox="0 0 512 512" fill="none" xmlns="http://www.w3.org/2000/svg">
<g clip-path="url(#clip0_22_721)">
<path d="M141.889 434.117C120.242 434.117 103.542 432.324 91.791 428.736C80.0397 425.273 71.8757 419.706 67.2988 412.037C62.8457 404.368 60.6191 394.472 60.6191 382.35V323.902C60.6191 315.862 58.7637 309.43 55.0527 304.605C51.4655 299.781 46.1465 296.256 39.0957 294.029C32.0449 291.803 23.3861 290.689 13.1191 290.689V246.344C23.3861 246.344 32.0449 245.292 39.0957 243.189C46.1465 240.963 51.4655 237.438 55.0527 232.613C58.7637 227.665 60.6191 221.233 60.6191 213.316V154.312C60.6191 142.19 62.8457 132.356 67.2988 124.811C71.8757 117.141 80.0397 111.575 91.791 108.111C103.542 104.524 120.242 102.73 141.889 102.73V144.479C135.333 144.602 129.581 145.406 124.633 146.891C119.809 148.251 116.098 150.787 113.5 154.498C110.902 158.209 109.604 163.59 109.604 170.641V226.119C109.604 237.747 105.893 247.024 98.4707 253.951C91.0488 260.755 80.2871 265.208 66.1855 267.311V269.537C80.2871 271.516 91.0488 275.969 98.4707 282.896C105.893 289.7 109.604 298.915 109.604 310.543V366.021C109.604 373.072 110.902 378.453 113.5 382.164C116.098 385.999 119.809 388.596 124.633 389.957C129.581 391.318 135.333 392.06 141.889 392.184V434.117ZM369.926 434.117V392.184C376.482 392.06 382.172 391.318 386.996 389.957C391.82 388.596 395.531 385.999 398.129 382.164C400.85 378.453 402.211 373.072 402.211 366.021V310.543C402.211 298.915 405.922 289.7 413.344 282.896C420.766 275.969 431.465 271.516 445.443 269.537V267.311C431.465 265.208 420.766 260.755 413.344 253.951C405.922 247.024 402.211 237.747 402.211 226.119V170.641C402.211 163.59 400.85 158.209 398.129 154.498C395.531 150.787 391.82 148.251 386.996 146.891C382.172 145.406 376.482 144.602 369.926 144.479V102.73C391.573 102.73 408.272 104.524 420.023 108.111C431.775 111.575 439.877 117.141 444.33 124.811C448.907 132.356 451.195 142.19 451.195 154.312V213.316C451.195 221.233 452.989 227.665 456.576 232.613C460.287 237.438 465.668 240.963 472.719 243.189C479.77 245.292 488.428 246.344 498.695 246.344V290.689C488.428 290.689 479.77 291.803 472.719 294.029C465.668 296.256 460.287 299.781 456.576 304.605C452.989 309.43 451.195 315.862 451.195 323.902V382.35C451.195 394.472 448.907 404.368 444.33 412.037C439.877 419.706 431.775 425.273 420.023 428.736C408.272 432.324 391.573 434.117 369.926 434.117Z" fill="#FFA500"/>
<path d="M260.102 249.184C273.188 249.184 284.809 251.674 294.965 256.654C305.219 261.635 313.275 268.959 319.135 278.627C324.994 288.295 327.924 300.209 327.924 314.369C327.924 329.799 324.701 343.129 318.256 354.359C311.908 365.492 302.387 374.037 289.691 379.994C277.094 385.951 261.371 388.93 242.523 388.93C231.293 388.93 220.697 387.953 210.736 386C200.873 384.145 192.23 381.264 184.809 377.357V338.246C192.23 342.152 201.117 345.473 211.469 348.207C221.918 350.844 231.732 352.162 240.912 352.162C249.896 352.162 257.465 350.99 263.617 348.646C269.77 346.205 274.408 342.494 277.533 337.514C280.756 332.436 282.367 325.99 282.367 318.178C282.367 307.729 278.852 299.721 271.82 294.154C264.789 288.588 253.998 285.805 239.447 285.805C233.881 285.805 228.07 286.342 222.016 287.416C216.059 288.49 211.078 289.564 207.074 290.639L189.057 280.971L197.113 171.84H313.275V210.219H236.811L232.855 252.26C236.176 251.576 239.789 250.893 243.695 250.209C247.602 249.525 253.07 249.184 260.102 249.184Z" fill="#C88100"/>
</g>
<defs>
<clipPath id="clip0_22_721">
<rect width="512" height="512" fill="white"/>
</clipPath>
</defs>
</svg>
