<svg width="512" height="512" viewBox="0 0 512 512" fill="none" xmlns="http://www.w3.org/2000/svg">
<g clip-path="url(#clip0_22_724)">
<path d="M141.889 434.117C120.242 434.117 103.542 432.324 91.791 428.736C80.0397 425.273 71.8757 419.706 67.2988 412.037C62.8457 404.368 60.6191 394.472 60.6191 382.35V323.902C60.6191 315.862 58.7637 309.43 55.0527 304.605C51.4655 299.781 46.1465 296.256 39.0957 294.029C32.0449 291.803 23.3861 290.689 13.1191 290.689V246.344C23.3861 246.344 32.0449 245.292 39.0957 243.189C46.1465 240.963 51.4655 237.438 55.0527 232.613C58.7637 227.665 60.6191 221.233 60.6191 213.316V154.312C60.6191 142.19 62.8457 132.356 67.2988 124.811C71.8757 117.141 80.0397 111.575 91.791 108.111C103.542 104.524 120.242 102.73 141.889 102.73V144.479C135.333 144.602 129.581 145.406 124.633 146.891C119.809 148.251 116.098 150.787 113.5 154.498C110.902 158.209 109.604 163.59 109.604 170.641V226.119C109.604 237.747 105.893 247.024 98.4707 253.951C91.0488 260.755 80.2871 265.208 66.1855 267.311V269.537C80.2871 271.516 91.0488 275.969 98.4707 282.896C105.893 289.7 109.604 298.915 109.604 310.543V366.021C109.604 373.072 110.902 378.453 113.5 382.164C116.098 385.999 119.809 388.596 124.633 389.957C129.581 391.318 135.333 392.06 141.889 392.184V434.117ZM369.926 434.117V392.184C376.482 392.06 382.172 391.318 386.996 389.957C391.82 388.596 395.531 385.999 398.129 382.164C400.85 378.453 402.211 373.072 402.211 366.021V310.543C402.211 298.915 405.922 289.7 413.344 282.896C420.766 275.969 431.465 271.516 445.443 269.537V267.311C431.465 265.208 420.766 260.755 413.344 253.951C405.922 247.024 402.211 237.747 402.211 226.119V170.641C402.211 163.59 400.85 158.209 398.129 154.498C395.531 150.787 391.82 148.251 386.996 146.891C382.172 145.406 376.482 144.602 369.926 144.479V102.73C391.573 102.73 408.272 104.524 420.023 108.111C431.775 111.575 439.877 117.141 444.33 124.811C448.907 132.356 451.195 142.19 451.195 154.312V213.316C451.195 221.233 452.989 227.665 456.576 232.613C460.287 237.438 465.668 240.963 472.719 243.189C479.77 245.292 488.428 246.344 498.695 246.344V290.689C488.428 290.689 479.77 291.803 472.719 294.029C465.668 296.256 460.287 299.781 456.576 304.605C452.989 309.43 451.195 315.862 451.195 323.902V382.35C451.195 394.472 448.907 404.368 444.33 412.037C439.877 419.706 431.775 425.273 420.023 428.736C408.272 432.324 391.573 434.117 369.926 434.117Z" fill="#529F00"/>
<path d="M278.266 206.557C269.574 206.557 261.859 208.266 255.121 211.684C248.48 215.004 242.865 219.838 238.275 226.186C233.783 232.533 230.365 240.199 228.021 249.184C225.678 258.168 224.506 268.275 224.506 279.506C224.506 294.643 226.361 307.582 230.072 318.324C233.881 328.969 239.74 337.123 247.65 342.787C255.561 348.354 265.766 351.137 278.266 351.137C286.957 351.137 295.648 350.16 304.34 348.207C313.129 346.254 322.65 343.471 332.904 339.857V377.943C323.432 381.85 314.105 384.633 304.926 386.293C295.746 388.051 285.443 388.93 274.018 388.93C251.947 388.93 233.783 384.389 219.525 375.307C205.365 366.127 194.867 353.334 188.031 336.928C181.195 320.424 177.777 301.186 177.777 279.213C177.777 263.002 179.975 248.158 184.369 234.682C188.764 221.205 195.209 209.535 203.705 199.672C212.201 189.809 222.699 182.191 235.199 176.82C247.699 171.449 262.055 168.764 278.266 168.764C288.91 168.764 299.555 170.131 310.199 172.865C320.941 175.502 331.195 179.164 340.961 183.852L326.312 220.766C318.305 216.957 310.248 213.637 302.143 210.805C294.037 207.973 286.078 206.557 278.266 206.557Z" fill="#09FF00"/>
</g>
<defs>
<clipPath id="clip0_22_724">
<rect width="512" height="512" fill="white"/>
</clipPath>
</defs>
</svg>
