<svg width="512" height="512" viewBox="0 0 512 512" fill="none" xmlns="http://www.w3.org/2000/svg">
<path d="M385.174 14.3775L381.979 22.3651L356.419 83.0702C358.815 75.8814 354.022 68.6927 346.035 68.6927H138.359C130.372 68.6927 125.579 76.6802 128.774 83.869L178.297 202.883C179.894 206.877 183.888 209.273 187.882 209.273H286.927C294.915 209.273 299.707 217.261 297.311 224.449L294.116 231.638L268.556 292.343C270.952 285.154 266.16 277.966 258.172 277.966H225.423C217.436 277.966 212.643 285.953 215.838 293.142L299.707 493.629C302.902 502.415 297.311 512 287.726 512H235.807C230.216 512 226.222 508.805 223.826 504.012L26.5339 30.3526C20.9427 15.975 31.3264 0 46.5027 0H374.79C382.777 0 387.57 7.18877 385.174 14.3775Z" fill="#81B2EB"/>
<path d="M484.203 67.0951L388.352 294.739C383.56 306.721 371.579 314.708 358.799 314.708H274.93C266.942 314.708 262.15 306.721 265.345 299.532L268.54 292.343C268.54 292.343 268.54 292.343 268.54 291.544L294.1 230.839C290.905 238.028 296.496 246.016 303.685 246.016H326.05C330.043 246.016 334.037 243.619 335.635 239.626L385.956 120.612C389.151 113.423 383.56 105.435 376.371 105.435H362.792C354.805 105.435 350.012 97.4477 353.207 90.2589L356.402 83.0702V82.2714L381.962 21.5663C378.767 28.755 384.359 36.7426 391.547 36.7426H464.234C480.209 37.5413 490.593 52.7176 484.203 67.0951Z" fill="#598DCB"/>
</svg>
