<svg width="512" height="512" viewBox="0 0 512 512" fill="none" xmlns="http://www.w3.org/2000/svg">
<g clip-path="url(#clip0_17_487)">
<path d="M511.998 108.198L108.196 -0.000225067L-0.00213223 403.802L403.8 512L511.998 108.198Z" fill="#00A2FF"/>
<path d="M448.001 145.148L367.24 123.509L345.601 204.269L426.361 225.909L448.001 145.148Z" fill="white"/>
<path d="M81.4545 359.086L132.472 372.756L129.362 384.365L64.0742 366.871L92.9205 259.217L107.191 263.041L81.4545 359.086ZM191.667 392.58C184.666 397.414 176.015 398.45 165.713 395.69C157.186 393.406 151.339 389.197 148.175 383.066C145.072 376.899 144.797 368.953 147.35 359.229L161.297 307.177L174.976 310.843L161.128 362.525C157.879 374.651 161.183 382.035 171.042 384.676C181.491 387.477 189.485 385.445 195.022 378.581L210.614 320.392L224.293 324.057L202.856 404.058L189.844 400.571L191.667 392.58ZM273.098 422.879C272.732 421.091 272.844 418.109 273.434 413.935C265.305 418.836 256.829 420.105 248.006 417.74C240.12 415.627 234.232 411.672 230.344 405.876C226.518 400.043 225.523 393.7 227.359 386.849C229.59 378.519 234.475 372.907 242.014 370.013C249.614 367.083 259.157 367.158 270.641 370.234L283.95 373.801L285.635 367.516C286.915 362.735 286.503 358.556 284.397 354.981C282.304 351.355 278.473 348.797 272.902 347.305C268.022 345.997 263.601 346.133 259.639 347.712C255.675 349.292 253.225 351.832 252.287 355.332L238.534 351.647C239.605 347.654 242.04 344.186 245.84 341.242C249.703 338.261 254.34 336.334 259.751 335.459C265.212 334.598 270.852 334.947 276.668 336.505C285.886 338.975 292.485 343.227 296.469 349.26C300.466 355.244 301.48 362.305 299.511 370.442L289.645 407.263C287.677 414.608 287.048 420.7 287.759 425.54L287.442 426.723L273.098 422.879ZM253.192 406.371C257.48 407.521 261.845 407.501 266.283 406.313C270.723 405.126 274.281 402.988 276.957 399.901L281.355 383.486L270.634 380.615C253.875 376.124 244.18 378.782 241.553 388.592C240.403 392.88 240.934 396.615 243.147 399.797C245.358 402.978 248.707 405.17 253.192 406.371ZM357.585 437.038C350.585 441.872 341.933 442.908 331.63 440.147C323.103 437.863 317.257 433.655 314.092 427.524C310.989 421.356 310.714 413.411 313.268 403.688L327.215 351.634L340.893 355.3L327.045 406.983C323.796 419.108 327.101 426.492 336.959 429.134C347.409 431.934 355.403 429.902 360.94 423.038L376.532 364.849L390.21 368.514L368.774 448.516L355.761 445.028L357.585 437.038Z" fill="white"/>
</g>
<defs>
<clipPath id="clip0_17_487">
<rect width="512" height="512" fill="white"/>
</clipPath>
</defs>
</svg>
