<svg width="512" height="512" viewBox="0 0 512 512" fill="none" xmlns="http://www.w3.org/2000/svg">
<path d="M475.077 110.344H36.923C23.3283 110.344 12.3076 121.397 12.3076 135.031V376.969C12.3076 390.603 23.3283 401.656 36.923 401.656H475.077C488.672 401.656 499.692 390.603 499.692 376.969V135.031C499.692 121.397 488.672 110.344 475.077 110.344Z" stroke="#0075F3" stroke-width="15"/>
<path d="M73.8462 339.938V172.062H123.077L172.308 233.781L221.538 172.062H270.769V339.938H221.538V243.656L172.308 305.375L123.077 243.656V339.938H73.8462ZM381.538 339.938L307.692 258.469H356.923V172.062H406.154V258.469H455.385L381.538 339.938Z" fill="#0075F3"/>
</svg>
