<svg width="512" height="512" viewBox="0 0 512 512" fill="none" xmlns="http://www.w3.org/2000/svg">
<g clip-path="url(#clip0_6_152)">
<path d="M493.484 152.789H19.5163C10.2776 152.789 2.78809 160.283 2.78809 169.526V342.474C2.78809 351.717 10.2776 359.211 19.5163 359.211H493.484C502.722 359.211 510.212 351.717 510.212 342.474V169.526C510.212 160.283 502.722 152.789 493.484 152.789Z" fill="#FCB32C"/>
<path d="M61.3369 313.649V220.667L112.451 271.807L164.495 219.737V312.719" fill="#FCB32C"/>
<path d="M61.3369 313.649V220.667L112.451 271.807L164.495 219.737V312.719" stroke="black" stroke-width="30"/>
<path d="M211.891 251.351L262.076 301.561L312.261 251.351" fill="#FCB32C"/>
<path d="M211.891 251.351L262.076 301.561L312.261 251.351" stroke="black" stroke-width="30"/>
<path d="M455.38 303.384L346.646 194.632ZM347.576 303.421L456.31 194.632Z" fill="#FCB32C"/>
<path d="M455.38 303.384L346.646 194.632M347.576 303.421L456.31 194.632" stroke="black" stroke-width="30"/>
<path d="M262.076 298.772V189.982Z" fill="#FCB32C"/>
<path d="M262.076 298.772V189.982" stroke="black" stroke-width="30"/>
</g>
<defs>
<clipPath id="clip0_6_152">
<rect width="512" height="512" fill="white"/>
</clipPath>
</defs>
</svg>
