<svg width="512" height="512" viewBox="0 0 512 512" fill="none" xmlns="http://www.w3.org/2000/svg">
<g clip-path="url(#clip0_55_184)">
<path d="M314.634 123.563L341.226 108.171V58.8906L229.322 123.573C222.218 127.68 222.218 137.941 229.322 142.048L341.334 206.73V286.816C341.334 298.25 335.232 308.81 325.334 314.528L288 336.086C268.192 347.52 243.786 347.52 223.99 336.086L144 289.888C136.885 285.782 128 290.912 128 299.126V428.49L170.667 403.85V373.046C170.667 364.832 179.552 359.702 186.667 363.808L223.99 385.366C243.798 396.8 268.192 396.8 288 385.366L368 339.168C377.898 333.45 384 322.89 384 311.456V182.091L314.646 142.037C307.542 137.931 307.53 127.68 314.646 123.573L314.634 123.563Z" fill="#4122AA"/>
<path d="M288.009 237.514C268.201 248.95 243.807 248.95 223.999 237.514L170.676 206.72L149.343 194.453L128.009 182.08L51.2092 137.707C45.7692 147.2 42.6758 158.293 42.6758 169.813V342.186C42.6758 364.906 54.6226 385.92 74.2492 397.334C74.3558 397.44 74.5692 397.546 74.6758 397.654L128.009 428.48V299.158C128.009 290.934 136.916 285.802 144.031 289.93L149.343 293.014L170.676 305.28L223.999 336.074C243.807 347.51 268.201 347.51 288.009 336.074L325.343 314.518C335.241 308.8 341.343 298.24 341.343 286.806V206.72L288.021 237.514H288.009Z" fill="url(#paint0_linear_55_184)"/>
<path d="M341.334 206.72L288.01 237.514C268.202 248.95 243.808 248.95 224 237.514L170.678 206.72L149.344 194.453L128.011 182.08L51.2109 137.707C56.6509 128.32 64.4377 120.427 74.0377 114.773C74.2509 114.56 74.4643 114.453 74.6777 114.347L224 28.16C243.84 16.7466 268.16 16.7466 288 28.16L341.226 58.88L229.322 123.563C222.218 127.669 222.218 137.931 229.322 142.037L341.334 206.72Z" fill="url(#paint1_linear_55_184)"/>
<path d="M460.799 137.707L383.999 182.08L314.645 142.027C307.541 137.92 307.529 127.669 314.645 123.563L341.237 108.171L384.009 83.5306L437.343 114.357C437.449 114.464 437.663 114.571 437.769 114.677C447.477 120.331 455.263 128.331 460.809 137.717L460.799 137.707Z" fill="#7455DD"/>
<path d="M460.799 137.707L383.999 182.08V311.488C383.999 322.902 377.919 333.44 368.053 339.168L287.989 385.366C268.191 396.79 243.797 396.79 223.999 385.354L186.676 363.798C179.561 359.69 170.676 364.822 170.676 373.034V453.12L224.009 483.84C233.929 489.6 244.917 492.374 256.009 492.374C267.103 492.374 278.089 489.6 288.009 483.84L437.343 397.654C437.557 397.546 437.769 397.44 437.983 397.226C457.503 385.814 469.343 364.906 469.343 342.186V169.813C469.343 158.293 466.239 147.2 460.799 137.707Z" fill="url(#paint2_linear_55_184)"/>
</g>
<defs>
<linearGradient id="paint0_linear_55_184" x1="192.009" y1="123.275" x2="192.009" y2="428.48" gradientUnits="userSpaceOnUse">
<stop stop-color="#B9AAEE"/>
<stop offset="1" stop-color="#9780E5"/>
</linearGradient>
<linearGradient id="paint1_linear_55_184" x1="271.784" y1="21.3334" x2="130.569" y2="198.397" gradientUnits="userSpaceOnUse">
<stop stop-color="#DCD5F6"/>
<stop offset="1" stop-color="#CBBFF2"/>
</linearGradient>
<linearGradient id="paint2_linear_55_184" x1="469.343" y1="463.99" x2="105.965" y2="463.99" gradientUnits="userSpaceOnUse">
<stop offset="0.388723" stop-color="#5B35DE"/>
<stop offset="1" stop-color="#7455DD"/>
</linearGradient>
<clipPath id="clip0_55_184">
<rect width="512" height="512" fill="white"/>
</clipPath>
</defs>
</svg>
