<svg width="512" height="512" viewBox="0 0 512 512" fill="none" xmlns="http://www.w3.org/2000/svg">
<g clip-path="url(#clip0_29_1018)">
<g clip-path="url(#clip1_29_1018)">
<mask id="mask0_29_1018" style="mask-type:alpha" maskUnits="userSpaceOnUse" x="0" y="0" width="512" height="512">
<path d="M256 512C397.385 512 512 397.385 512 256C512 114.615 397.385 0 256 0C114.615 0 0 114.615 0 256C0 397.385 114.615 512 256 512Z" fill="black"/>
</mask>
<g mask="url(#mask0_29_1018)">
<path d="M256 503.467C392.672 503.467 503.466 392.672 503.466 256C503.466 119.328 392.672 8.53333 256 8.53333C119.328 8.53333 8.5332 119.328 8.5332 256C8.5332 392.672 119.328 503.467 256 503.467Z" fill="black" stroke="white" stroke-width="6"/>
<path d="M425.267 448.057L196.67 153.6H153.6V358.315H188.056V197.358L398.219 468.892C407.702 462.547 416.736 455.58 425.267 448.057Z" fill="url(#paint0_linear_29_1018)"/>
<path d="M361.245 153.6H327.111V358.4H361.245V153.6Z" fill="url(#paint1_linear_29_1018)"/>
</g>
</g>
</g>
<defs>
<linearGradient id="paint0_linear_29_1018" x1="310.044" y1="331.378" x2="411.022" y2="456.533" gradientUnits="userSpaceOnUse">
<stop stop-color="white"/>
<stop offset="1" stop-color="white" stop-opacity="0"/>
</linearGradient>
<linearGradient id="paint1_linear_29_1018" x1="344.178" y1="153.6" x2="343.606" y2="304" gradientUnits="userSpaceOnUse">
<stop stop-color="white"/>
<stop offset="1" stop-color="white" stop-opacity="0"/>
</linearGradient>
<clipPath id="clip0_29_1018">
<rect width="512" height="512" fill="white"/>
</clipPath>
<clipPath id="clip1_29_1018">
<rect width="512" height="512" fill="white"/>
</clipPath>
</defs>
</svg>
