<svg width="512" height="512" viewBox="0 0 512 512" fill="none" xmlns="http://www.w3.org/2000/svg">
<g clip-path="url(#clip0_38_1569)">
<path d="M451.084 121.336L274.696 18.916C263.572 12.58 249.088 12.58 237.876 18.916L59.604 121.336C48.124 127.94 40 140.352 40 153.628V358.196C40 371.472 48.336 383.888 59.816 390.528L106.916 417.28C129.428 428.368 137.384 428.368 147.628 428.368C180.96 428.368 200 408.212 200 373.056V171.096C200 168.244 198.516 164 195.716 164H173.224C170.376 164 164 168.244 164 171.092V373.052C164 388.636 149.904 404.144 123.56 390.972L74.892 362.92C73.196 362 72 360.148 72 358.196V153.628C72 151.7 74.22 149.764 75.928 148.776L253.624 46.532C255.284 45.592 257.724 45.592 259.38 46.532L434.908 148.752C436.588 149.764 435.996 151.64 435.996 153.628V358.196C435.996 360.148 436.728 362.048 435.068 362.988L258.724 465.292C257.212 466.2 255.336 466.2 253.68 465.292L208.452 438.296C207.088 437.504 205.468 437.22 204.16 437.952C191.576 445.084 189.256 446.032 177.452 450.124C174.548 451.136 170.264 452.892 179.092 457.84L238.284 492.856C243.935 496.12 250.346 497.839 256.872 497.84C263.44 497.84 269.872 496.136 275.54 492.856L451.08 390.528C462.56 383.84 468 371.472 468 358.196V153.628C468 140.352 462.56 127.972 451.084 121.336ZM311.64 325.78C264.736 325.78 254.404 312.84 250.96 289.516C250.56 287.004 248.428 284 245.872 284H222.948C220.112 284 217.832 287.44 217.832 290.264C217.832 320.128 234.068 356.312 311.644 356.312C367.8 356.312 399.996 334.492 399.996 295.876C399.996 257.588 374.128 247.54 319.668 240.332C264.62 233.056 259.028 229.38 259.028 216.484C259.028 205.852 263.764 191.672 304.524 191.672C340.944 191.672 354.368 199.488 359.892 224.036C360.364 226.344 362.472 228 364.852 228H387.868C389.284 228 390.636 227.428 391.628 226.416C392.588 225.328 393.096 223.964 392.968 222.5C389.404 180.228 361.32 160.528 304.52 160.528C253.996 160.528 223.856 181.864 223.856 217.628C223.856 256.42 253.844 267.14 302.344 271.936C360.364 277.624 364.876 286.104 364.876 297.516C364.876 317.336 348.964 325.78 311.64 325.78Z" fill="#83CD29"/>
</g>
<defs>
<clipPath id="clip0_38_1569">
<rect width="512" height="512" fill="white"/>
</clipPath>
</defs>
</svg>
