<svg width="512" height="512" viewBox="0 0 512 512" fill="none" xmlns="http://www.w3.org/2000/svg">
<g clip-path="url(#clip0_8_183)">
<path d="M462 0H50C22.3858 0 0 22.3858 0 50V462C0 489.614 22.3858 512 50 512H462C489.614 512 512 489.614 512 462V50C512 22.3858 489.614 0 462 0Z" fill="#CC0000"/>
<path d="M462 0H50C22.3858 0 0 22.3858 0 50V462C0 489.614 22.3858 512 50 512H462C489.614 512 512 489.614 512 462V50C512 22.3858 489.614 0 462 0Z" fill="#CC0000"/>
<path d="M254.364 66H66V446H254.345V161.828H350.172V446H446V66H254.364Z" fill="white"/>
</g>
<defs>
<clipPath id="clip0_8_183">
<rect width="512" height="512" fill="white"/>
</clipPath>
</defs>
</svg>
