<svg width="512" height="512" viewBox="0 0 512 512" fill="none" xmlns="http://www.w3.org/2000/svg">
<path fill-rule="evenodd" clip-rule="evenodd" d="M374.426 460.857C327.677 460.857 289.774 422.95 289.774 376.196C289.774 329.464 327.677 291.536 374.426 291.536C421.175 291.536 459.078 329.464 459.078 376.196C459.078 422.95 421.175 460.857 374.426 460.857ZM205.566 266.815C176.34 266.815 152.658 243.11 152.658 213.902C152.658 184.673 176.34 160.989 205.566 160.989C234.792 160.989 258.473 184.673 258.473 213.902C258.473 243.11 234.792 266.815 205.566 266.815ZM378.172 101.642H236.887C164.89 101.642 106.48 160.058 106.48 232.083V373.36C106.48 445.406 164.89 503.78 236.887 503.78H378.172C450.211 503.78 508.578 445.406 508.578 373.36V232.083C508.578 160.058 450.211 101.642 378.172 101.642Z" fill="#004880"/>
<mask id="mask0_53_83" style="mask-type:luminance" maskUnits="userSpaceOnUse" x="0" y="9" width="85" height="86">
<path d="M0 52.0211V9.70029H84.6522V94.3419H0V52.0211Z" fill="white"/>
</mask>
<g mask="url(#mask0_53_83)">
<path fill-rule="evenodd" clip-rule="evenodd" d="M84.6522 52.0116C84.6522 75.3991 65.6901 94.3419 42.3261 94.3419C18.9409 94.3419 0 75.3991 0 52.0116C0 28.6452 18.9409 9.68124 42.3261 9.68124C65.6901 9.68124 84.6522 28.6452 84.6522 52.0116Z" fill="#004880"/>
</g>
</svg>
