<svg width="512" height="512" viewBox="0 0 512 512" fill="none" xmlns="http://www.w3.org/2000/svg">
<g clip-path="url(#clip0_25_798)">
<mask id="mask0_25_798" style="mask-type:luminance" maskUnits="userSpaceOnUse" x="-2" y="111" width="515" height="290">
<path d="M-1.13672 111.356H512.136V400.644H-1.13672V111.356Z" fill="white"/>
</mask>
<g mask="url(#mask0_25_798)">
<path d="M255.499 376.216C386.249 376.216 492.246 322.393 492.246 256C492.246 189.607 386.249 135.784 255.499 135.784C124.749 135.784 18.752 189.607 18.752 256C18.752 322.393 124.749 376.216 255.499 376.216Z" fill="#C560FF"/>
</g>
<path d="M142.985 270.905C153.736 270.905 161.762 268.918 166.841 265.002C171.865 261.126 175.335 254.411 177.153 245.044C178.849 236.289 178.203 230.175 175.234 226.876C172.198 223.506 165.634 221.797 155.725 221.797H138.544L129.019 270.905H142.985ZM86.7898 331.396C85.9922 331.396 85.2348 331.039 84.7278 330.421C84.2198 329.804 84.014 328.992 84.1664 328.207L109.409 198.071C109.654 196.813 110.754 195.904 112.034 195.904H166.439C183.537 195.904 196.264 200.556 204.263 209.732C212.305 218.956 214.789 231.85 211.644 248.055C210.365 254.657 208.164 260.788 205.103 266.277C202.038 271.773 197.988 276.858 193.063 281.393C187.167 286.922 180.495 290.931 173.249 293.29C166.117 295.618 156.958 296.798 146.027 296.798H123.998L117.706 329.228C117.462 330.487 116.363 331.396 115.083 331.396H86.7898Z" fill="white"/>
<path d="M276.515 296.798C275.716 296.798 274.96 296.441 274.453 295.823C273.944 295.206 273.738 294.394 273.891 293.609L285.057 236.029C286.119 230.553 285.857 226.622 284.32 224.962C283.379 223.947 280.552 222.244 272.195 222.244H251.965L237.926 294.63C237.682 295.889 236.581 296.798 235.302 296.798H207.232C206.434 296.798 205.677 296.441 205.169 295.823C204.661 295.206 204.455 294.393 204.608 293.609L229.851 163.473C230.095 162.215 231.195 161.306 232.475 161.306H260.545C261.343 161.306 262.1 161.663 262.608 162.28C263.115 162.898 263.321 163.71 263.169 164.495L257.077 195.904H278.84C295.419 195.904 306.661 198.833 313.209 204.858C319.883 211.004 321.965 220.832 319.399 234.072L307.654 294.63C307.41 295.889 306.311 296.798 305.03 296.798H276.515Z" fill="white"/>
<path d="M363.813 270.905C374.564 270.905 382.59 268.918 387.669 265.002C392.693 261.127 396.163 254.412 397.982 245.044C399.678 236.289 399.032 230.175 396.062 226.876C393.026 223.506 386.462 221.797 376.553 221.797H359.372L349.847 270.905H363.813ZM307.619 331.396C306.821 331.396 306.064 331.039 305.557 330.421C305.049 329.804 304.842 328.992 304.994 328.207L330.237 198.071C330.482 196.813 331.582 195.904 332.863 195.904H387.267C404.366 195.904 417.092 200.556 425.092 209.732C433.134 218.955 435.617 231.849 432.473 248.055C431.192 254.657 428.992 260.788 425.931 266.277C422.866 271.773 418.816 276.858 413.891 281.393C407.996 286.922 401.323 290.931 394.077 293.29C386.945 295.618 377.786 296.798 366.855 296.798H344.825L338.536 329.228C338.291 330.487 337.192 331.396 335.911 331.396H307.619Z" fill="white"/>
</g>
<defs>
<clipPath id="clip0_25_798">
<rect width="507" height="274" fill="white" transform="translate(2 119)"/>
</clipPath>
</defs>
</svg>
