<svg width="512" height="512" viewBox="0 0 512 512" fill="none" xmlns="http://www.w3.org/2000/svg">
<g clip-path="url(#clip0_12_388)">
<path fill-rule="evenodd" clip-rule="evenodd" d="M98.2859 214.141C98.9809 214.666 100.187 215.007 98.9809 216.044C98.1154 217.252 97.0794 218.289 96.3909 219.674C95.7024 220.889 95.1844 221.23 94.1484 220.37C95.5254 218.119 96.9024 216.038 98.2793 214.134L98.2859 214.141ZM445.116 395.422C445.116 395.934 445.287 396.275 445.287 396.8C445.634 396.111 445.634 395.763 445.811 395.422H445.116ZM409.919 464.43L379.888 297.689C379.376 297.525 378.688 297.183 377.475 296.835C377.822 297.525 377.999 298.043 378.17 298.562C379.022 298.391 379.376 298.391 379.717 298.22C379.717 298.05 379.717 297.879 379.894 297.695L409.925 464.45L409.919 464.43ZM378.858 260.155C378.688 260.667 378.688 261.192 378.688 261.711C378.688 261.186 378.688 260.661 378.871 260.149L378.858 260.155ZM379.029 263.608C378.858 263.608 378.858 263.608 378.688 263.424V263.595C378.871 263.765 378.871 263.765 379.042 263.595L379.029 263.608ZM378.688 264.986V263.772C378.183 263.943 377.665 263.943 376.97 264.12C377.835 264.448 378.701 264.632 378.701 264.973L378.688 264.986Z" fill="#DD3735"/>
<path fill-rule="evenodd" clip-rule="evenodd" d="M513.099 222.963C512.758 216.215 512.587 209.467 511.892 202.726C510.686 193.556 509.479 184.215 507.407 175.222C505.853 167.785 503.277 160.689 500.68 153.6C497.401 145.296 494.123 136.822 489.979 128.866C483.252 116.066 474.452 104.645 466.341 92.7114C460.978 85.097 454.08 78.8743 448.9 71.0892C445.969 66.5928 441.654 62.7922 437.34 59.3395C430.435 53.7928 423.19 48.7713 415.944 43.9335C410.423 40.1264 404.902 36.4964 399.027 33.2078C394.372 30.6018 389.369 28.5276 384.537 26.2761C379.016 23.6833 373.665 20.5653 367.456 19.3575C365.895 19.0293 364.518 18.5042 362.964 17.9791C358.997 16.6006 355.201 15.0449 351.227 13.8306C345.195 11.927 339.326 9.68205 333.11 8.11979C327.091 6.5641 320.875 5.53354 314.659 4.66051C307.761 3.64308 300.693 3.28205 293.782 2.60595C289.297 2.08082 284.812 1.56882 280.497 1.39815C273.94 1.05682 267.213 1.05682 260.656 0.886154C257.377 0.708923 253.928 0.361026 250.65 0.538256C245.647 0.708923 240.644 1.22749 235.634 1.91672C230.809 2.44185 225.976 3.29518 221.321 3.99754C215.636 4.68677 209.944 5.03467 204.246 5.73046C198.896 6.42626 193.375 7.46339 188.031 8.32985C186.129 8.67774 184.228 9.36697 182.326 9.70831C178.195 10.5748 173.881 10.9227 169.737 12.3077C162.328 14.5657 154.899 17.1651 147.653 19.9221C140.919 22.6921 134.362 25.6328 127.982 29.0921C121.425 32.7155 115.209 37.0347 109 41.1963C103.125 45.1742 97.2629 49.3227 91.5583 53.8191C86.0505 58.1514 80.8705 62.9891 75.861 67.8334C73.107 70.5904 70.858 73.8855 68.268 76.9969C63.9601 82.0185 59.6456 86.8562 55.5016 92.0484C52.0657 96.3807 48.9446 100.871 45.6661 105.374C39.8108 113.316 34.8078 121.797 30.1524 130.278C28.2508 133.737 26.5264 137.196 24.8019 140.649C22.2119 145.835 19.4514 150.856 17.0384 156.219C15.3074 159.856 13.9304 163.833 12.8944 167.811C10.488 176.292 8.06851 184.944 5.82603 193.411C3.75403 201.026 3.23603 208.981 3.07211 216.766C2.89507 223.685 3.58355 230.433 4.27203 237.351C4.44907 239.084 3.41963 241.159 5.47851 242.537C4.79003 244.441 5.30803 245.491 6.33092 245.819C5.13755 247.723 6.85548 248.944 6.17355 250.677C5.99652 251.018 6.69811 251.707 7.02596 252.226C7.02596 252.751 6.86203 253.44 7.02596 253.959C7.20955 255.514 7.89803 257.07 7.89803 258.803C7.89803 260.011 8.92748 261.396 9.275 262.61C9.44548 263.122 9.275 263.989 8.92748 264.336C7.89148 265.544 8.06196 266.581 9.61596 267.277C10.488 269.522 10.1405 270.559 9.97003 271.609C10.311 273.159 9.793 273.677 9.97003 274.025C11.347 276.795 11.8716 279.906 12.0355 283.018C12.0355 283.714 12.383 284.409 12.7305 285.269C12.901 285.269 12.7305 288.551 12.7305 288.551C13.5829 288.039 14.2845 287.869 15.1435 287.521C15.668 289.766 16.1795 291.853 16.868 293.757C17.7335 295.135 17.7335 295.818 17.3925 295.989C18.081 299.1 18.422 302.041 19.6219 304.981C19.6219 301.699 19.294 298.417 18.7695 295.299C21.1824 296.166 23.2544 297.026 24.638 297.026C24.815 296.501 24.9855 295.818 25.1625 295.47C24.1265 294.439 23.261 292.884 22.225 291.847C22.5725 293.225 22.225 293.75 22.225 294.275C21.5365 293.921 20.671 293.573 19.812 293.225C20.5005 292.372 21.189 291.499 22.225 290.468C22.225 288.906 21.3726 287.514 18.9465 287.691C19.9825 287.35 21.0185 286.838 22.225 286.484C24.1265 285.453 22.0545 283.55 22.0545 281.127C22.225 278.193 20.5005 275.253 19.9825 272.135C19.117 267.297 19.294 260.03 18.776 255.186C17.74 254.32 16.8745 256.565 16.704 256.742C17.2286 260.89 17.74 265.039 18.081 269.194C17.0516 265.735 16.3565 261.927 15.4976 257.772C15.3205 258.987 15.15 259.505 15.15 260.201C14.2976 261.054 14.9796 262.105 15.4976 263.312C14.2911 262.787 12.9076 262.971 12.9076 262.971V267.815C11.1896 266.082 10.6782 264.704 9.80611 263.483C9.46515 262.105 9.28155 260.726 8.9537 259.348C9.28155 258.475 8.9537 257.956 8.9537 257.444C8.77011 256.223 8.59963 254.845 8.42915 253.282C8.59963 253.112 8.25867 250.526 8.25867 250.526C9.63563 250.69 10.5077 250.854 11.3667 250.854C9.64219 248.622 10.8421 247.23 11.5437 245.845C11.8912 245.15 13.0977 244.992 13.4452 244.283C14.8222 241.69 17.0712 239.623 17.0712 236.327C17.0712 234.772 17.5958 233.045 17.7597 231.483C18.1072 228.542 18.4482 225.602 18.6121 222.661C18.9662 218.854 18.6121 215.047 19.4842 211.417C20.8743 205.378 22.5987 199.319 24.4937 193.26C25.8707 188.928 27.4312 184.793 29.1491 180.46C31.7391 173.712 34.1587 166.965 37.4371 160.571C42.0926 151.224 47.4431 142.231 52.6231 133.067C55.9016 127.357 59.3505 121.994 62.9831 116.46C66.4255 111.097 69.8679 105.564 73.848 100.542C79.3755 93.4531 85.4144 86.8759 92.1419 80.9945C99.0464 74.7717 105.603 68.3717 113.019 62.6609C122.671 55.2041 132.861 48.64 143.719 42.9292C152.525 38.2687 161.665 34.6191 170.812 31.1598C176.681 28.9149 183.061 27.8777 189.106 25.9742C196.004 23.7227 202.909 22.6921 210.154 22.5149C214.81 22.3376 219.301 21.8191 223.956 21.3005C228.1 20.9723 232.238 20.6178 236.729 20.0993C236.205 20.7885 236.034 21.1364 235.864 21.4777C233.976 24.2478 231.904 27.0178 230.002 29.7813C228.448 32.0328 226.724 34.455 225.17 36.6999C222.402 40.343 219.465 43.9729 216.882 47.7801C212.915 53.4909 209.289 59.3723 205.145 65.0765C201.014 70.61 196.522 75.8023 192.208 81.1586C186.516 88.6023 181.166 96.2101 175.474 103.647C170.294 110.736 164.786 117.497 159.777 124.587C155.292 130.803 151.318 137.387 147.004 143.774C140.624 153.291 134.238 162.626 127.858 172.144C122.848 179.403 117.845 186.499 112.672 193.766C112.324 194.291 111.806 194.448 111.295 194.796C109.918 197.041 109.918 198.256 109.393 199.293C108.016 201.886 106.639 204.478 105.079 206.907C104.213 208.286 103.007 209.493 101.971 210.878C101.8 208.804 104.725 207.767 103.348 205.168C102.495 206.559 101.623 207.767 100.764 209.152L98.6923 213.287C99.3808 213.813 100.594 214.16 99.3808 215.191C98.8562 216.064 98.3448 217.095 97.8268 217.968C98.6923 217.442 99.2037 216.93 99.7283 216.235C99.7283 218.138 98.6923 219.687 97.8268 221.243C97.1383 222.622 95.4138 223.672 94.2073 224.702C94.3778 224.88 95.5843 225.398 95.7613 225.569C97.3153 225.044 97.8333 224.19 98.0104 224.702C98.5349 224.013 99.0464 223.495 99.2168 222.976C99.8988 221.243 100.935 219.865 102.659 219.169C103.354 218.821 103.866 218.302 104.384 217.79C109.564 212.421 114.914 207.235 119.57 201.525C126.822 192.696 133.379 183.539 140.29 174.546C143.214 170.739 146.67 166.932 149.771 163.295C150.282 167.273 149.941 171.074 149.771 174.717C149.246 181.11 148.906 187.517 148.394 194.081C148.217 196.674 148.394 199.266 148.217 201.866C148.217 202.555 147.692 203.074 147.692 203.769C147.692 205.496 148.217 207.399 148.217 209.132C147.692 215.532 146.997 221.755 146.479 228.155C146.302 229.534 146.991 230.925 147.332 232.14C146.479 241.474 148.381 251.34 146.82 261.199C148.027 259.295 148.374 258.087 148.374 256.88C148.538 255.842 148.374 254.805 148.374 253.598V251.865C148.538 248.747 149.227 245.465 148.886 242.347C148.538 238.887 148.538 235.605 149.233 232.317C149.581 230.938 149.063 229.205 149.928 227.472V230.065C149.758 239.911 150.105 249.777 148.728 259.637C148.551 260.503 149.253 262.065 147.351 261.888C145.791 264.999 147.692 267.251 145.975 268.977C145.62 269.325 146.302 270.881 146.479 271.918C145.784 273.999 145.784 273.999 146.82 274.169C146.991 277.977 147.345 281.429 147.509 285.066C150.263 278.502 148.886 271.741 150.105 264.993C150.276 267.763 150.453 270.533 150.276 273.461C150.276 277.97 150.105 282.289 149.935 286.786C149.935 287.652 149.758 288.519 149.587 289.385C149.063 291.814 148.899 294.229 148.033 296.474C147.345 298.207 147.692 300.807 147.692 302.874V309.458C148.381 312.399 147.515 313.954 148.033 315.681C147.509 317.42 147.345 317.939 147.509 318.457L148.033 321.05C151.489 320.702 149.935 323.302 151.312 324.68C150.276 326.072 150.623 326.584 150.623 327.286C150.623 328.842 150.46 330.227 150.282 331.783C150.282 335.76 150.112 339.738 150.112 343.545C150.112 344.071 150.282 344.576 150.282 345.095C150.282 345.449 150.112 349.952 150.112 349.952C150.459 350.464 150.112 350.983 149.587 351.501C149.423 351.501 148.905 329.531 148.905 329.531H146.315C145.975 339.902 146.84 349.243 144.939 358.938C142.867 359.102 142.185 359.45 139.929 359.45C134.579 359.45 129.228 359.45 123.878 359.621C117.491 359.621 111.288 359.792 104.895 359.792C101.8 359.792 98.5218 360.146 95.4138 360.146C91.2698 360.146 86.9553 359.621 82.8244 359.621C76.4314 359.621 70.222 360.146 63.8355 360.317C59.18 360.487 54.5246 360.487 49.8691 360.665C46.7546 360.829 43.64 360.993 40.5451 361.347C39.1682 361.518 37.9551 362.037 36.2307 362.555C35.7061 362.555 34.5062 362.384 33.4767 362.555C31.7391 362.903 30.1983 363.934 28.4607 364.288C25.8707 364.813 25.1822 365.496 25.5231 368.095V369.822C25.3527 370.163 29.3262 369.296 29.3262 369.296C28.9721 369.296 28.8016 370.334 28.2771 371.2C29.6671 370.675 30.5261 370.334 31.3916 369.992C33.9816 371.207 36.2241 370.517 38.2896 371.042C45.017 372.762 51.9149 373.471 58.8128 374.147C63.3044 374.495 67.6188 374.672 72.1038 374.837C78.4837 375.184 84.8702 375.532 91.2501 375.532C96.6006 375.532 101.781 375.007 107.118 375.007C114.527 375.007 121.963 375.349 129.379 375.532C130.933 375.532 132.657 375.349 134.382 375.349H146.971C158.197 375.007 169.409 374.823 180.628 374.495C187.021 374.311 193.578 373.97 199.958 373.793L219.629 373.268C227.222 373.097 234.815 373.097 242.237 372.939C247.929 372.939 253.45 372.743 259.154 372.578C265.528 372.408 272.085 371.889 278.471 371.548C281.927 371.371 285.382 371.023 288.831 370.681C292.975 370.34 297.29 369.828 301.42 369.651C307.636 369.296 314.023 369.126 320.239 368.778C328.002 368.266 335.766 367.577 343.7 367.399C350.952 367.058 358.368 367.229 365.62 367.058C372.006 366.881 378.393 366.533 384.95 366.362L395.834 365.837C395.834 365.837 403.073 365.666 406.699 365.312C412.908 364.971 419.118 364.281 425.334 364.111C429.294 363.934 433.268 364.111 437.235 363.934C443.615 363.763 450.172 363.408 456.558 363.408C458.965 363.408 461.555 363.763 464.663 363.934C463.286 365.148 462.42 365.837 461.384 366.704C462.073 366.874 462.761 367.229 463.456 367.57C462.42 368.259 461.555 368.423 460.702 368.423C460.348 369.296 460.001 369.644 459.653 371.377H462.761C461.555 371.377 460.519 372.933 459.312 373.97C457.935 373.616 456.722 373.97 456.034 375.874C457.24 376.556 457.07 377.075 456.899 377.777C454.827 378.46 453.273 379.156 454.145 381.401C453.444 381.742 452.585 382.09 451.719 382.608C450.867 383.987 449.306 384.335 449.647 386.238C450.342 386.402 451.024 386.764 451.549 386.921C450.683 387.269 449.824 387.788 448.959 388.129C445.857 390.032 447.241 390.899 447.929 391.765C447.405 392.113 446.893 392.455 446.375 392.632C446.716 394.187 447.228 394.535 447.405 394.535C446.716 395.047 445.851 395.743 444.815 396.61C444.29 398.165 443.602 398.855 442.913 399.892C442.225 400.929 441.877 402.32 441.012 403.351C437.392 407.335 434.802 412.016 430.147 415.12C428.416 416.335 426.868 417.89 425.314 419.453C422.206 422.387 419.446 425.676 416.167 428.446C411.859 432.076 407.381 435.358 402.712 438.646C397.028 442.624 391.336 446.602 385.638 450.409C382.53 452.477 379.081 454.032 375.803 455.936C372.524 457.84 369.416 459.573 366.138 461.47C364.066 462.848 362.164 464.752 359.922 465.802C354.23 468.231 348.185 470.298 342.323 472.55C336.618 474.978 332.487 477.046 328.173 478.602C324.206 479.98 320.062 481.031 315.924 481.884C314.547 482.238 312.987 481.884 311.433 482.061C308.495 482.586 305.564 483.282 302.627 483.623C295.034 484.661 287.441 485.356 279.855 486.393C275.363 486.919 271.049 487.772 266.564 488.297C263.462 488.468 260.184 488.126 257.076 488.126C254.833 488.126 252.42 488.651 250.171 488.304C246.552 487.778 242.926 486.925 239.3 486.229C238.447 486.059 237.228 485.704 236.546 486.059C235.169 486.754 233.949 485.717 232.566 486.059C231.713 486.236 230.848 485.534 229.982 485.534C229.287 485.369 228.422 485.717 227.556 485.534C225.655 485.022 223.937 484.332 221.852 484.503C219.799 484.674 217.721 483.636 215.491 483.124C212.377 482.429 209.459 481.746 206.338 481.044C205.138 480.696 204.109 480.177 202.896 479.488C198.404 479.488 195.466 479.317 192.706 478.274C190.293 477.42 188.051 476.206 185.461 476.554C184.779 476.724 184.261 476.383 183.559 476.383C183.034 475.687 182.53 474.302 182.018 474.302C178.569 474.48 176.497 471.545 173.56 470.672C172.012 470.147 170.806 468.421 169.252 467.902C165.449 466.347 162.354 463.065 158.039 462.546C156.662 462.369 155.285 461.68 153.725 461.168C154.249 461.85 154.577 462.369 155.102 462.887C150.099 460.459 145.443 457.702 140.781 455.102C140.099 454.932 139.582 454.249 139.064 453.895L134.408 450.783C131.818 451.308 130.782 450.258 130.08 449.917C125.425 446.635 120.081 444.554 115.59 440.924C113.688 439.362 111.459 438.325 110.082 436.421C107.656 433.48 104.725 431.406 101.446 429.68C98.8628 428.301 96.4498 426.739 94.0368 425.183C92.8238 424.317 91.6108 423.28 91.6108 421.376C91.6108 420.162 91.0993 418.947 89.5453 419.643C88.8568 418.606 88.1684 417.398 87.3028 417.05C85.2308 416.197 83.8539 414.622 82.2999 413.243C80.7459 411.865 79.546 409.961 77.6444 409.272C74.1889 407.893 72.1169 404.953 70.0515 402.53C65.2124 396.82 60.898 390.584 56.413 384.545C56.0655 384.02 55.377 383.672 54.859 383.153C55.5475 385.057 56.413 386.613 57.272 388.339C55.554 387.65 54.3476 386.435 53.3116 385.228C53.1345 385.405 65.2124 405.294 65.2124 405.294C66.2616 406.85 67.114 408.412 68.15 409.968C65.56 410.138 63.8355 408.753 62.97 407.198C61.4225 404.441 59.6915 402.708 56.2425 403.062C55.9016 401.841 55.554 400.456 55.3901 399.255C54.6885 399.255 54.1771 399.255 52.964 399.078C55.3901 402.885 57.4556 406.167 59.698 409.974C58.826 409.449 58.3211 409.108 57.9604 408.937C61.0619 412.219 63.3044 416.374 67.2713 418.455C68.1368 422.426 72.6218 424.33 73.6578 428.137C72.8054 427.96 72.0973 427.789 71.2317 427.612C69.8548 425.886 68.3008 424.159 66.7533 422.256C67.0943 423.463 67.6057 424.501 68.3008 425.367C70.3728 427.96 72.2743 430.553 74.6872 432.804C75.5528 433.684 76.7592 434.032 76.7592 435.587C78.1362 436.277 78.6608 436.441 79.1722 436.441C79.5263 437.491 79.0083 439.047 81.0737 438.699C82.4507 441.291 83.8277 441.291 85.7292 440.432C87.9782 442.683 89.1912 442.86 90.7387 441.482C90.7387 442.335 90.9092 443.202 90.9092 443.897C91.5977 443.55 91.4337 443.031 91.4337 442.165C92.2861 442.854 92.8107 443.202 93.1517 443.543C94.8761 445.972 96.4301 448.217 98.8431 450.12C102.122 452.89 105.059 455.831 108.154 458.424C114.199 463.445 120.94 467.6 127.661 471.401C135.949 476.075 143.889 481.09 152.341 485.579C162.518 490.949 173.389 494.585 184.602 497.178C188.746 498.045 192.713 498.905 196.863 499.935C200.469 500.985 204.102 502.541 207.728 503.401C213.249 504.615 218.94 505.653 224.461 506.683C225.661 506.86 226.887 507.038 228.264 507.208C229.805 507.556 231.7 506.86 232.048 507.385C232.913 508.764 233.602 508.068 234.638 507.897C235.844 507.55 237.228 507.55 238.605 507.55C243.437 507.72 248.093 508.757 252.925 508.416C253.974 508.416 255.522 507.543 256.387 509.269C257.935 508.58 258.8 508.58 259.489 508.416C259.672 509.965 259.489 509.965 259.161 510.136C258.807 510.306 258.289 510.484 257.6 511.002C263.81 512.21 269.678 512.381 274.845 511.002C283.828 511.691 291.592 510.654 299.014 508.062C299.703 508.928 300.221 510.136 301.257 508.409C301.597 507.884 302.463 507.707 303.158 507.536C304.705 507.189 306.607 506.499 307.984 507.011C309.545 507.536 310.063 506.158 311.262 506.158C313.341 506.158 315.236 505.981 317.137 505.633C318.173 505.462 319.209 504.944 320.416 504.596C319.039 503.893 317.662 503.723 316.613 503.723C318.691 502.686 320.586 501.819 322.488 500.966C322.14 501.478 321.793 502.167 321.111 502.167H323.517C322.993 502.167 322.304 503.723 321.445 504.76C327.648 503.204 333.34 501.819 338.867 500.427C336.966 496.804 340.933 498.018 342.316 495.938C340.592 496.463 338.867 496.975 337.136 497.316C343.005 494.382 349.044 491.789 354.906 489.196C354.053 490.233 353.004 490.752 351.463 491.625C352.499 491.789 353.188 491.789 353.706 491.953C356.46 492.826 355.778 490.233 356.637 488.671C359.915 488.671 361.292 488.159 362.846 487.634C364.571 487.109 366.295 486.597 368.026 485.908C370.78 484.7 373.37 483.151 376.13 481.772C376.655 481.588 377.507 481.772 378.202 481.772C380.104 480.551 380.786 479.514 381.304 479.685C383.73 480.033 385.435 479.16 386.13 476.928C387.336 476.055 388.202 475.366 389.061 474.841C392.851 472.766 396.47 470.692 400.273 468.618C401.65 468.618 402.345 468.618 402.686 468.441C404.942 467.39 407.014 466.196 409.079 464.981C408.555 464.811 407.355 464.128 407.355 464.128C409.073 463.774 409.584 463.603 410.633 463.255C414.764 458.398 420.469 455.115 424.777 451.308C426.678 451.138 426.678 450.619 426.678 450.278C427.36 449.411 428.055 448.374 428.907 447.678C432.71 444.219 436.841 441.278 440.297 437.648C445.3 432.62 450.132 427.428 454.617 422.065C458.748 417.221 462.905 412.383 466.354 407.02C471.187 399.583 475.324 391.969 479.639 384.177C482.747 378.65 485.507 373.117 488.622 367.583C488.95 367.058 489.651 366.369 490.169 366.369C494.825 365.844 499.493 365.516 503.978 364.99C505.014 364.82 506.221 364.137 507.257 363.612C506.732 362.745 506.391 361.708 505.88 360.842C505.185 359.792 504.149 358.938 503.454 357.888C502.772 357.035 502.254 355.984 501.736 354.954C501.211 354.101 500.7 353.405 500.182 352.525C499.132 350.622 498.103 348.718 497.231 346.657C497.061 346.132 496.706 345.278 496.89 344.753C499.998 338.012 501.205 330.745 504.135 323.998C507.066 317.079 507.939 309.294 509.315 301.857C510.522 294.768 511.217 287.678 512.069 280.589C512.594 275.574 513.282 270.73 513.446 265.715C514.495 257.759 514.141 250.316 513.971 242.872C513.8 236.308 513.446 229.56 513.118 222.983L513.099 222.963ZM80.1754 435.889C78.969 434.511 77.933 432.949 76.7265 431.57L77.251 431.045C79.1329 433.126 81.0344 435.2 82.9293 437.451C81.8933 436.926 80.6869 436.585 80.1754 435.889ZM82.9293 437.451C83.4539 437.274 83.9785 437.274 84.4899 437.104C85.0145 437.97 85.3554 439.007 85.8669 440.044C83.4539 439.867 82.2474 438.83 82.9359 437.451H82.9293ZM262.393 508.889V508.363C265.672 508.022 268.773 507.674 272.052 507.333V507.838C268.773 508.363 265.672 508.692 262.393 508.875V508.889ZM305.866 504.392C303.46 504.917 300.87 505.265 298.457 505.613C297.591 505.784 296.555 506.65 296.214 505.088C295.867 505.265 295.519 505.265 295.178 505.442C296.031 508.029 298.109 505.954 299.834 506.992C296.031 507.517 292.424 507.858 288.792 508.37V508.029C289.841 507.858 291.041 507.681 292.07 507.504V506.992C290.352 506.814 288.628 506.644 286.89 506.644C286.385 506.644 285.69 507.339 285.172 507.51C284.484 507.681 283.795 507.858 282.93 507.858C279.999 508.029 277.068 508.029 274.301 508.199C274.124 508.199 273.776 508.029 273.606 508.029V507.504C285.166 505.954 296.555 504.399 308.115 502.843C308.292 503.184 308.292 503.532 308.463 503.874C307.427 503.874 306.738 504.235 305.873 504.399L305.866 504.392ZM308.463 502.672C312.436 502.147 316.069 501.806 319.859 501.294C311.925 503.539 309.328 503.88 308.463 502.672ZM158.17 153.429C163.678 145.815 169.383 138.201 174.904 130.422C176.628 128.158 178.005 125.735 179.73 123.49C180.254 122.795 180.943 122.453 181.802 121.758L181.631 121.429C182.32 120.556 183.008 119.854 183.356 119.171C184.234 117.793 184.752 116.231 185.441 114.675C185.611 114.347 186.129 113.999 186.129 113.999C188.555 115.207 188.555 112.62 189.408 111.747C190.962 110.014 192.516 108.117 193.893 106.384C194.929 105.006 195.965 103.792 196.83 102.236C197.001 101.711 196.483 100.857 196.306 100.155H195.794C196.319 99.8137 196.83 99.3017 197.348 98.9473C197.519 98.9473 197.519 98.9473 197.689 98.7766C198.725 97.2144 199.761 95.6587 200.797 94.2736C202.863 91.5167 205.105 88.7467 207.518 86.3311C207.177 87.1844 206.83 88.0574 206.482 88.7467C206.659 88.7467 206.659 88.9239 206.83 88.9239C208.902 86.1538 211.144 83.561 213.216 80.7844C213.039 80.6203 212.869 80.4431 212.692 80.4431C211.839 81.3095 211.144 82.176 210.279 83.0425C210.108 82.8652 209.938 82.6946 209.754 82.6946C211.492 80.4431 213.216 78.1982 214.934 75.6053C215.282 76.1305 215.629 76.8131 216.311 78.1982C217.013 76.4718 217.701 75.264 218.213 74.0496C217.701 74.5748 217.013 75.0868 216.495 75.6119L215.97 75.0868L219.078 70.4263C222.357 65.7526 225.635 60.9083 228.914 56.2347C230.127 54.5083 231.667 53.1233 232.717 51.3904C235.995 44.8263 241.175 39.6275 245.135 33.5754C246.001 32.3676 247.207 31.3305 248.243 30.2933C249.096 29.2431 249.797 29.5975 250.486 30.464C255.141 36.3454 259.797 42.3975 264.452 48.279C267.914 52.6113 271.363 56.7467 274.642 61.2496C278.609 66.7897 282.405 72.3233 286.379 77.8568C290.864 84.2568 295.349 90.6568 299.663 97.2209C306.22 106.916 312.43 116.605 318.987 126.287C323.819 133.376 328.652 140.301 333.307 147.39H324.494C316.39 147.226 308.102 146.537 299.998 146.878C288.956 147.403 277.743 148.611 266.701 149.478C252.722 150.692 238.572 150.856 224.606 150.856C219.59 150.856 214.587 151.559 209.59 151.906C203.545 152.248 197.676 152.596 191.637 152.76C184.556 153.114 177.671 153.285 170.589 153.462C166.616 153.633 162.478 153.462 158.164 153.462L158.17 153.429ZM356.079 232.986V234.549C355.909 234.549 355.738 234.726 355.391 234.726C354.702 232.297 354.014 229.698 353.148 227.276C351.424 222.254 349.522 217.232 346.414 212.743C342.952 207.905 339.857 202.896 336.395 197.875C335.543 196.661 334.323 195.623 333.287 194.593C329.661 190.608 326.035 186.453 321.38 183.519C314.475 179.187 307.4 175.557 299.807 172.439C297.735 171.586 295.84 170.535 293.775 169.328H297.906L327.412 168.802C333.799 168.638 340.015 168.638 346.395 168.29C347.942 168.29 348.808 168.816 349.673 170.194C351.221 172.787 352.775 175.38 354.499 177.979C354.676 178.32 355.024 178.832 355.024 179.358C355.024 183.165 355.024 187.143 355.194 190.95C355.358 194.928 355.719 198.735 355.876 202.713C355.876 206.69 355.529 210.839 355.706 214.987C355.883 220.875 356.053 226.934 356.053 232.973L356.079 232.986ZM170.412 175.065C178.523 174.717 186.28 174.198 194.227 173.85C200.424 173.502 206.817 173.325 213.019 172.984C215.609 172.82 218.029 172.656 220.612 172.984C217.859 174.375 215.091 175.76 212.679 177.487C209.571 179.561 206.646 182.325 203.532 184.576C200.417 186.821 197.657 189.591 195.073 192.532C191.795 196.503 188.169 199.962 184.713 203.769C182.287 206.539 179.533 209.132 177.468 212.073C174.537 215.88 171.947 220.016 169.186 224.348C170.052 207.911 171.088 191.659 170.393 175.051L170.412 175.065ZM283.094 341.465C277.566 342.843 271.881 344.405 266.177 345.095C261.351 345.79 256.341 345.62 251.338 345.62C246.84 345.62 242.526 345.449 238.041 345.095C233.038 344.583 228.035 344.064 223.202 341.813C219.052 339.909 214.744 338.183 210.613 336.102C206.456 334.027 202.319 331.612 199.204 327.805C196.975 325.028 193.86 322.783 191.1 320.361C191.624 322.435 192.824 324.168 194.726 325.376C193.86 326.413 192.654 325.901 190.923 323.125C190.411 323.472 189.893 323.65 189.546 323.82C190.07 322.606 190.582 321.392 191.1 320.361C190.411 318.983 189.546 317.42 188.857 316.029C187.48 313.784 186.103 311.368 184.89 309.117C184.543 308.592 184.543 308.08 184.202 307.561C183.336 306.524 182.471 305.48 181.776 304.443C180.399 302.375 179.192 300.13 177.468 298.05C177.468 298.575 177.645 299.087 177.645 299.783C177.468 299.783 177.297 299.953 177.297 299.953L173.665 291.131C173.494 291.131 173.494 291.131 173.324 291.302L176.425 302.723C176.255 302.723 176.084 302.887 175.901 302.887C175.396 302.205 174.878 301.509 174.524 300.656C174.183 299.264 173.147 299.264 172.294 299.783C171.77 300.13 171.422 301.338 171.599 301.857C172.812 304.798 174.189 307.738 175.573 310.679C175.914 311.716 176.261 312.583 176.779 313.62C176.956 313.968 177.474 314.309 177.474 314.828C178.169 316.206 178.687 317.584 179.546 318.805C181.1 320.88 182.825 322.954 184.379 325.028C185.92 327.102 187.297 329.36 188.68 331.428C188.851 331.776 189.369 331.776 189.532 331.953C190.405 334.546 193.335 336.443 195.407 335.406C195.932 339.384 200.24 340.769 201.964 344.576C199.892 343.71 198.345 343.02 196.961 342.325C196.784 342.495 196.784 342.666 196.607 343.014C198.679 344.051 200.751 345.088 202.64 346.296C204.377 347.346 206.102 348.377 207.656 349.578C209.728 351.481 212.147 352.532 215.065 353.214C214.908 352.689 214.737 352.512 214.737 352.512C219.563 354.763 224.573 357.186 228.363 359.076C210.416 359.431 191.263 359.778 171.416 360.126C171.416 356.844 171.245 353.726 171.245 350.438C171.245 349.059 171.586 347.845 171.409 346.46C170.884 338.517 170.884 330.549 169.855 322.764C168.826 314.466 168.826 306.334 169.003 298.017C169.167 293.534 168.826 288.866 168.649 284.363C168.649 278.311 168.649 272.417 168.832 266.378C168.832 265.511 169.18 264.822 169.527 263.949H170.052C170.216 264.304 170.052 264.822 170.38 264.999C170.904 265.525 171.77 266.378 172.117 266.207C173.147 265.511 174.701 264.829 175.048 263.778C175.901 261.711 176.255 259.459 176.255 257.385C176.255 255.836 176.95 254.799 177.632 253.755C177.986 253.23 178.156 252.718 178.504 252.029C177.815 251.504 177.127 251.162 176.261 250.473C176.956 248.569 176.786 246.318 179.376 245.287C179.717 245.11 179.717 244.237 179.9 243.725C180.064 242.327 180.228 240.771 180.412 239.393C180.753 239.918 180.936 240.082 181.264 240.423C181.448 240.082 181.618 239.898 181.618 239.898C181.618 239.216 181.448 237.831 181.618 237.831C183.69 237.483 182.825 235.238 183.861 234.201C184.025 234.017 183.684 233.498 183.684 233.15C183.684 232.809 183.684 232.297 183.854 232.297C186.261 231.772 185.92 229.179 187.474 227.965C187.998 227.617 188.162 227.111 188.851 226.238C190.227 228.654 187.815 229.868 187.644 231.595C190.568 229.868 191.434 225.72 189.709 224.505C190.398 223.98 191.086 223.298 191.611 222.602C193.513 220.528 195.571 218.624 197.302 216.55C198.515 215.001 199.204 213.097 200.41 211.541C201.105 210.675 202.482 209.986 203.518 209.461C206.626 207.741 209.551 205.837 211.452 202.896C211.8 202.549 212.318 202.207 212.829 201.859C213.354 201.511 214.39 201.511 214.56 200.993C214.737 200.651 214.219 199.785 213.872 199.266C214.554 198.919 215.249 198.229 216.626 197.534C216.101 198.571 215.937 199.266 215.59 199.962L216.442 200.816C218.003 199.608 220.416 198.229 221.97 197.192C221.97 197.028 221.104 196.339 221.104 196.339C220.075 196.864 218.521 197.717 216.973 198.413C217.301 197.888 217.301 197.547 217.498 197.376C219.904 195.82 222.317 194.265 224.907 193.044C230.94 190.287 236.985 187.517 243.024 184.924C244.06 184.399 245.45 184.753 246.65 184.753C247.162 184.753 247.503 184.753 248.027 184.583C250.781 183.716 253.548 182.85 256.309 182.154C257.508 181.813 258.885 181.642 260.112 181.642C265.272 181.806 270.452 181.806 275.625 182.154C277.868 182.325 279.94 182.843 282.012 183.532C284.595 184.405 287.356 185.613 289.775 186.814C292.706 188.39 295.467 190.11 298.234 192.013C303.237 195.295 307.892 198.932 312.895 201.872C317.728 204.813 321.524 208.791 324.632 213.294C328.435 218.65 332.743 223.495 334.468 230.065L337.051 241.487C337.576 243.561 338.782 245.635 338.264 248.051C337.392 252.383 336.703 256.88 336.015 261.205C335.674 262.945 335.326 264.684 335.504 266.391C335.831 271.774 333.766 276.434 331.7 281.278C331.005 282.834 329.969 284.396 329.111 286.123C329.281 286.293 330.317 286.818 330.487 286.818L332.041 283.707C332.218 283.707 332.219 283.707 332.389 283.884C331.523 286.3 330.835 288.899 329.963 291.321C327.904 296.684 325.832 302.218 323.242 307.404C321.865 310.344 319.439 312.766 317.721 315.543C316.003 317.959 314.62 320.551 312.895 322.803C311.341 324.706 309.794 326.61 307.715 327.989C303.06 331.448 298.227 334.907 293.224 337.677C290.123 339.581 286.497 340.618 283.048 341.484L283.094 341.465ZM191.119 332.275L190.949 332.452C190.588 332.281 190.07 332.111 189.729 331.763L185.585 325.527C185.244 325.015 185.061 324.496 185.244 323.807C187.146 326.748 189.054 329.518 191.119 332.275ZM298.457 355.971C306.214 352.689 312.6 348.029 318.455 342.659C319.328 341.793 320.186 340.933 321.222 340.231C328.474 335.741 333.812 329.511 338.651 322.593C344.172 314.637 347.798 305.644 352.289 297.17C352.63 296.474 352.971 295.792 353.319 295.266C352.971 314.985 355.22 334.356 357.804 353.904C338.31 354.593 318.462 355.282 298.45 355.978L298.457 355.971ZM473.416 350.786C473.246 351.134 472.892 351.481 472.728 351.836C472.551 351.481 472.551 350.963 472.38 350.261C471.344 353.037 469.102 351.652 467.548 351.652C458.237 351.829 448.742 351.829 439.418 351.829C430.448 351.829 421.308 351.829 412.338 351.987C409.4 351.987 406.292 352.676 403.355 352.853C396.287 353.195 389.212 353.378 382.137 353.543C381.612 353.543 381.101 352.689 380.235 351.993C380.065 352.341 379.711 352.86 379.199 353.549C379.016 353.208 378.675 352.866 378.327 352.348C378.157 352.873 377.98 353.385 377.802 353.726H377.304C376.957 351.311 376.268 349.066 376.268 346.637C376.268 341.451 376.793 336.266 376.957 331.067C377.134 328.652 376.957 326.407 376.957 324.149C377.652 324.674 378.17 325.022 378.858 325.527C379.199 324.851 379.547 324.332 379.894 323.82C379.894 323.82 379.547 323.637 379.199 323.295C379.527 323.118 379.881 322.77 379.881 322.599C380.052 322.074 380.406 321.562 380.406 321.221C380.406 320.007 380.052 318.969 379.881 317.939C380.052 317.939 380.222 317.939 380.406 317.755L381.435 322.941H381.96C381.265 321.74 383.507 320.696 381.612 319.317C381.442 319.14 381.783 318.103 381.783 317.584C381.258 316.554 380.93 315.517 380.406 314.132C380.576 313.961 381.094 313.784 381.612 313.607C380.924 313.265 380.406 312.924 379.888 312.753C381.612 311.191 381.612 310.325 380.058 308.598C380.412 308.434 380.753 308.434 380.753 308.27C380.753 306.708 380.753 305.152 380.412 303.609C380.065 301.863 380.937 299.802 378.34 298.752C378.511 299.277 378.688 299.618 379.029 300.13C379.029 300.13 378.504 300.308 377.993 300.656C375.75 298.575 377.14 295.798 376.616 292.693C377.822 293.041 378.688 293.389 379.547 293.744C379.199 292.523 378.34 291.138 377.822 289.582H377.121V278.16C377.121 278.338 378.327 278.338 379.022 278.515C379.022 278.338 379.186 278.167 379.186 277.99C378.661 277.301 377.973 276.611 377.285 275.745L377.632 275.397C376.255 273.677 376.944 271.262 376.944 270.736V258.626C378.675 260.359 376.091 262.604 378.675 263.641V261.914H378.498C378.327 259.321 378.327 256.729 378.157 254.129H377.816C377.639 254.484 377.639 254.654 377.462 255.002H377.121L378.157 213.662C379.881 215.906 381.776 217.994 382.983 220.226C386.956 227.499 392.129 233.728 396.962 240.299C401.106 246.009 404.896 252.232 408.699 258.114C413.354 265.203 417.839 272.292 422.501 279.381C425.95 284.751 429.583 290.114 433.189 295.306C436.468 299.966 439.93 304.469 443.379 308.972C446.303 312.95 449.411 316.928 452.342 320.906C455.798 325.75 459.247 330.588 462.702 335.262C464.42 337.677 466.321 340.099 468.21 342.521C469.259 343.9 470.806 344.95 471.842 345.804C471.678 345.804 471.501 345.803 471.161 345.633C471.685 346.322 472.013 346.841 472.367 347.189C474.269 348.226 474.439 349.263 473.403 350.825L473.416 350.786ZM482.216 307.554V306.34C482.216 306.681 482.386 307.2 482.216 307.554ZM488.084 231.28C487.907 231.28 486.878 230.229 486.707 230.059C486.53 230.584 486.707 231.096 486.36 231.792C486.183 231.28 484.983 231.45 484.983 230.938C484.806 233.354 486.012 235.776 485.835 238.198C486.36 237.85 488.425 237.673 488.943 237.161C489.12 237.332 489.468 237.502 489.638 237.502C486.183 240.102 487.048 242.688 488.602 245.642C488.943 246.325 489.979 247.71 488.943 249.095C488.602 249.442 489.12 250.473 489.291 251.346H489.795V251.674L488.241 252.199C487.9 251.674 485.835 250.65 485.835 249.771V258.606C487.559 259.131 487.559 261.547 488.248 262.761C488.609 262.236 488.773 261.888 488.95 261.383L489.127 261.54C488.95 262.577 488.779 263.614 488.432 264.658C488.091 266.207 487.743 267.592 487.579 269.148C487.579 269.319 487.907 269.673 487.907 269.837C486.019 274.169 487.055 279.001 486.366 283.49C485.842 286.773 486.366 290.251 486.019 293.704C485.665 296.645 484.969 299.756 484.288 302.697C484.111 303.222 483.763 303.386 482.911 303.734C483.252 301.66 483.081 300.275 482.734 298.371C482.55 298.371 480.307 297.164 480.13 297.164C480.13 299.592 481.507 302.874 482.032 305.631C481.507 305.461 479.442 304.253 479.278 304.253C478.924 306.327 478.924 309.097 478.753 311.342C478.576 313.075 477.029 314.624 476.852 316.528C476.852 317.578 478.058 318.261 477.888 319.993H479.265C479.265 316.541 480.825 313.429 480.825 309.793H481.337C481.514 310.141 482.032 310.489 481.861 310.659C481.514 312.563 480.812 314.637 480.996 316.541C480.996 317.578 481.848 318.615 481.52 319.823C481.166 320.873 480.996 321.904 480.819 323.459C480.642 322.593 480.471 322.252 480.471 321.733C480.301 321.733 478.747 321.556 478.57 321.556C478.399 322.593 479.783 323.63 479.606 324.496C479.435 324.667 479.265 324.667 478.917 324.844L473.226 316.534C468.728 309.97 464.243 303.386 459.758 296.645C458.545 294.912 457.509 293.186 456.643 291.459C451.299 282.283 445.431 273.461 438.874 264.986C433.878 258.593 429.891 251.661 425.236 244.933C420.934 238.533 416.62 232.304 412.305 225.897C410.751 223.829 408.856 221.926 407.473 219.674C402.994 212.585 399.014 205.319 394.542 198.229C390.739 192.341 386.608 186.631 382.635 180.926C381.258 179.023 379.881 176.942 378.491 174.868C378.32 174.539 378.15 174.192 378.15 173.673C377.803 169.866 377.455 166.059 377.285 162.429C377.285 158.969 377.632 155.51 377.632 151.874V148.762C377.632 147.896 377.796 147.207 377.796 146.334C377.96 146.169 378.137 145.822 378.307 145.651C373.304 145.651 368.124 145.467 363.121 145.651C359.843 145.815 358.118 144.43 355.876 142.008C349.319 134.571 344.487 126.096 338.795 118.141C333.445 110.526 327.924 103.083 322.403 95.6455C317.911 89.5934 313.42 83.712 308.941 77.6599C303.932 70.7413 299.106 63.8228 293.926 56.9042C287.71 48.6072 281.323 40.297 274.943 32C271.993 28.1928 268.714 24.5629 265.436 20.5785C267.685 20.9329 269.763 21.2743 271.829 21.4515L280.117 21.9766C286.326 22.4821 292.536 22.8299 298.739 23.6833C303.919 24.3856 309.099 25.4228 314.449 26.2827C325.845 28.1863 337.058 31.3042 347.929 34.9342C354.315 37.0084 360.518 39.7785 366.747 42.3713C380.714 48.0821 394.005 55.0006 407.119 62.2605C411.25 64.512 413.676 68.1419 416.771 71.4306C421.262 76.1042 425.754 80.7713 430.061 85.609C435.058 91.3198 439.713 97.2012 444.552 103.083C448.86 108.268 453.339 113.454 457.666 118.653C459.043 120.208 460.092 122.112 461.286 123.838C464.04 127.993 467.154 131.978 469.567 136.468C471.285 139.763 472.321 143.57 473.528 147.2C475.246 152.563 476.976 157.749 478.708 163.111C479.907 167.089 480.937 171.251 481.802 175.386C482.497 178.163 482.327 181.097 483.179 183.854C484.229 187.504 483.179 191.468 484.229 195.111C484.392 195.459 484.556 195.978 484.74 196.326C485.428 197.008 485.946 197.704 484.91 198.741C484.747 198.912 484.747 199.595 484.91 200.12C485.265 199.778 485.435 199.431 485.783 198.912C485.783 199.26 485.946 199.437 485.946 199.601C485.946 200.284 485.769 200.98 485.946 201.669C485.946 202.01 486.287 202.522 486.458 202.877C486.805 202.522 487.146 202.352 487.835 201.826C489.389 207.714 489.566 213.596 489.566 219.648C489.566 225.359 490.595 231.07 488.189 236.603C488.7 234.699 487.494 232.96 488.012 231.234L488.084 231.28Z" fill="#DD3A0A"/>
<path fill-rule="evenodd" clip-rule="evenodd" d="M377.829 298.549C377.993 298.549 378.17 298.726 378.17 298.726L377.993 298.529C377.993 298.365 377.993 298.365 377.822 298.529L377.829 298.549ZM405.086 469.451C403.184 470.83 401.283 472.044 398.87 472.563C398.686 472.392 398.686 472.215 398.516 472.038C400.417 470.83 402.483 469.622 404.384 468.408C404.561 468.736 404.909 469.09 405.079 469.438L405.086 469.451ZM81.5524 235.061C83.4539 232.651 85.3554 230.229 87.4143 227.807C87.5782 227.978 88.9552 228.332 89.1322 228.496C87.2307 230.925 84.6407 234.207 82.7457 236.8C82.3917 236.452 81.8737 235.244 81.5327 235.067L81.5524 235.061ZM32.5391 319.836C31.1621 316.895 29.7852 313.777 28.4082 310.843C28.5787 310.666 29.7852 310.147 29.9556 310.147C31.8572 312.904 32.7096 316.186 34.0996 319.14C34.0996 319.14 32.7227 319.829 32.5456 319.829L32.5391 319.836ZM76.5494 236.8C75.5134 238.362 74.4774 240.095 73.4414 241.657C73.2709 241.474 71.3694 242.34 71.1989 242.169C72.2349 240.614 74.8184 237.837 75.8544 236.288C76.0314 236.459 76.2019 236.636 76.5494 236.813V236.8ZM386.628 476.554C386.792 476.554 386.792 476.383 386.969 476.383C388.176 476.554 389.553 476.725 390.936 476.725C388.68 478.28 387.297 478.103 386.608 476.554H386.628ZM76.8773 244.066C77.0609 243.541 77.4018 243.029 77.7493 242.511C78.0903 242.511 78.6017 242.334 78.6017 242.334C79.3033 241.126 79.3033 240.259 79.9918 239.222C79.8213 239.051 79.6443 239.051 79.4673 238.874C78.4378 239.583 77.4018 240.45 76.3658 241.139C76.7133 241.48 76.7133 241.664 76.7133 242.005C75.3364 241.828 74.8118 242.53 74.1233 244.421C73.9529 244.946 73.0873 245.117 72.2218 245.799C72.0513 246.154 71.8809 247.02 71.5333 247.88L71.7104 248.064C71.3629 248.412 70.8449 248.589 70.8449 248.589C69.8089 249.62 68.6024 250.493 67.5664 251.523C67.3959 252.048 67.2254 252.56 67.2254 253.079C68.4385 251.871 70.5039 249.62 72.0579 248.235L72.2349 248.412C72.9234 247.375 73.4414 246.338 74.1365 245.301C74.3004 245.471 74.3004 245.642 74.4774 245.826C73.9529 247.204 73.4414 248.753 72.9234 250.138C72.5628 250.309 72.0448 250.663 72.0448 250.486C71.3563 251.011 70.8383 251.694 70.1433 252.213L67.0418 254.287C65.3173 255.842 63.5929 257.221 61.6913 258.783C60.4849 260.687 59.2784 262.413 57.8883 264.665C59.9669 264.139 60.4849 265.013 60.3144 266.745C62.7273 267.087 62.9044 265.19 63.5929 263.805C63.7633 263.45 63.9404 262.754 64.2813 262.584C65.8353 261.205 67.5598 259.998 69.2843 258.613C69.6318 258.265 69.6318 257.562 69.6318 257.05C69.6318 256.88 68.7597 256.88 68.2417 256.702C69.7957 254.969 72.0448 252.042 73.5922 250.138C74.4577 249.613 75.3167 248.917 75.3167 248.399C75.1462 246.495 76.3527 245.983 77.7428 245.287C77.0477 244.762 76.8707 244.257 76.8707 244.086L76.8773 244.066Z" fill="#DD3735"/>
<path fill-rule="evenodd" clip-rule="evenodd" d="M80.3391 242.163C79.6506 243.371 78.9622 244.408 78.2737 245.622L77.2377 245.097C76.5492 249.068 74.1297 252.528 71.7167 253.217C72.4052 253.565 73.0937 253.913 73.6182 253.742C74.1297 253.565 74.4706 252.692 74.8182 252.18L79.4736 245.432L81.0342 242.832L80.3457 242.143L80.3391 242.163ZM22.887 318.096C23.7525 318.096 24.618 318.267 25.6409 318.267C25.6409 317.578 26.513 317.742 26.513 317.059H27.0376C27.0376 317.926 27.208 318.615 27.208 319.488H23.5886C23.4116 319.311 22.7165 318.267 22.887 318.096ZM21.51 310.141C20.9855 309.616 20.1331 309.104 20.1331 308.585C19.956 307.902 20.474 307.042 20.9855 306.176C21.3396 307.384 21.51 308.421 21.851 309.635C21.674 309.799 21.5035 309.977 21.5035 310.147L21.51 310.141ZM25.8245 299.067C26.513 300.813 27.2015 302.717 27.8965 304.45C27.726 304.45 26.69 304.975 26.5196 305.139C25.8311 303.406 24.9656 301.502 24.2771 299.776C24.4476 299.605 25.4836 299.08 25.8311 299.08L25.8245 299.067ZM409.931 464.443C410.784 464.102 411.82 463.918 413.21 463.59C411.649 464.791 410.443 465.657 409.407 466.695C409.23 466.524 409.059 466.347 408.882 466.347C409.23 465.657 409.577 465.139 409.931 464.443ZM197.84 98.9473C198.869 98.2515 199.741 97.7329 200.771 97.0437L201.112 97.385C200.063 98.7635 199.21 100.142 197.997 101.881C197.827 100.68 197.827 99.9778 197.65 99.1245C197.479 99.1245 197.65 99.1245 197.827 98.9538L197.84 98.9473ZM248.394 186.466C249.948 185.771 251.502 185.088 253.397 184.215C253.227 185.252 253.227 185.948 253.227 186.644C252.702 186.466 252.013 186.289 251.495 186.289C250.459 186.466 248.558 187.851 247.692 188.022C247.529 188.022 248.394 186.644 248.394 186.466ZM377.829 333.148C378.169 334.874 381.448 335.741 378.169 337.467C378.694 337.828 379.199 337.992 379.717 338.347C379.717 338.524 379.546 338.872 379.376 339.042C379.028 339.207 378.34 339.554 377.999 339.371C377.822 339.371 377.474 338.688 377.474 338.34C377.474 336.784 377.651 335.229 377.822 333.154L377.829 333.148Z" fill="#DD3735"/>
</g>
<defs>
<clipPath id="clip0_12_388">
<rect width="512" height="512" fill="white"/>
</clipPath>
</defs>
</svg>
