<svg width="512" height="512" viewBox="0 0 512 512" fill="none" xmlns="http://www.w3.org/2000/svg">
<g clip-path="url(#clip0_10_282)">
<path d="M438.857 97.5238H414.476C407.743 97.5238 402.285 102.982 402.285 109.714C402.285 116.447 407.743 121.905 414.476 121.905H438.857C445.589 121.905 451.047 116.447 451.047 109.714C451.047 102.982 445.589 97.5238 438.857 97.5238Z" fill="#56B3B4"/>
<path d="M170.667 487.619H48.7618C42.0292 487.619 36.5713 493.077 36.5713 499.81C36.5713 506.542 42.0292 512 48.7618 512H170.667C177.399 512 182.857 506.542 182.857 499.81C182.857 493.077 177.399 487.619 170.667 487.619Z" fill="#EA5E5E"/>
<path d="M414.476 292.571H341.333C334.6 292.571 329.143 298.029 329.143 304.762C329.143 311.495 334.6 316.952 341.333 316.952H414.476C421.209 316.952 426.666 311.495 426.666 304.762C426.666 298.029 421.209 292.571 414.476 292.571Z" fill="#BF85BF"/>
<path d="M292.572 292.571H195.048C188.315 292.571 182.857 298.029 182.857 304.762C182.857 311.495 188.315 316.952 195.048 316.952H292.572C299.304 316.952 304.762 311.495 304.762 304.762C304.762 298.029 299.304 292.571 292.572 292.571Z" fill="#EA5E5E"/>
<path d="M146.286 292.571H48.7618C42.0292 292.571 36.5713 298.029 36.5713 304.762C36.5713 311.495 42.0292 316.952 48.7618 316.952H146.286C153.018 316.952 158.476 311.495 158.476 304.762C158.476 298.029 153.018 292.571 146.286 292.571Z" fill="#56B3B4"/>
<path d="M170.667 390.095H48.7618C42.0292 390.095 36.5713 395.553 36.5713 402.286C36.5713 409.018 42.0292 414.476 48.7618 414.476H170.667C177.399 414.476 182.857 409.018 182.857 402.286C182.857 395.553 177.399 390.095 170.667 390.095Z" fill="#BF85BF"/>
<path d="M170.667 195.048H48.7618C42.0292 195.048 36.5713 200.505 36.5713 207.238C36.5713 213.971 42.0292 219.429 48.7618 219.429H170.667C177.399 219.429 182.857 213.971 182.857 207.238C182.857 200.505 177.399 195.048 170.667 195.048Z" fill="#BF85BF"/>
<path d="M414.476 48.7619H170.666C163.933 48.7619 158.476 54.2198 158.476 60.9524C158.476 67.685 163.933 73.1429 170.666 73.1429H414.476C421.208 73.1429 426.666 67.685 426.666 60.9524C426.666 54.2198 421.208 48.7619 414.476 48.7619Z" fill="#F7BA3E"/>
<path d="M121.905 48.7619H48.7618C42.0292 48.7619 36.5713 54.2198 36.5713 60.9524C36.5713 67.685 42.0292 73.1429 48.7618 73.1429H121.905C128.637 73.1429 134.095 67.685 134.095 60.9524C134.095 54.2198 128.637 48.7619 121.905 48.7619Z" fill="#EA5E5E"/>
<path d="M170.666 438.857H146.285C139.553 438.857 134.095 444.315 134.095 451.048C134.095 457.78 139.553 463.238 146.285 463.238H170.666C177.399 463.238 182.857 457.78 182.857 451.048C182.857 444.315 177.399 438.857 170.666 438.857Z" fill="#F7BA3E"/>
<path d="M170.666 146.286H146.285C139.553 146.286 134.095 151.744 134.095 158.476C134.095 165.209 139.553 170.667 146.285 170.667H170.666C177.399 170.667 182.857 165.209 182.857 158.476C182.857 151.744 177.399 146.286 170.666 146.286Z" fill="#56B3B4"/>
<path d="M97.5237 438.857H48.7618C42.0292 438.857 36.5713 444.315 36.5713 451.048C36.5713 457.78 42.0292 463.238 48.7618 463.238H97.5237C104.256 463.238 109.714 457.78 109.714 451.048C109.714 444.315 104.256 438.857 97.5237 438.857Z" fill="#56B3B4"/>
<path d="M97.5237 146.286H48.7618C42.0292 146.286 36.5713 151.744 36.5713 158.476C36.5713 165.209 42.0292 170.667 48.7618 170.667H97.5237C104.256 170.667 109.714 165.209 109.714 158.476C109.714 151.744 104.256 146.286 97.5237 146.286Z" fill="#F7BA3E"/>
<path d="M438.857 243.81H243.81C237.077 243.81 231.619 249.267 231.619 256C231.619 262.733 237.077 268.19 243.81 268.19H438.857C445.59 268.19 451.048 262.733 451.048 256C451.048 249.267 445.59 243.81 438.857 243.81Z" fill="#56B3B4"/>
<path d="M195.047 243.81H121.904C115.172 243.81 109.714 249.267 109.714 256C109.714 262.733 115.172 268.19 121.904 268.19H195.047C201.78 268.19 207.238 262.733 207.238 256C207.238 249.267 201.78 243.81 195.047 243.81Z" fill="#F7BA3E"/>
<path d="M73.1427 243.81H48.7618C42.0292 243.81 36.5713 249.267 36.5713 256C36.5713 262.733 42.0292 268.19 48.7618 268.19H73.1427C79.8753 268.19 85.3332 262.733 85.3332 256C85.3332 249.267 79.8753 243.81 73.1427 243.81Z" fill="#EA5E5E"/>
<path d="M365.714 97.5238H268.19C261.458 97.5238 256 102.982 256 109.714C256 116.447 261.458 121.905 268.19 121.905H365.714C372.447 121.905 377.905 116.447 377.905 109.714C377.905 102.982 372.447 97.5238 365.714 97.5238Z" fill="#BF85BF"/>
<path d="M219.428 97.5238H48.7618C42.0292 97.5238 36.5713 102.982 36.5713 109.714C36.5713 116.447 42.0292 121.905 48.7618 121.905H219.428C226.161 121.905 231.619 116.447 231.619 109.714C231.619 102.982 226.161 97.5238 219.428 97.5238Z" fill="#56B3B4"/>
<path d="M341.333 341.333H121.904C115.172 341.333 109.714 346.791 109.714 353.524C109.714 360.256 115.172 365.714 121.904 365.714H341.333C348.066 365.714 353.523 360.256 353.523 353.524C353.523 346.791 348.066 341.333 341.333 341.333Z" fill="#F7BA3E"/>
<path d="M73.1427 341.333H48.7618C42.0292 341.333 36.5713 346.791 36.5713 353.524C36.5713 360.256 42.0292 365.714 48.7618 365.714H73.1427C79.8753 365.714 85.3332 360.256 85.3332 353.524C85.3332 346.791 79.8753 341.333 73.1427 341.333Z" fill="#BF85BF"/>
<path d="M463.238 146.286H341.333C334.6 146.286 329.143 151.744 329.143 158.476C329.143 165.209 334.6 170.667 341.333 170.667H463.238C469.97 170.667 475.428 165.209 475.428 158.476C475.428 151.744 469.97 146.286 463.238 146.286Z" fill="#EA5E5E"/>
<path d="M463.238 195.048H341.333C334.6 195.048 329.143 200.505 329.143 207.238C329.143 213.971 334.6 219.429 341.333 219.429H463.238C469.97 219.429 475.428 213.971 475.428 207.238C475.428 200.505 469.97 195.048 463.238 195.048Z" fill="#F7BA3E"/>
<path d="M341.333 0H48.7618C42.0292 0 36.5713 5.45786 36.5713 12.1905C36.5713 18.9231 42.0292 24.381 48.7618 24.381H341.333C348.066 24.381 353.524 18.9231 353.524 12.1905C353.524 5.45786 348.066 0 341.333 0Z" fill="#56B3B4"/>
</g>
<defs>
<clipPath id="clip0_10_282">
<rect width="512" height="512" fill="white"/>
</clipPath>
</defs>
</svg>
