<svg width="512" height="512" viewBox="0 0 512 512" fill="none" xmlns="http://www.w3.org/2000/svg">
<g clip-path="url(#clip0_33_1259)">
<g clip-path="url(#clip1_33_1259)">
<path d="M255.13 4.17233e-10C134.246 4.17233e-10 132.948 46.9225 132.948 56.5807C132.948 71.2332 132.948 115.2 132.948 115.2H257.457V132.799C257.457 132.799 127.818 132.799 83.4932 132.799C46.4943 132.799 0 155.294 0 254.981C0 346.55 36.2682 381.961 72.8716 381.961C83.7399 381.961 116.364 381.961 116.364 381.961C116.364 381.961 116.364 336.51 116.364 320.87C116.364 295.312 129.029 247.999 188.072 247.999C262.125 247.999 281.028 247.999 311.561 247.999C329.723 247.999 380.942 240.105 380.942 180.945C380.942 118.333 380.942 97.6756 380.942 68.217C380.947 53.5412 378.438 4.17233e-10 255.13 4.17233e-10ZM186.475 39.4193C198.865 39.4193 208.877 49.4266 208.877 61.8217C208.877 74.2074 198.865 84.224 186.475 84.224C174.085 84.224 164.073 74.2121 164.073 61.8217C164.073 49.4266 174.085 39.4193 186.475 39.4193Z" fill="url(#paint0_linear_33_1259)"/>
<path d="M256.87 512C377.697 512 379.201 464.193 379.201 455.419C379.201 440.767 379.201 396.8 379.201 396.8H254.542V379.201C254.542 379.201 385.019 379.201 428.506 379.201C465.784 379.201 511.999 356.143 511.999 257.019C511.999 148.466 462.95 130.039 439.128 130.039C428.255 130.039 395.636 130.039 395.636 130.039C395.636 130.039 395.636 177.59 395.636 191.13C395.636 216.688 383.39 264.001 323.928 264.001C249.874 264.001 233.276 264.001 200.433 264.001C182.318 264.001 131.053 272.826 131.053 331.055C131.053 398.429 131.053 416.07 131.053 443.783C131.053 468.126 145.929 512 256.87 512ZM325.529 472.581C313.139 472.581 303.127 462.569 303.127 450.178C303.127 437.788 313.134 427.776 325.529 427.776C337.915 427.776 347.931 437.788 347.931 450.178C347.931 462.569 337.915 472.581 325.529 472.581Z" fill="url(#paint1_linear_33_1259)"/>
</g>
</g>
<defs>
<linearGradient id="paint0_linear_33_1259" x1="47.9814" y1="45.7365" x2="302.48" y2="301.087" gradientUnits="userSpaceOnUse">
<stop stop-color="#387EB8"/>
<stop offset="1" stop-color="#366994"/>
</linearGradient>
<linearGradient id="paint1_linear_33_1259" x1="202.644" y1="208.882" x2="475.504" y2="470.295" gradientUnits="userSpaceOnUse">
<stop stop-color="#FFE052"/>
<stop offset="1" stop-color="#FFC331"/>
</linearGradient>
<clipPath id="clip0_33_1259">
<rect width="512" height="512" fill="white"/>
</clipPath>
<clipPath id="clip1_33_1259">
<rect width="512" height="512" fill="white"/>
</clipPath>
</defs>
</svg>
