<svg width="512" height="512" viewBox="0 0 512 512" fill="none" xmlns="http://www.w3.org/2000/svg">
<g clip-path="url(#clip0_26_958)">
<g clip-path="url(#clip1_26_958)">
<path d="M256.261 285.681C281.491 285.681 301.943 265.229 301.943 240C301.943 214.771 281.491 194.319 256.261 194.319C231.032 194.319 210.58 214.771 210.58 240C210.58 265.229 231.032 285.681 256.261 285.681Z" fill="#61DAFB"/>
<path d="M256.262 333.591C391.638 333.591 501.382 291.689 501.382 240C501.382 188.311 391.638 146.409 256.262 146.409C120.886 146.409 11.1426 188.311 11.1426 240C11.1426 291.689 120.886 333.591 256.262 333.591Z" stroke="#61DAFB" stroke-width="10"/>
<path d="M175.209 286.796C242.897 404.034 334.057 478.124 378.821 452.28C423.585 426.435 405.002 310.443 337.314 193.204C269.626 75.9656 178.466 1.87574 133.702 27.7202C88.9377 53.5647 107.521 169.557 175.209 286.796Z" stroke="#61DAFB" stroke-width="10"/>
<path d="M175.211 193.204C107.523 310.443 88.9392 426.435 133.703 452.28C178.467 478.124 269.627 404.034 337.315 286.796C405.003 169.557 423.587 53.5647 378.823 27.7202C334.059 1.87573 242.899 75.9655 175.211 193.204Z" stroke="#61DAFB" stroke-width="10"/>
</g>
</g>
<defs>
<clipPath id="clip0_26_958">
<rect width="512" height="512" fill="white"/>
</clipPath>
<clipPath id="clip1_26_958">
<rect width="512.523" height="456" fill="white" transform="translate(0 12)"/>
</clipPath>
</defs>
</svg>
