<svg width="512" height="512" viewBox="0 0 512 512" fill="none" xmlns="http://www.w3.org/2000/svg">
<circle cx="256" cy="256" r="254" fill="black"/>
<path d="M256 392C242.618 381.409 228.121 373.188 212.509 367.335C196.897 361.482 180.727 358.556 164 358.556C152.291 358.556 140.791 360.088 129.5 363.154C118.209 366.22 107.406 370.54 97.0909 376.114C91.2364 379.18 85.5909 379.04 80.1545 375.696C74.7182 372.351 72 367.474 72 361.064V159.561C72 156.495 72.7667 153.569 74.3 150.782C75.8333 147.995 78.1333 145.905 81.2 144.511C94.0242 137.822 107.406 132.806 121.345 129.461C135.285 126.117 149.503 124.444 164 124.444C184.63 124.444 202.194 126.813 216.691 131.551C231.188 136.289 246.8 143.536 263.527 153.29C266.594 154.963 268.894 156.913 270.427 159.143C271.961 161.373 272.727 164.299 272.727 167.922V342.669C284.994 336.817 297.33 332.427 309.736 329.501C322.142 326.574 334.897 325.111 348 325.111C358.036 325.111 367.864 325.947 377.482 327.619C387.1 329.292 396.788 331.8 406.545 335.144V134.06C410.727 135.453 414.839 136.986 418.882 138.658C422.924 140.331 426.897 142.281 430.8 144.511C433.867 145.905 436.167 147.995 437.7 150.782C439.233 153.569 440 156.495 440 159.561V361.064C440 367.474 437.282 372.351 431.845 375.696C426.409 379.04 420.764 379.18 414.909 376.114C404.594 370.54 393.791 366.22 382.5 363.154C371.209 360.088 359.709 358.556 348 358.556C331.273 358.556 315.103 361.482 299.491 367.335C283.879 373.188 269.382 381.409 256 392ZM314.545 291.667V107.722L364.727 91V274.944L314.545 291.667Z" fill="#0075F3"/>
</svg>
