<svg width="512" height="512" viewBox="0 0 512 512" fill="none" xmlns="http://www.w3.org/2000/svg">
<circle cx="256" cy="256" r="254" fill="black"/>
<path d="M256.001 445.167C212.178 434.132 176 408.989 147.467 369.736C118.934 330.484 104.668 286.897 104.668 238.975V123.583L256.001 66.8333L407.335 123.583V238.975C407.335 286.897 393.068 330.484 364.536 369.736C336.003 408.989 299.825 434.132 256.001 445.167ZM256.001 405.442C286.583 395.983 312.121 377.303 332.614 349.401C353.107 321.499 365.087 290.365 368.555 256H256.001V107.031L142.501 149.594V247.488C142.501 249.694 142.817 252.532 143.447 256H256.001V405.442Z" fill="#0075F3"/>
</svg>
