<svg width="512" height="512" viewBox="0 0 512 512" fill="none" xmlns="http://www.w3.org/2000/svg">
<path d="M235.821 202.95C241.166 202.95 245.424 204.498 247.911 208.142H247.912C250.164 211.439 251.218 215.53 251.218 220.28C251.218 232.854 248.544 248.444 243.259 267.013C237.981 285.582 230.928 305.18 222.094 325.82C213.265 346.46 203.053 367.03 191.461 387.53H191.46C179.862 408.038 167.796 426.522 155.255 442.982L155.254 442.981C142.709 459.453 130.053 472.88 117.293 483.22C104.497 493.599 92.2429 499 80.5801 499C76.2995 499 72.6178 497.927 69.6885 495.626L69.6855 495.624C66.8363 493.379 64.9042 490.383 63.877 486.731L63.876 486.728C62.867 483.115 62.7453 479.086 63.4316 474.68V474.677C64.1341 470.217 65.7312 465.801 68.1963 461.428L68.3311 461.188L68.5254 460.994C69.1068 460.414 69.8919 460.014 70.8262 460.014C71.6867 460.014 72.4307 460.355 73.0117 460.742H73.0127C74.1179 461.474 74.9607 462.475 75.3818 463.748L75.5371 464.217L75.4561 464.703C75.2498 465.947 75.3776 466.997 75.7686 467.915C76.1638 468.843 76.8821 469.761 78.0449 470.646H78.0439C80.2892 472.347 84.0355 473.379 89.6387 473.379C99.8884 473.379 110.32 469.582 120.962 461.776L120.963 461.775C131.688 453.917 142.136 443.507 152.292 430.521C162.451 417.524 171.977 402.56 180.859 385.619H180.86C189.744 368.682 197.472 351.167 203.995 333.193L205.205 329.819C211.175 312.962 215.936 296.225 219.485 279.608L219.835 277.952C223.387 260.888 225.15 245.338 225.15 231.286C225.15 227.478 224.599 224.945 223.738 223.429C222.973 222.081 221.957 221.494 220.452 221.494C217.897 221.494 215.26 222.539 212.508 224.932L212.506 224.934C209.641 227.416 206.251 231.228 202.351 236.419L202.141 236.698L201.85 236.89C201.195 237.32 200.372 237.632 199.44 237.548C198.502 237.463 197.746 237.001 197.18 236.439L197.173 236.433L197.167 236.426C195.937 235.183 195.662 233.576 196.052 231.983L196.136 231.641L196.332 231.347C201.709 223.315 208.032 216.585 215.326 211.197C222.591 205.83 229.445 202.95 235.821 202.95ZM430.425 12V12.001C434.57 12.0013 438.152 13.0095 441.035 15.1631L441.312 15.376L441.315 15.3789C444.162 17.6241 446.095 20.6188 447.122 24.2705V24.2715C448.136 27.8833 448.253 31.9176 447.567 36.3223V36.3232C446.869 40.7848 445.27 45.2036 442.803 49.5752L442.666 49.8154L442.471 50.0107C441.887 50.5908 441.102 50.9854 440.173 50.9854C439.312 50.9853 438.566 50.645 437.982 50.2568L437.978 50.2539C436.886 49.5232 436.039 48.5329 435.616 47.2539L435.461 46.7852L435.543 46.2979C435.75 45.0539 435.622 44.0047 435.231 43.0869C434.837 42.1597 434.119 41.2419 432.956 40.3574L432.741 40.1992C430.475 38.589 426.787 37.6191 421.359 37.6191C411.43 37.6192 401.331 41.1824 391.033 48.502L390.036 49.2217C379.311 57.0885 368.865 67.5008 358.711 80.4824L358.71 80.4814C348.867 93.073 339.619 107.514 330.978 123.803L330.143 125.385C321.535 141.792 314.011 158.742 307.617 176.125L307.002 177.809C300.466 195.808 295.299 213.671 291.516 231.394H291.515C287.729 249.112 285.851 265.211 285.851 279.721C285.851 283.525 286.402 286.057 287.263 287.573C288.029 288.922 289.045 289.51 290.549 289.51C293.099 289.51 295.737 288.461 298.493 286.066L298.494 286.065C301.36 283.58 304.751 279.777 308.65 274.584L308.859 274.305L309.151 274.112C309.807 273.682 310.63 273.37 311.562 273.454C312.383 273.529 313.065 273.892 313.603 274.359L313.823 274.565L313.829 274.57L313.834 274.576C315.063 275.817 315.343 277.419 314.95 279.013L314.866 279.354L314.671 279.646C309.292 287.686 302.968 294.409 295.675 299.795C288.41 305.171 281.554 308.052 275.18 308.052C269.832 308.052 265.575 306.495 263.09 302.854L262.882 302.542C260.774 299.305 259.785 295.326 259.785 290.724C259.785 278.148 262.457 262.549 267.744 243.99C273.022 225.422 280.073 205.822 288.909 185.182L289.74 183.247C298.377 163.257 308.311 143.331 319.542 123.472C330.776 103.604 342.453 85.6366 354.573 69.5684L355.748 68.0195C368.293 51.5483 380.95 38.1235 393.707 27.7783C406.501 17.3966 418.755 12.0016 430.423 12.001V12H430.425Z" fill="#75FF7F" stroke="#75FF7F" stroke-width="4"/>
</svg>
