<svg width="512" height="512" viewBox="0 0 512 512" fill="none" xmlns="http://www.w3.org/2000/svg">
<g clip-path="url(#clip0_47_22)">
<path d="M448.935 257.481C448.935 251.605 444.593 248.217 439.264 249.9L72.6821 366.144C67.3429 367.838 63.0117 373.981 63.0117 379.846V498.652C63.0117 504.527 67.3429 507.926 72.6821 506.232L439.264 389.999C444.593 388.306 448.935 382.162 448.935 376.286V257.481Z" fill="url(#paint0_linear_47_22)"/>
<path d="M63.0117 253.692C63.0117 259.567 67.3429 265.711 72.6821 267.405L439.318 383.659C444.657 385.353 448.989 381.954 448.989 376.09V257.273C448.989 251.408 444.657 245.265 439.318 243.571L72.6821 127.317C67.3429 125.622 63.0117 129.011 63.0117 134.886V253.692Z" fill="#FF9800"/>
<path d="M448.935 13.349C448.935 7.47355 444.593 4.07481 439.264 5.7688L72.6821 122.002C67.3429 123.695 63.0117 129.839 63.0117 135.715V254.521C63.0117 260.396 67.3429 263.784 72.6821 262.101L439.264 145.857C444.593 144.163 448.935 138.02 448.935 132.155V13.349Z" fill="#FF9800"/>
</g>
<defs>
<linearGradient id="paint0_linear_47_22" x1="21334" y1="15341.8" x2="22952.6" y2="9929.55" gradientUnits="userSpaceOnUse">
<stop stop-color="#FF9700"/>
<stop offset="0.53" stop-color="#F48E00"/>
<stop offset="1" stop-color="#D06F00"/>
</linearGradient>
<clipPath id="clip0_47_22">
<rect width="512" height="512" fill="white"/>
</clipPath>
</defs>
</svg>
