<svg width="512" height="512" viewBox="0 0 512 512" fill="none" xmlns="http://www.w3.org/2000/svg">
<g clip-path="url(#clip0_5_116)">
<path d="M441.319 67.6881C394.024 -0.433895 299.868 -20.3932 232.18 22.5627L112.858 98.9288C80.3152 119.322 57.7525 152.732 51.2441 190.481C45.6034 222.156 50.3763 254.698 65.5627 282.902C55.1491 298.522 48.2068 315.878 45.1695 334.102C38.2271 372.719 47.339 412.637 69.9017 444.312C117.63 512.434 211.353 532.393 279.041 489.437L398.363 413.505C430.905 393.112 453.468 359.702 459.976 321.953C465.617 290.278 460.844 257.736 445.658 229.532C456.071 213.912 463.014 196.556 466.051 178.332C473.427 139.281 464.315 99.3627 441.319 67.6881Z" fill="#FF3E00"/>
<path d="M220.464 450.82C181.848 460.8 141.495 445.614 118.932 413.071C105.048 393.98 99.8408 370.115 103.746 346.685C104.614 342.78 105.481 339.308 106.349 335.403L108.519 328.461L114.593 332.8C128.912 343.214 144.532 351.024 161.454 356.23L165.793 357.532L165.359 361.871C164.926 367.946 166.661 374.454 170.132 379.661C177.075 389.641 189.224 394.414 200.939 391.376C203.542 390.508 206.146 389.641 208.315 388.339L327.203 312.407C333.278 308.502 337.183 302.861 338.485 295.919C339.787 288.976 338.051 281.6 334.146 275.959C327.203 265.98 315.054 261.641 303.339 264.678C300.736 265.546 298.132 266.414 295.963 267.715L250.403 296.786C243.027 301.559 234.783 305.031 226.105 307.2C187.488 317.18 147.136 301.993 124.573 269.451C111.122 250.359 105.481 226.495 109.82 203.064C113.725 180.502 127.61 160.108 147.136 147.959L266.458 72.0271C273.834 67.2542 282.078 63.7831 290.756 61.1797C329.373 51.2 369.725 66.3864 392.288 98.9288C406.173 118.02 411.38 141.885 407.475 165.315C406.607 169.22 405.739 172.692 404.437 176.597L402.268 183.539L396.193 179.2C381.875 168.786 366.254 160.976 349.332 155.769L344.993 154.468L345.427 150.129C345.861 144.054 344.125 137.546 340.654 132.339C333.712 122.359 321.563 118.02 309.848 121.058C307.244 121.925 304.641 122.793 302.471 124.095L183.583 200.027C177.509 203.932 173.603 209.573 172.302 216.515C171 223.458 172.736 230.834 176.641 236.475C183.583 246.454 195.732 250.793 207.448 247.756C210.051 246.888 212.654 246.02 214.824 244.719L260.383 215.647C267.759 210.875 276.003 207.403 284.681 204.8C323.298 194.82 363.651 210.007 386.214 242.549C400.098 261.641 405.305 285.505 401.4 308.936C397.495 331.498 383.61 351.892 364.085 364.041L244.763 439.973C237.387 444.746 229.142 448.217 220.464 450.82Z" fill="white"/>
</g>
<defs>
<clipPath id="clip0_5_116">
<rect width="425.654" height="512" fill="white" transform="translate(43)"/>
</clipPath>
</defs>
</svg>
