<svg width="512" height="512" viewBox="0 0 512 512" fill="none" xmlns="http://www.w3.org/2000/svg">
<mask id="mask0_11_346" style="mask-type:luminance" maskUnits="userSpaceOnUse" x="0" y="100" width="512" height="308">
<path d="M0 100H512V407.309H0V100Z" fill="white"/>
</mask>
<g mask="url(#mask0_11_346)">
<path fill-rule="evenodd" clip-rule="evenodd" d="M256 100C187.733 100 145.067 134.145 128 202.436C153.6 168.291 183.467 155.486 217.6 164.023C237.075 168.888 250.994 183.03 266.401 198.671C291.499 224.157 320.55 253.655 384 253.655C452.267 253.655 494.933 219.509 512 151.218C486.4 185.364 456.533 198.168 422.4 189.632C402.925 184.766 389.006 170.624 373.599 154.984C348.501 129.498 319.45 100 256 100ZM128 253.655C59.7333 253.655 17.0667 287.8 0 356.091C25.6 321.945 55.4667 309.141 89.6 317.677C109.075 322.553 122.994 336.685 138.401 352.325C163.499 377.811 192.55 407.309 256 407.309C324.267 407.309 366.933 373.164 384 304.873C358.4 339.018 328.533 351.823 294.4 343.286C274.925 338.421 261.006 324.279 245.599 308.638C220.501 283.152 191.45 253.655 128 253.655Z" fill="#38BDF8"/>
</g>
</svg>
