<svg width="512" height="512" viewBox="0 0 512 512" fill="none" xmlns="http://www.w3.org/2000/svg">
<g clip-path="url(#clip0_32_1235)">
<path d="M210.67 374L191.002 309.43H92.1055L72.4375 374H10.4648L106.207 101.617H176.529L272.643 374H210.67ZM177.271 261.188L157.604 198.102C156.367 193.896 154.697 188.515 152.594 181.959C150.615 175.279 148.574 168.538 146.471 161.734C144.492 154.807 142.883 148.808 141.646 143.736C140.41 148.808 138.678 155.117 136.451 162.662C134.348 170.084 132.307 177.135 130.328 183.814C128.349 190.494 126.926 195.257 126.061 198.102L106.578 261.188H177.271ZM387.496 162.291C415.328 162.291 436.666 168.352 451.51 180.475C466.354 192.597 473.775 211.028 473.775 235.768V374H434.254L423.307 345.797H421.822C415.885 353.219 409.824 359.28 403.639 363.98C397.454 368.681 390.341 372.145 382.301 374.371C374.26 376.598 364.488 377.711 352.984 377.711C340.738 377.711 329.729 375.361 319.957 370.66C310.309 365.96 302.701 358.785 297.135 349.137C291.568 339.365 288.785 326.995 288.785 312.027C288.785 290.009 296.516 273.805 311.979 263.414C327.441 252.9 350.634 247.086 381.559 245.973L417.555 244.859V235.768C417.555 224.882 414.71 216.904 409.02 211.832C403.329 206.76 395.413 204.225 385.27 204.225C375.25 204.225 365.416 205.647 355.768 208.492C346.119 211.337 336.471 214.924 326.822 219.254L308.082 181.031C319.091 175.217 331.399 170.641 345.006 167.301C358.736 163.961 372.9 162.291 387.496 162.291ZM417.555 277.887L395.66 278.629C377.353 279.124 364.612 282.402 357.438 288.463C350.387 294.524 346.861 302.503 346.861 312.398C346.861 321.057 349.397 327.242 354.469 330.953C359.54 334.54 366.158 336.334 374.322 336.334C386.445 336.334 396.65 332.747 404.938 325.572C413.349 318.398 417.555 308.193 417.555 294.957V277.887Z" fill="#CB171E"/>
</g>
<defs>
<clipPath id="clip0_32_1235">
<rect width="512" height="512" fill="white"/>
</clipPath>
</defs>
</svg>
