<svg width="512" height="512" viewBox="0 0 512 512" fill="none" xmlns="http://www.w3.org/2000/svg">
<path d="M499.063 77.5531L269.29 489.643C264.546 498.151 252.358 498.201 247.543 489.734L13.2137 77.5928C7.96783 68.3662 15.8343 57.1902 26.259 59.059L256.278 100.295C257.745 100.558 259.248 100.556 260.715 100.288L485.924 59.1182C496.314 57.2189 504.217 68.3083 499.063 77.5531Z" fill="url(#paint0_linear_36_1515)"/>
<path d="M365.847 4.9719L195.808 38.3889C193.014 38.9381 190.944 41.3136 190.776 44.1644L180.316 221.344C180.07 225.517 183.891 228.756 187.952 227.817L235.294 216.859C239.723 215.834 243.725 219.747 242.815 224.215L228.75 293.292C227.803 297.942 232.155 301.917 236.682 300.538L265.922 291.628C270.455 290.248 274.811 294.234 273.852 298.887L251.5 407.393C250.102 414.18 259.103 417.881 262.857 412.062L265.364 408.176L403.921 130.843C406.242 126.199 402.24 120.904 397.155 121.888L348.426 131.321C343.846 132.207 339.95 127.929 341.243 123.436L373.048 12.8531C374.341 8.352 370.432 4.07109 365.847 4.9719Z" fill="url(#paint1_linear_36_1515)"/>
<defs>
<linearGradient id="paint0_linear_36_1515" x1="7.49243" y1="44.3316" x2="294.56" y2="433.042" gradientUnits="userSpaceOnUse">
<stop stop-color="#41D1FF"/>
<stop offset="1" stop-color="#BD34FE"/>
</linearGradient>
<linearGradient id="paint1_linear_36_1515" x1="243.075" y1="14.0446" x2="295.106" y2="369.918" gradientUnits="userSpaceOnUse">
<stop stop-color="#FFEA83"/>
<stop offset="0.0833333" stop-color="#FFDD35"/>
<stop offset="1" stop-color="#FFA800"/>
</linearGradient>
</defs>
</svg>
