<svg width="512" height="512" viewBox="0 0 512 512" fill="none" xmlns="http://www.w3.org/2000/svg">
<g clip-path="url(#clip0_53_43)">
<mask id="mask0_53_43" style="mask-type:alpha" maskUnits="userSpaceOnUse" x="0" y="1" width="512" height="510">
<path fill-rule="evenodd" clip-rule="evenodd" d="M363.069 508.504C371.133 511.645 380.328 511.444 388.467 507.527L493.879 456.805C504.956 451.475 512 440.265 512 427.966V84.0361C512 71.7379 504.956 60.5276 493.88 55.1977L388.467 4.47363C377.785 -0.666261 365.284 0.592691 355.909 7.40838C354.57 8.382 353.294 9.46908 352.097 10.6671L150.298 194.772L62.3985 128.049C54.2157 121.838 42.7706 122.347 35.171 129.26L6.97872 154.905C-2.31706 163.361 -2.32772 177.985 6.95568 186.455L83.1852 256.001L6.95568 325.546C-2.32772 334.016 -2.31706 348.64 6.97872 357.096L35.171 382.741C42.7706 389.654 54.2157 390.163 62.3985 383.951L150.298 317.229L352.097 501.334C355.29 504.528 359.038 506.933 363.069 508.504ZM384.078 139.77L230.959 256.001L384.078 372.23V139.77Z" fill="white"/>
</mask>
<g mask="url(#mask0_53_43)">
<path d="M493.881 55.2765L388.386 4.48277C376.175 -1.3966 361.582 1.08345 351.999 10.6666L6.64743 325.546C-2.64165 334.015 -2.63097 348.64 6.67047 357.095L34.8798 382.74C42.4841 389.653 53.9364 390.162 62.1238 383.951L478.007 68.4539C491.959 57.8693 511.999 67.8205 511.999 85.3335V84.1088C511.999 71.8157 504.957 60.6095 493.881 55.2765Z" fill="#0065A9"/>
<g filter="url(#filter0_d_53_43)">
<path d="M493.881 456.723L388.386 507.517C376.175 513.398 361.582 510.917 351.999 501.333L6.64743 186.455C-2.64165 177.985 -2.63097 163.36 6.67047 154.905L34.8798 129.26C42.4841 122.346 53.9364 121.838 62.1238 128.049L478.007 443.546C491.959 454.131 511.999 444.179 511.999 426.667V427.892C511.999 440.184 504.957 451.39 493.881 456.723Z" fill="#007ACC"/>
</g>
<g filter="url(#filter1_d_53_43)">
<path d="M388.392 507.527C376.177 513.403 361.584 510.917 352 501.333C363.809 513.142 384 504.778 384 488.078V23.9213C384 7.2212 363.809 -1.1423 352 10.6664C361.584 1.08238 376.177 -1.40117 388.392 4.473L493.869 55.1972C504.952 60.5271 512 71.7373 512 84.0356V427.966C512 440.264 504.952 451.474 493.868 456.804L388.392 507.527Z" fill="#1F9CF0"/>
</g>
<g style="mix-blend-mode:overlay" opacity="0.25">
<path fill-rule="evenodd" clip-rule="evenodd" d="M362.756 508.504C370.82 511.645 380.016 511.443 388.155 507.527L493.567 456.805C504.643 451.475 511.687 440.265 511.687 427.966V84.0361C511.687 71.7373 504.644 60.5271 493.567 55.1972L388.155 4.47332C377.473 -0.666573 364.972 0.592379 355.597 7.40803C354.258 8.3817 352.982 9.46877 351.785 10.6668L149.986 194.772L62.0859 128.049C53.9036 121.838 42.4581 122.347 34.8585 129.26L6.66622 154.905C-2.62957 163.361 -2.64022 177.985 6.64318 186.455L82.8726 256L6.64318 325.546C-2.64022 334.015 -2.62957 348.64 6.66622 357.095L34.8585 382.74C42.4581 389.653 53.9036 390.162 62.0859 383.951L149.986 317.228L351.785 501.334C354.977 504.527 358.725 506.933 362.756 508.504ZM383.765 139.77L230.646 256L383.765 372.23V139.77Z" fill="url(#paint0_linear_53_43)"/>
</g>
</g>
</g>
<defs>
<filter id="filter0_d_53_43" x="-8.64584" y="115.378" width="528.979" height="403.631" filterUnits="userSpaceOnUse" color-interpolation-filters="sRGB">
<feFlood flood-opacity="0" result="BackgroundImageFix"/>
<feColorMatrix in="SourceAlpha" type="matrix" values="0 0 0 0 0 0 0 0 0 0 0 0 0 0 0 0 0 0 127 0" result="hardAlpha"/>
<feOffset/>
<feGaussianBlur stdDeviation="4.16667"/>
<feColorMatrix type="matrix" values="0 0 0 0 0 0 0 0 0 0 0 0 0 0 0 0 0 0 0.25 0"/>
<feBlend mode="overlay" in2="BackgroundImageFix" result="effect1_dropShadow_53_43"/>
<feBlend mode="normal" in="SourceGraphic" in2="effect1_dropShadow_53_43" result="shape"/>
</filter>
<filter id="filter1_d_53_43" x="343.667" y="-7.01365" width="176.667" height="526.028" filterUnits="userSpaceOnUse" color-interpolation-filters="sRGB">
<feFlood flood-opacity="0" result="BackgroundImageFix"/>
<feColorMatrix in="SourceAlpha" type="matrix" values="0 0 0 0 0 0 0 0 0 0 0 0 0 0 0 0 0 0 127 0" result="hardAlpha"/>
<feOffset/>
<feGaussianBlur stdDeviation="4.16667"/>
<feColorMatrix type="matrix" values="0 0 0 0 0 0 0 0 0 0 0 0 0 0 0 0 0 0 0.25 0"/>
<feBlend mode="overlay" in2="BackgroundImageFix" result="effect1_dropShadow_53_43"/>
<feBlend mode="normal" in="SourceGraphic" in2="effect1_dropShadow_53_43" result="shape"/>
</filter>
<linearGradient id="paint0_linear_53_43" x1="255.687" y1="1.32" x2="255.687" y2="510.681" gradientUnits="userSpaceOnUse">
<stop stop-color="white"/>
<stop offset="1" stop-color="white" stop-opacity="0"/>
</linearGradient>
<clipPath id="clip0_53_43">
<rect width="512" height="512" fill="white"/>
</clipPath>
</defs>
</svg>
