<svg width="512" height="512" viewBox="0 0 512 512" fill="none" xmlns="http://www.w3.org/2000/svg">
<g clip-path="url(#clip0_37_1553)">
<path d="M364.18 296.582C289.76 344.556 216.019 392.097 140.332 440.877C253.679 456.359 365.003 471.559 478.534 487.065C439.861 422.641 402.179 359.877 364.18 296.582ZM510.537 84.2965C500.543 99.3005 490.532 114.299 480.556 129.314C446.283 180.889 412.023 232.458 377.791 284.05C375.884 286.931 373.413 289.213 376.097 293.638C409.183 348.278 441.998 403.091 474.894 457.84C480.084 466.489 485.337 475.103 492.053 483.4L512 84.7287L510.537 84.2965ZM58.9599 254.664C60.5094 256.134 64.3744 256.981 66.1658 256.099C97.8979 240.496 129.832 225.244 160.873 208.356C170.987 202.859 178.763 192.989 187.49 184.991C216.365 158.504 245.188 131.959 274.012 105.408C275.78 103.778 277.859 102.205 278.919 100.148C289.27 79.906 299.437 59.5722 309.972 38.6393C297.409 33.9318 285.503 29.305 273.453 25.0988C271.817 24.5284 269.248 25.6635 267.462 26.6545C239.567 42.2462 211.146 57.0024 184.132 74.0058C170.613 82.5103 159.6 95.0425 147.63 105.967C128.351 123.575 109.084 141.224 90.0758 159.144C85.03 163.897 80.4334 169.331 76.5108 175.046C63.5046 193.98 50.9016 213.184 37.7053 232.942C45.0897 240.582 51.7887 247.877 58.9599 254.664ZM174.927 228.776C159.15 295.482 143.448 361.807 127.24 430.316C203.267 381.317 277.537 333.447 351.312 285.894C292.599 266.88 234.071 247.929 174.927 228.776ZM300.71 116.759L365.337 274.013C407.524 210.626 448.87 148.49 491.154 84.9361C426.924 95.6705 364.226 106.146 300.71 116.759ZM177.577 215.132C235.419 233.921 292.116 252.331 350.448 271.27C328.784 218.474 307.864 167.527 286.505 115.497L177.577 215.132ZM61.3504 293.563L0.846736 438.238C39.6177 437.092 77.2078 435.98 116.077 434.833C97.8288 387.724 79.9381 341.536 61.3504 293.563ZM117.448 401.281L118.876 400.97C132.706 343.421 146.743 286.268 160.873 226.477C129.365 242.852 99.3092 258.479 68.4237 274.537C84.1775 315.516 100.985 358.73 117.448 401.281ZM467.901 75.6076C449.498 70.733 431.112 65.8354 412.691 60.9954C386.235 54.0408 359.756 47.1611 333.311 40.1374C330.011 39.2616 327.615 38.6911 325.674 42.6726C316.331 61.8251 306.689 80.8394 297.196 99.917C296.902 100.511 296.96 101.283 296.735 102.752C354.036 94.0687 410.957 85.4374 467.866 76.8118L467.901 75.6076ZM361.156 32.0361C410.571 45.7149 459.987 59.3879 511.13 73.5391L486.35 2.90976C444.36 12.2267 402.87 21.4285 361.38 30.6302L361.156 32.0361ZM406.556 489.289L283.516 472.487C232.407 465.509 181.39 457.829 130.166 451.923C111.59 449.785 92.518 451.756 73.6827 452.073C58.2054 452.338 42.7281 452.925 27.2566 453.415C25.6611 453.461 24.0713 453.784 22.4873 455.495C150.418 467.33 278.361 479.159 406.286 491L406.556 489.289ZM3.36964 394.079C19.8664 355.814 36.2711 317.521 52.8255 279.291C54.4844 275.447 54.3634 272.849 51.1205 269.766C44.1912 263.169 37.7629 256.064 30.1885 248.194L0 397.26L1.1117 397.79C1.87778 396.557 2.80515 395.404 3.36964 394.079ZM328.306 21.9355C356.11 14.7562 384.317 9.15565 412.357 2.89247C414.165 2.48338 415.94 1.88414 417.725 1.37133L417.454 0L296.977 16.2082C308.296 21.1577 317.011 24.8511 328.306 21.9355Z" fill="#00AAE9"/>
</g>
<defs>
<clipPath id="clip0_37_1553">
<rect width="512" height="512" fill="white"/>
</clipPath>
</defs>
</svg>
