<svg width="512" height="512" viewBox="0 0 512 512" fill="none" xmlns="http://www.w3.org/2000/svg">
<g clip-path="url(#clip0_21_684)">
<path d="M255.999 32.7808C379.305 32.7808 479.218 132.723 479.218 256C479.218 288.888 472.194 320.049 459.367 348.204C451.539 365.556 435.199 375.973 416.27 375.973H318.024L331.447 412.968C336.447 426.599 335.257 440.23 327.935 452.85C320.733 465.38 309.482 473.296 295.166 475.796C282.428 478.088 269.392 479.219 255.969 479.219C132.663 479.219 32.75 379.276 32.75 256C32.75 223.023 39.9526 191.653 52.81 163.468C60.7268 146.236 76.9772 135.7 95.9062 135.7H193.736L180.402 99.1215C175.491 85.4903 176.682 71.7697 183.914 59.2397C191.117 46.7097 202.367 38.7928 216.683 36.2928C229.421 34.0011 242.546 32.7808 255.969 32.7808H255.999ZM428.116 334.097C438.949 310.346 444.961 283.887 444.961 256C444.961 151.652 360.346 67.1566 256.029 67.1566C244.689 67.1566 233.588 68.1685 222.754 70.0733C218.945 70.7876 215.849 72.871 213.825 76.2937C211.921 79.7164 211.623 83.4069 212.933 87.1272L230.671 135.729H322.399C344.156 135.729 362.608 149.867 368.204 170.909C373.829 191.951 364.989 213.32 346.15 224.243L277.279 263.947L305.554 341.716H416.419C421.538 341.716 425.943 338.799 428.146 334.097H428.116ZM243.082 170.105L265.225 230.94L328.977 194.153C334.096 191.147 336.507 185.344 334.989 179.629C333.471 173.915 328.471 170.105 322.548 170.105H243.052H243.082ZM84.1202 177.635C73.1973 201.505 67.1853 228.053 67.1853 256.03C67.1853 360.377 151.681 444.962 256.029 444.962C267.368 444.962 278.47 443.951 289.214 442.046C297.131 440.647 301.833 432.522 299.036 424.992L281.208 375.973H190.908C169.152 375.973 150.818 361.836 145.193 340.883C139.479 319.841 148.407 298.382 167.247 287.548L234.808 248.47L206.355 170.075H95.9062C90.787 170.075 86.3821 172.873 84.1797 177.605L84.1202 177.635ZM268.767 341.716L246.802 281.566L184.241 317.638C179.122 320.644 176.712 326.448 178.229 332.162C179.837 337.877 184.837 341.686 190.759 341.686H268.737L268.767 341.716Z" fill="url(#paint0_linear_21_684)"/>
<path d="M190.848 375.973V341.686H190.759C184.836 341.686 179.836 337.877 178.229 332.162C176.711 326.448 179.122 320.644 184.241 317.638L246.802 281.566L234.778 248.5L167.217 287.578C148.377 298.412 139.448 319.841 145.163 340.913C150.788 361.865 169.121 376.003 190.878 376.003L190.848 375.973Z" fill="url(#paint1_linear_21_684)"/>
<path d="M318.055 375.973L331.478 412.968C336.479 426.599 335.288 440.23 327.966 452.85C320.764 465.38 309.514 473.296 295.198 475.797L289.186 442.016C297.103 440.617 301.805 432.492 299.007 424.962L281.18 375.943H318.055V375.973Z" fill="url(#paint2_linear_21_684)"/>
<path d="M206.297 170.105H243.083L277.251 263.917L246.774 281.566L206.297 170.105Z" fill="url(#paint3_linear_21_684)"/>
</g>
<defs>
<linearGradient id="paint0_linear_21_684" x1="98.1384" y1="413.861" x2="413.86" y2="98.1394" gradientUnits="userSpaceOnUse">
<stop stop-color="#FF8A8C"/>
<stop offset="1" stop-color="#FFC120"/>
</linearGradient>
<linearGradient id="paint1_linear_21_684" x1="256.861" y1="286.804" x2="148.198" y2="349.544" gradientUnits="userSpaceOnUse">
<stop stop-color="#FF7735"/>
<stop offset="0.25" stop-color="#FF7735"/>
<stop offset="0.7" stop-color="#FF9871" stop-opacity="0"/>
<stop offset="1" stop-color="#FF9871" stop-opacity="0"/>
</linearGradient>
<linearGradient id="paint2_linear_21_684" x1="307.847" y1="475.826" x2="307.847" y2="375.973" gradientUnits="userSpaceOnUse">
<stop stop-color="#FF9871" stop-opacity="0"/>
<stop offset="0.3" stop-color="#FF9871" stop-opacity="0"/>
<stop offset="0.75" stop-color="#FF7735"/>
<stop offset="1" stop-color="#FF7735"/>
</linearGradient>
<linearGradient id="paint3_linear_21_684" x1="241.774" y1="281.566" x2="241.774" y2="170.105" gradientUnits="userSpaceOnUse">
<stop stop-color="#FFA35C" stop-opacity="0"/>
<stop offset="0.2" stop-color="#FFA35C" stop-opacity="0"/>
<stop offset="0.75" stop-color="#FF7735"/>
<stop offset="1" stop-color="#FF7735"/>
</linearGradient>
<clipPath id="clip0_21_684">
<rect width="512" height="512" fill="white"/>
</clipPath>
</defs>
</svg>
