<svg width="512" height="512" viewBox="0 0 512 512" fill="none" xmlns="http://www.w3.org/2000/svg">
<g clip-path="url(#clip0_98_2)">
<g clip-path="url(#clip1_98_2)">
<path d="M511.997 14.2222C229.23 14.2222 14.2188 229.234 14.2188 512H256.594C256.594 370.958 370.969 256.597 511.997 256.597V14.2222Z" fill="#8767AC"/>
<path d="M0 511.986H43.264C43.264 253.298 252.814 43.5769 511.417 43.264V0C228.907 0.327111 0 229.419 0 511.986Z" fill="#EB2027"/>
<path d="M43.8438 512H86.5104C86.5104 276.878 276.946 86.2578 511.997 85.9449V43.2782C253.394 43.5911 43.8438 253.312 43.8438 512Z" fill="#F19020"/>
<path d="M86.5156 512H129.182C129.182 300.444 300.517 128.924 512.002 128.612V85.9449C276.951 86.2578 86.5156 276.878 86.5156 512Z" fill="#FFCB4C"/>
<path d="M129.18 512H171.846C171.846 324.025 324.095 171.591 511.999 171.278V128.612C300.515 128.924 129.18 300.444 129.18 512Z" fill="#5C903F"/>
<path d="M171.844 512H214.51C214.51 347.591 347.659 214.272 511.997 213.959V171.278C324.093 171.591 171.844 324.025 171.844 512Z" fill="#226798"/>
</g>
</g>
<defs>
<clipPath id="clip0_98_2">
<rect width="512" height="512" fill="white"/>
</clipPath>
<clipPath id="clip1_98_2">
<rect width="512" height="512" fill="white"/>
</clipPath>
</defs>
</svg>
