<svg width="512" height="512" viewBox="0 0 512 512" fill="none" xmlns="http://www.w3.org/2000/svg">
<path d="M160 32C177.6 32 194.24 40.3204 204.8 54.4004L233.6 92.7998C234.345 93.7933 235.311 94.5999 236.422 95.1553C237.533 95.7107 238.758 96 240 96H456C470.852 96 485.096 101.9 495.598 112.402C506.1 122.904 512 137.148 512 152V241.937C484.981 224.271 452.69 214 418 214C323.007 214 246 291.007 246 386C246 420.691 256.272 452.981 273.938 480H56C25.088 480 0 454.912 0 424V88C0 73.1479 5.90031 58.9044 16.4023 48.4023C26.9044 37.9003 41.1479 32 56 32H160Z" fill="#9198A1"/>
<path fill-rule="evenodd" clip-rule="evenodd" d="M418 292C366.065 292 324 334.065 324 386C324 427.595 350.907 462.728 388.272 475.183C392.972 476.005 394.735 473.185 394.735 470.718C394.735 468.485 394.618 461.083 394.618 453.21C371 457.558 364.89 447.452 363.01 442.165C361.952 439.462 357.37 431.12 353.375 428.887C350.085 427.125 345.385 422.777 353.258 422.66C360.66 422.542 365.948 429.475 367.71 432.295C376.17 446.512 389.683 442.518 395.088 440.05C395.91 433.94 398.377 429.827 401.08 427.477C380.165 425.127 358.31 417.02 358.31 381.065C358.31 370.842 361.953 362.382 367.945 355.802C367.005 353.452 363.715 343.817 368.885 330.892C368.885 330.892 376.758 328.425 394.735 340.528C402.255 338.413 410.245 337.355 418.235 337.355C426.225 337.355 434.215 338.413 441.735 340.528C459.713 328.308 467.585 330.892 467.585 330.892C472.755 343.817 469.465 353.452 468.525 355.802C474.518 362.382 478.16 370.725 478.16 381.065C478.16 417.137 456.188 425.127 435.273 427.477C438.68 430.415 441.618 436.055 441.618 444.868C441.618 457.44 441.5 467.545 441.5 470.718C441.5 473.185 443.263 476.123 447.963 475.183C485.093 462.728 512 427.477 512 386C512 334.065 469.935 292 418 292Z" fill="#0FBF3E"/>
</svg>
