<svg width="512" height="512" viewBox="0 0 512 512" fill="none" xmlns="http://www.w3.org/2000/svg">
<path d="M160 32C177.6 32 194.24 40.3204 204.8 54.4004L233.6 92.7998C234.345 93.7933 235.311 94.5999 236.422 95.1553C237.533 95.7107 238.758 96 240 96H456C470.852 96 485.096 101.9 495.598 112.402C506.1 122.904 512 137.148 512 152V241.937C484.981 224.271 452.69 214 418 214C323.007 214 246 291.007 246 386C246 420.691 256.272 452.981 273.938 480H56C25.088 480 0 454.912 0 424V88C0 73.1479 5.90031 58.9044 16.4023 48.4023C26.9044 37.9003 41.1479 32 56 32H160Z" fill="#9198A1"/>
<path d="M418 480C405.153 480 393.012 477.532 381.575 472.597C370.138 467.662 360.151 460.926 351.612 452.387C343.074 443.849 336.337 433.862 331.402 422.425C326.467 410.988 324 398.847 324 386C324 372.997 326.467 360.816 331.402 349.457C336.337 338.099 343.074 328.151 351.612 319.612C360.151 311.074 370.138 304.337 381.575 299.402C393.012 294.467 405.153 292 418 292C431.003 292 443.184 294.467 454.542 299.402C465.901 304.337 475.849 311.074 484.387 319.612C492.926 328.151 499.662 338.099 504.597 349.457C509.532 360.816 512 372.997 512 386C512 398.847 509.532 410.988 504.597 422.425C499.662 433.862 492.926 443.849 484.387 452.387C475.849 460.926 465.901 467.662 454.542 472.597C443.184 477.532 431.003 480 418 480ZM418 460.73C422.073 455.09 425.598 449.215 428.575 443.105C431.552 436.995 433.98 430.493 435.86 423.6H400.14C402.02 430.493 404.448 436.995 407.425 443.105C410.402 449.215 413.927 455.09 418 460.73ZM393.56 456.97C390.74 451.8 388.272 446.434 386.157 440.872C384.042 435.311 382.28 429.553 380.87 423.6H353.14C357.683 431.433 363.362 438.248 370.177 444.045C376.992 449.842 384.787 454.15 393.56 456.97ZM442.44 456.97C451.213 454.15 459.007 449.842 465.822 444.045C472.637 438.248 478.317 431.433 482.86 423.6H455.13C453.72 429.553 451.957 435.311 449.842 440.872C447.727 446.434 445.26 451.8 442.44 456.97ZM345.15 404.8H377.11C376.64 401.667 376.287 398.572 376.052 395.517C375.817 392.462 375.7 389.29 375.7 386C375.7 382.71 375.817 379.537 376.052 376.482C376.287 373.427 376.64 370.333 377.11 367.2H345.15C344.367 370.333 343.779 373.427 343.387 376.482C342.996 379.537 342.8 382.71 342.8 386C342.8 389.29 342.996 392.462 343.387 395.517C343.779 398.572 344.367 401.667 345.15 404.8ZM395.91 404.8H440.09C440.56 401.667 440.912 398.572 441.147 395.517C441.382 392.462 441.5 389.29 441.5 386C441.5 382.71 441.382 379.537 441.147 376.482C440.912 373.427 440.56 370.333 440.09 367.2H395.91C395.44 370.333 395.087 373.427 394.852 376.482C394.617 379.537 394.5 382.71 394.5 386C394.5 389.29 394.617 392.462 394.852 395.517C395.087 398.572 395.44 401.667 395.91 404.8ZM458.89 404.8H490.85C491.633 401.667 492.221 398.572 492.612 395.517C493.004 392.462 493.2 389.29 493.2 386C493.2 382.71 493.004 379.537 492.612 376.482C492.221 373.427 491.633 370.333 490.85 367.2H458.89C459.36 370.333 459.712 373.427 459.947 376.482C460.182 379.537 460.3 382.71 460.3 386C460.3 389.29 460.182 392.462 459.947 395.517C459.712 398.572 459.36 401.667 458.89 404.8ZM455.13 348.4H482.86C478.317 340.567 472.637 333.752 465.822 327.955C459.007 322.158 451.213 317.85 442.44 315.03C445.26 320.2 447.727 325.566 449.842 331.127C451.957 336.689 453.72 342.447 455.13 348.4ZM400.14 348.4H435.86C433.98 341.507 431.552 335.005 428.575 328.895C425.598 322.785 422.073 316.91 418 311.27C413.927 316.91 410.402 322.785 407.425 328.895C404.448 335.005 402.02 341.507 400.14 348.4ZM353.14 348.4H380.87C382.28 342.447 384.042 336.689 386.157 331.127C388.272 325.566 390.74 320.2 393.56 315.03C384.787 317.85 376.992 322.158 370.177 327.955C363.362 333.752 357.683 340.567 353.14 348.4Z" fill="#F6FF00"/>
</svg>
