<svg width="512" height="512" viewBox="0 0 512 512" fill="none" xmlns="http://www.w3.org/2000/svg">
<path d="M160 32C177.6 32 194.24 40.3204 204.8 54.4004L233.6 92.7998C234.345 93.7933 235.311 94.5999 236.422 95.1553C237.533 95.7107 238.758 96 240 96H456C470.852 96 485.096 101.9 495.598 112.402C506.1 122.904 512 137.148 512 152V241.937C484.981 224.271 452.69 214 418 214C323.007 214 246 291.007 246 386C246 420.691 256.272 452.981 273.938 480H56C25.088 480 0 454.912 0 424V88C0 73.1479 5.90031 58.9044 16.4023 48.4023C26.9044 37.9003 41.1479 32 56 32H160Z" fill="#9198A1"/>
<circle cx="418" cy="386" r="94" fill="#9500FF"/>
</svg>
