<svg width="512" height="512" viewBox="0 0 512 512" fill="none" xmlns="http://www.w3.org/2000/svg">
<g clip-path="url(#clip0_18_616)">
<g clip-path="url(#clip1_18_616)">
<path d="M36.6084 39.04H132.736V86.784H88.3204V423.04H132.736V471.04H36.6084V39.04Z" fill="#005F1E"/>
<path d="M316.523 387L296.855 322.43H197.959L178.291 387H116.318L212.061 114.617H282.383L378.496 387H316.523ZM283.125 274.188L263.457 211.102C262.22 206.896 260.55 201.515 258.447 194.959C256.468 188.279 254.427 181.538 252.324 174.734C250.345 167.807 248.737 161.808 247.5 156.736C246.263 161.808 244.531 168.117 242.305 175.662C240.202 183.084 238.161 190.135 236.182 196.814C234.202 203.494 232.78 208.257 231.914 211.102L212.432 274.188H283.125Z" fill="#009930"/>
<path d="M468.097 471.04H371.969V423.296H416.385V87.04H371.969V39.04H468.097V471.04Z" fill="#005F1E"/>
</g>
</g>
<defs>
<clipPath id="clip0_18_616">
<rect width="512" height="512" fill="white"/>
</clipPath>
<clipPath id="clip1_18_616">
<rect width="512" height="512" fill="white"/>
</clipPath>
</defs>
</svg>
