<svg width="512" height="512" viewBox="0 0 512 512" fill="none" xmlns="http://www.w3.org/2000/svg">
<path d="M104.346 256C104.386 215.792 120.377 177.242 148.809 148.81C177.24 120.379 215.79 104.388 255.998 104.348C282.603 104.402 308.729 111.427 331.774 124.722C354.819 138.017 373.978 157.118 387.343 180.123L348.957 202.325L477.69 128.01C474.379 122.001 469.593 116.934 463.784 113.285L275.691 4.70553C264.833 -1.56851 247.112 -1.56851 236.28 4.70553L48.1867 113.285C37.38 119.533 28.5195 134.898 28.5195 147.421V364.579C28.5195 370.853 30.7218 377.819 34.307 383.99L124.679 331.801C111.323 308.774 104.308 282.619 104.346 256Z" fill="#F34B7D"/>
<path d="M321.657 218.074C314.981 206.568 305.405 197.013 293.884 190.363C282.363 183.713 269.3 180.2 255.997 180.174C242.699 180.2 229.64 183.719 218.13 190.38C206.619 197.04 197.061 206.608 190.411 218.125C183.762 229.642 180.255 242.704 180.242 256.003C180.229 269.302 183.711 282.37 190.338 293.9L255.997 256L321.657 218.074Z" fill="#F34B7D"/>
<path d="M477.689 128.01L348.47 202.607L321.683 218.1L321.658 218.074L255.998 256L190.364 293.9C197.021 305.42 206.588 314.987 218.108 321.643C229.627 328.3 242.694 331.811 255.998 331.826C269.308 331.805 282.379 328.291 293.906 321.636C305.432 314.98 315.011 305.417 321.683 293.9L387.318 331.877C373.956 354.885 354.798 373.989 331.752 387.285C308.707 400.58 282.578 407.603 255.973 407.653C229.354 407.637 203.208 400.62 180.159 387.306C157.109 373.993 137.967 354.85 124.653 331.801L34.2812 383.99C37.8664 390.188 42.7832 395.591 48.1866 398.715L236.28 507.294C247.112 513.569 264.833 513.569 275.691 507.294L463.784 398.715C469.187 395.591 474.104 390.188 477.689 383.99C481.275 377.819 483.477 370.853 483.477 364.579V147.421C483.477 141.147 481.275 134.181 477.689 128.01ZM407.651 264.425H390.8V281.275H373.976V264.425H357.125V247.575H373.976V230.725H390.8V247.575H407.651V264.425ZM470.852 264.425H454.002V281.275H437.151V264.425H420.327V247.575H437.151V230.725H454.002V247.575H470.852V264.425Z" fill="#F34B7D"/>
</svg>
