<svg width="512" height="512" viewBox="0 0 512 512" fill="none" xmlns="http://www.w3.org/2000/svg">
<path d="M166.412 422.461C149.322 422.461 136.139 421.045 126.861 418.213C117.584 415.479 111.139 411.084 107.525 405.029C104.01 398.975 102.252 391.162 102.252 381.592V335.449C102.252 329.102 100.787 324.023 97.8574 320.215C95.0254 316.406 90.8262 313.623 85.2598 311.865C79.6934 310.107 72.8574 309.229 64.752 309.229V274.219C72.8574 274.219 79.6934 273.389 85.2598 271.729C90.8262 269.971 95.0254 267.188 97.8574 263.379C100.787 259.473 102.252 254.395 102.252 248.145V201.562C102.252 191.992 104.01 184.229 107.525 178.271C111.139 172.217 117.584 167.822 126.861 165.088C136.139 162.256 149.322 160.84 166.412 160.84V193.799C161.236 193.896 156.695 194.531 152.789 195.703C148.98 196.777 146.051 198.779 144 201.709C141.949 204.639 140.924 208.887 140.924 214.453V258.252C140.924 267.432 137.994 274.756 132.135 280.225C126.275 285.596 117.779 289.111 106.646 290.771V292.529C117.779 294.092 126.275 297.607 132.135 303.076C137.994 308.447 140.924 315.723 140.924 324.902V368.701C140.924 374.268 141.949 378.516 144 381.445C146.051 384.473 148.98 386.523 152.789 387.598C156.695 388.672 161.236 389.258 166.412 389.355V422.461ZM346.441 422.461V389.355C351.617 389.258 356.109 388.672 359.918 387.598C363.727 386.523 366.656 384.473 368.707 381.445C370.855 378.516 371.93 374.268 371.93 368.701V324.902C371.93 315.723 374.859 308.447 380.719 303.076C386.578 297.607 395.025 294.092 406.061 292.529V290.771C395.025 289.111 386.578 285.596 380.719 280.225C374.859 274.756 371.93 267.432 371.93 258.252V214.453C371.93 208.887 370.855 204.639 368.707 201.709C366.656 198.779 363.727 196.777 359.918 195.703C356.109 194.531 351.617 193.896 346.441 193.799V160.84C363.531 160.84 376.715 162.256 385.992 165.088C395.27 167.822 401.666 172.217 405.182 178.271C408.795 184.229 410.602 191.992 410.602 201.562V248.145C410.602 254.395 412.018 259.473 414.85 263.379C417.779 267.188 422.027 269.971 427.594 271.729C433.16 273.389 439.996 274.219 448.102 274.219V309.229C439.996 309.229 433.16 310.107 427.594 311.865C422.027 313.623 417.779 316.406 414.85 320.215C412.018 324.023 410.602 329.102 410.602 335.449V381.592C410.602 391.162 408.795 398.975 405.182 405.029C401.666 411.084 395.27 415.479 385.992 418.213C376.715 421.045 363.531 422.461 346.441 422.461Z" fill="#00AEFF"/>
</svg>
