<svg width="512" height="512" viewBox="0 0 512 512" fill="none" xmlns="http://www.w3.org/2000/svg">
<g clip-path="url(#clip0_49_41)">
<path d="M255.37 3.84906C118.902 3.84906 4 114.553 4 251.151V507.23L255.322 506.987C391.789 506.987 502.475 392.016 502.475 255.467C502.475 118.917 391.692 3.84906 255.37 3.84906Z" fill="#231F20"/>
<path d="M257.793 99.5694C231.26 99.5851 205.186 106.494 182.122 119.62C159.059 132.746 139.797 151.64 126.222 174.451C112.647 197.262 105.224 223.209 104.68 249.753C104.136 276.296 110.49 302.526 123.118 325.875L95.3984 415.098L194.938 392.598C215.767 401.988 238.432 406.597 261.271 406.089C284.111 405.58 306.548 399.967 326.939 389.659C347.33 379.351 365.159 364.611 379.12 346.516C393.08 328.422 402.82 307.433 407.624 285.085C412.429 262.737 412.178 239.597 406.888 217.359C401.599 195.121 391.405 174.348 377.054 156.562C362.703 138.776 344.558 124.427 323.948 114.566C303.338 104.704 280.784 99.5806 257.938 99.5694H257.793Z" fill="#FFF9AE"/>
<path d="M379.335 159.601C399.983 186.69 411.021 219.892 410.703 253.959C410.384 288.027 398.729 321.016 377.577 347.714C356.426 374.412 326.986 393.296 293.91 401.38C260.834 409.465 226.009 406.289 194.938 392.355L95.3984 415.146L196.732 403.169C229.181 422.189 267.489 428.596 304.357 421.17C341.224 413.745 374.071 393.005 396.638 362.903C419.205 332.802 429.913 295.445 426.722 257.951C423.531 220.458 406.663 185.45 379.335 159.601Z" fill="#00AEEF"/>
<path d="M351.13 131.331C374.491 156.115 388.931 187.981 392.169 221.895C395.407 255.809 387.257 289.835 369.008 318.596C350.759 347.357 323.451 369.212 291.401 380.709C259.35 392.205 224.385 392.686 192.031 382.075L95.3984 415.146L194.938 392.598C229.184 408.076 267.922 410.416 303.779 399.171C339.636 387.926 370.11 363.881 389.4 331.614C408.69 299.347 415.45 261.109 408.394 224.178C401.337 187.247 380.956 154.202 351.13 131.331Z" fill="#00A94F"/>
<path d="M132.278 329.269C118.817 296.802 116.917 260.693 126.896 226.991C136.875 193.289 158.128 164.043 187.092 144.154C216.056 124.264 250.972 114.94 285.989 117.744C321.006 120.547 353.996 135.308 379.432 159.552C356.025 128.816 321.879 108.061 283.831 101.441C245.782 94.821 206.639 102.825 174.237 123.851C141.835 144.877 118.565 177.373 109.087 214.833C99.6078 252.294 104.62 291.954 123.118 325.875L95.3984 415.098L132.278 329.269Z" fill="#F15D22"/>
<path d="M123.12 325.875C106.416 295.003 100.81 259.328 107.238 224.816C113.666 190.304 131.74 159.046 158.437 136.267C185.134 113.488 218.837 100.57 253.911 99.6715C288.985 98.773 323.304 109.949 351.131 131.331C324.605 103.382 288.528 86.4598 250.09 83.9347C211.652 81.4095 173.675 93.4672 143.723 117.705C113.772 141.944 94.0471 176.583 88.4774 214.722C82.9077 252.86 91.9026 291.699 113.67 323.499L95.4484 415.146L123.12 325.875Z" fill="#E31B23"/>
</g>
<defs>
<clipPath id="clip0_49_41">
<rect width="512" height="512" fill="white"/>
</clipPath>
</defs>
</svg>
