<svg width="512" height="512" viewBox="0 0 512 512" fill="none" xmlns="http://www.w3.org/2000/svg">
<path d="M60.5766 166.44C64.9366 162.84 68.1166 158.04 69.6966 152.64C71.2302 148.646 71.1337 144.209 69.4279 140.285C67.7221 136.361 64.5436 133.263 60.5766 131.66C33.7766 118.1 16.4766 142.26 13.9766 147.9C11.4566 153.56 7.01664 162.46 9.81664 182.84C12.6166 203.24 22.4566 222.04 53.2166 229.44C82.6313 236.282 113.51 232.676 140.557 219.24L231.477 181.34C239.883 179.28 248.501 178.206 257.157 178.14V147.14C250.438 135.066 240.348 125.211 228.119 118.779C215.89 112.346 202.052 109.616 188.297 110.92C139.217 114.78 119.717 140.04 107.917 150.88C96.1366 161.68 73.7966 187.2 58.9366 182.72C44.0966 178.24 39.8966 159.88 45.1366 154.24C50.3766 148.6 54.5166 149.6 57.7766 154.24C59.7766 157.98 60.7766 162.18 60.6766 166.42L60.5766 166.44Z" fill="#5F3F23"/>
<path d="M452.038 166.44C447.68 162.861 444.502 158.052 442.918 152.64C441.384 148.646 441.48 144.209 443.186 140.285C444.892 136.361 448.071 133.263 452.038 131.66C478.838 118.1 496.138 142.26 498.638 147.9C501.158 153.54 505.577 162.46 502.777 182.84C499.977 203.24 490.138 222.04 459.378 229.44C429.963 236.282 399.084 232.676 372.038 219.24L281.117 181.36C272.711 179.3 264.093 178.226 255.438 178.16V147.16C262.156 135.086 272.247 125.231 284.475 118.799C296.704 112.366 310.542 109.636 324.297 110.94C373.397 114.8 392.898 140.06 404.698 150.9C416.478 161.7 438.817 187.22 453.677 182.74C468.537 178.26 472.718 159.9 467.478 154.26C462.238 148.62 458.117 149.62 454.837 154.26C452.837 158 451.837 162.2 451.938 166.44H452.038Z" fill="#5F3F23"/>
<g filter="url(#filter0_f_62_2)">
<path d="M50.3711 202.42C50.3711 202.42 107.573 178.142 129.062 168.504C150.397 158.988 157.663 145.69 179.462 145.202C201.106 144.592 243.157 170.822 243.157 170.822C243.157 170.822 199.869 171.798 183.172 175.092C166.63 178.386 165.857 183.144 143.749 188.512C121.796 193.758 50.3711 202.42 50.3711 202.42Z" fill="#5F3F23"/>
</g>
<g filter="url(#filter1_f_62_2)">
<path d="M459.684 202.42C459.684 202.42 402.482 178.142 380.992 168.504C359.657 158.988 352.391 145.69 330.593 145.202C308.949 144.592 266.897 170.822 266.897 170.822C266.897 170.822 310.185 171.798 326.882 175.092C343.424 178.386 344.197 183.144 366.305 188.512C388.258 193.758 459.684 202.42 459.684 202.42Z" fill="#5F3F23"/>
</g>
<path d="M272.117 173.96V382.56C272.117 392.98 265.617 401.36 257.517 401.36C249.457 401.36 242.957 392.98 242.957 382.56V174.08C253.057 172.4 264.857 172.4 272.117 173.94V173.96Z" fill="#5F3F23"/>
<defs>
<filter id="filter0_f_62_2" x="36.6375" y="131.458" width="220.252" height="84.6957" filterUnits="userSpaceOnUse" color-interpolation-filters="sRGB">
<feFlood flood-opacity="0" result="BackgroundImageFix"/>
<feBlend mode="normal" in="SourceGraphic" in2="BackgroundImageFix" result="shape"/>
<feGaussianBlur stdDeviation="6.8668" result="effect1_foregroundBlur_62_2"/>
</filter>
<filter id="filter1_f_62_2" x="253.165" y="131.458" width="220.252" height="84.6957" filterUnits="userSpaceOnUse" color-interpolation-filters="sRGB">
<feFlood flood-opacity="0" result="BackgroundImageFix"/>
<feBlend mode="normal" in="SourceGraphic" in2="BackgroundImageFix" result="shape"/>
<feGaussianBlur stdDeviation="6.8668" result="effect1_foregroundBlur_62_2"/>
</filter>
</defs>
</svg>
