<svg width="512" height="512" viewBox="0 0 512 512" fill="none" xmlns="http://www.w3.org/2000/svg">
<g clip-path="url(#clip0_23_768)">
<path d="M455.111 0C470.756 5.07085e-05 484.148 5.57025 495.289 16.7109C506.43 27.8516 512 41.2443 512 56.8887V455.111C512 470.756 506.43 484.148 495.289 495.289C484.148 506.43 470.756 512 455.111 512H56.8887C41.2443 512 27.8516 506.43 16.7109 495.289C5.57025 484.148 5.07109e-05 470.756 0 455.111V56.8887C5.1614e-05 41.2443 5.57025 27.8516 16.7109 16.7109C27.8516 5.57025 41.2443 5.16164e-05 56.8887 0H455.111ZM234.667 369.777L170.667 284.444L85.333 398.223H426.667L319 196.5L234.667 369.777ZM380 79C350.177 79 326 103.177 326 133C326 162.823 350.177 187 380 187C409.823 187 434 162.823 434 133C434 103.177 409.823 79 380 79Z" fill="#C560FF"/>
</g>
<defs>
<clipPath id="clip0_23_768">
<rect width="512" height="512" fill="white"/>
</clipPath>
</defs>
</svg>
