<svg width="512" height="512" viewBox="0 0 512 512" fill="none" xmlns="http://www.w3.org/2000/svg">
<path d="M330.238 417.974L190.718 350.676L98.0464 379.207L6.39844 335.068L104.574 209.174L87.8064 177.828L141.822 128.059L225.534 124.604L322.43 88.3971L494.974 273.912L413.438 397.503L330.238 417.974Z" fill="#FF1E1E"/>
<path d="M106.495 295.406C143.103 306.409 181.375 296.174 221.567 264.572L409.727 386.372L371.327 410.041H308.607L209.407 361.168L118.783 384.197L15.8711 337.371L89.2151 299.5L106.495 295.406ZM173.055 151.216C186.239 147.762 213.631 179.747 214.911 187.551C219.775 214.675 221.823 232.971 188.415 259.71C178.54 268.101 166.956 274.244 154.468 277.713C141.98 281.182 128.886 281.893 116.095 279.797L122.751 249.987L98.5591 201.881C116.101 176.255 142.651 158.167 172.927 151.216H173.055Z" fill="#BF0000"/>
<path d="M115.839 393.665L113.663 394.304L0.382812 343.384L2.94281 337.626C20.9908 295.918 47.7428 259.326 82.6868 227.853C87.6268 223.395 92.6626 219.044 97.7908 214.803L91.9028 203.672L84.7348 190.238L82.4308 185.76L80.8948 182.818L82.3028 179.875C98.0468 147.89 122.623 129.978 162.687 119.103C187.135 112.706 207.615 113.09 224.127 120.894C254.662 103.649 287.506 90.853 321.663 82.8956L322.943 82.6397L507.903 280.949L505.855 284.787C490.295 315.952 474.337 346.916 457.983 377.672C435.839 419.381 399.103 434.478 351.359 427.569C315.519 422.451 276.479 405.819 229.759 379.207L215.679 371.403C194.047 374.601 160.639 382.022 115.711 393.665H115.839ZM91.1348 237.449C59.9426 265.16 34.8007 299.001 17.2788 336.859L95.6148 372.171C121.763 362.695 148.483 354.875 175.615 348.757C148.499 333.539 121.363 318.356 94.2068 303.21L88.3188 299.884L118.143 253.185L103.935 226.318C99.5985 229.947 95.331 233.658 91.1348 237.449ZM138.879 299.628C187.263 291.056 225.151 252.674 238.719 228.365C241.293 224.505 243.768 220.58 246.143 216.594L312.447 98.6324C278.648 107.616 246.378 121.587 216.703 140.085L202.879 133.688C205.17 132.219 207.475 130.769 209.791 129.338C195.199 126.349 180.085 127.142 165.887 131.641C130.559 140.981 109.311 156.206 95.2308 182.69L96.1268 184.225L103.167 197.659L128.255 244.997C136.272 246.623 144.525 246.71 152.575 245.253C164.863 243.462 176.127 238.856 185.215 231.563C203.263 216.978 212.863 205.975 213.631 196.251C214.527 184.737 206.975 169.256 185.855 139.829C215.679 159.788 236.031 191.774 219.647 214.803V214.931C217.962 217.431 216.124 219.823 214.143 222.096C208.767 228.237 202.239 234.25 193.279 241.543C182.017 250.317 168.639 255.966 154.495 257.919C146.407 259.231 138.172 259.361 130.047 258.303L106.367 295.406C127.499 307.155 148.619 318.926 169.727 330.718V330.462C235.007 327.007 277.247 287.474 318.079 222.607C286.847 288.881 248.191 331.357 188.543 341.337C201.087 348.246 212.351 354.643 222.591 360.528C286.591 356.306 325.247 321.25 365.695 257.024C334.847 322.529 299.263 361.168 241.535 371.147C247.755 374.654 254.027 378.066 260.351 381.382C260.136 381.17 259.923 380.957 259.711 380.743C262.039 382.055 264.386 383.335 266.751 384.581C270.273 386.326 273.814 388.032 277.375 389.699C341.119 385.604 376.703 355.026 417.151 290.8C387.455 353.875 355.711 388.675 302.335 399.55C341.375 411.065 372.991 404.028 404.735 384.197C415.615 377.16 441.727 340.057 482.815 272.632L324.607 102.982L257.279 222.991C246.824 241.106 233.852 257.647 218.751 272.121C196.328 290.638 167.954 300.41 138.879 299.628Z" fill="#3C0000"/>
</svg>
