<svg width="512" height="512" viewBox="0 0 512 512" fill="none" xmlns="http://www.w3.org/2000/svg">
<g clip-path="url(#clip0_17_506)">
<g clip-path="url(#clip1_17_506)">
<path d="M453.363 255.554C453.363 146.899 365.155 58.6906 256.5 58.6906C147.844 58.6906 59.6357 146.899 59.6357 255.554C59.6357 364.21 147.844 452.418 256.5 452.418C365.155 452.418 453.363 364.21 453.363 255.554Z" fill="#000080"/>
<path d="M395.718 173.981C395.718 142.167 369.887 116.336 338.073 116.336C306.259 116.336 280.428 142.167 280.428 173.981C280.428 205.795 306.259 231.626 338.073 231.626C369.887 231.626 395.718 205.795 395.718 173.981Z" fill="white"/>
<path d="M511.009 58.6362C511.009 26.8226 485.178 0.991024 453.364 0.991024C421.55 0.991024 395.719 26.8226 395.719 58.6362C395.719 90.4498 421.55 116.281 453.364 116.281C485.178 116.281 511.009 90.5042 511.009 58.6362Z" fill="#000080"/>
<path d="M139.361 339.412H203.151V353.932H122.883V224.774H139.361V339.412Z" fill="white"/>
<path d="M279.341 353.932V340.989C270.639 353.225 261.993 358.011 248.343 358.011C230.288 358.011 218.759 348.113 218.759 332.668V261.101H233.442V326.85C233.442 337.998 240.892 345.122 252.585 345.122C267.975 345.122 277.927 332.723 277.927 313.743V261.101H292.61V353.932H279.341Z" fill="white"/>
<path d="M400.559 356.433C395.773 357.684 393.489 358.011 390.444 358.011C380.872 358.011 376.25 353.769 375.216 344.361C364.775 353.932 355.367 358.011 343.675 358.011C324.913 358.011 313.221 347.406 313.221 330.548C313.221 318.475 318.713 310.154 329.535 305.749C335.191 303.465 338.4 302.758 359.282 300.093C370.975 298.68 374.673 296.015 374.673 289.815V285.9C374.673 277.035 367.222 272.087 353.953 272.087C340.14 272.087 333.397 277.199 332.146 288.564H317.245C317.626 279.374 319.366 274.044 323.608 269.259C329.807 262.352 340.956 258.437 354.442 258.437C377.283 258.437 389.356 267.301 389.356 283.779V338.379C389.356 343.001 392.184 345.666 397.35 345.666C398.22 345.666 398.927 345.666 400.559 345.285V356.433ZM374.673 308.033C369.724 310.317 366.515 311.024 350.908 313.145C335.137 315.429 328.557 320.432 328.557 330.167C328.557 339.575 335.3 345.068 346.829 345.068C355.53 345.068 362.763 342.24 368.799 336.747C373.204 332.668 374.673 329.677 374.673 324.674V308.033Z" fill="white"/>
<path d="M483.328 139.938C501.546 175.721 511.063 215.312 511.063 255.5C511.063 396.024 397.024 510.063 256.5 510.063C115.976 510.063 1.93652 396.024 1.93652 255.5C1.93652 114.976 115.976 0.936642 256.5 0.936642C301.692 0.936642 346.013 12.9551 384.951 35.6869" stroke="#808080" stroke-width="10.8612" stroke-miterlimit="10" stroke-dasharray="40.85 40.85"/>
</g>
</g>
<defs>
<clipPath id="clip0_17_506">
<rect width="512" height="512" fill="white"/>
</clipPath>
<clipPath id="clip1_17_506">
<rect width="515" height="515" fill="white" transform="translate(-1 -2)"/>
</clipPath>
</defs>
</svg>
