<svg width="512" height="512" viewBox="0 0 512 512" fill="none" xmlns="http://www.w3.org/2000/svg">
<path d="M394.828 266.586C394.828 166.457 313.543 85.1714 213.414 85.1714C113.286 85.1714 32 166.457 32 266.586C32 366.714 113.286 448 213.414 448C313.543 448 394.828 366.714 394.828 266.586Z" fill="#000080"/>
<path d="M341.707 191.414C341.707 162.097 317.903 138.293 288.586 138.293C259.269 138.293 235.465 162.097 235.465 191.414C235.465 220.731 259.269 244.535 288.586 244.535C317.903 244.535 341.707 220.731 341.707 191.414Z" fill="white"/>
<path d="M447.95 85.1213C447.95 55.8044 424.145 32 394.828 32C365.511 32 341.707 55.8044 341.707 85.1213C341.707 114.438 365.511 138.243 394.828 138.243C424.145 138.243 447.95 114.488 447.95 85.1213Z" fill="#000080"/>
<path d="M480 288H96V480H480V288Z" fill="#808080"/>
<path d="M288 320H128V448H288V320Z" fill="#14E600"/>
<path d="M320 320H448V448H320V320Z" fill="#E61400"/>
</svg>
