<svg width="512" height="512" viewBox="0 0 512 512" fill="none" xmlns="http://www.w3.org/2000/svg">
<g clip-path="url(#clip0_25_873)">
<path opacity="0.65" d="M184.118 66.2777C182.621 85.3589 185.61 103.417 196.058 119.731C203.085 130.569 213.807 138.487 226.233 142.015C228.137 142.407 230.104 142.371 231.993 141.909C233.881 141.448 235.643 140.573 237.152 139.347C251.252 125.926 258.05 109.519 255.664 89.3066C251.432 53.3887 230.072 28.8926 202.887 5.53972C192.316 25.8243 185.777 45.2133 184.118 66.2777Z" fill="url(#paint0_linear_25_873)"/>
<path opacity="0.65" d="M146.236 85.3312C148.737 104.306 155.418 121.349 169.026 135.126C178.153 144.267 190.287 149.783 203.174 150.651C205.118 150.638 207.035 150.193 208.786 149.349C210.537 148.505 212.079 147.283 213.3 145.771C224.301 129.702 227.541 112.25 221.008 92.9743C209.401 58.7271 183.415 39.2015 151.968 22.0085C145.842 44.0563 143.473 64.3802 146.236 85.3312Z" fill="url(#paint1_linear_25_873)"/>
<path opacity="0.65" d="M113.142 111.843C119.533 129.892 129.61 145.164 145.788 155.809C156.615 162.852 169.632 165.725 182.418 163.894C184.317 163.477 186.1 162.644 187.637 161.454C189.175 160.264 190.429 158.748 191.309 157.014C198.727 139.011 198.267 121.265 187.87 103.769C169.395 72.6782 139.919 58.9886 105.584 48.7121C104.177 71.5536 106.084 91.9168 113.142 111.843Z" fill="url(#paint2_linear_25_873)"/>
<path opacity="0.65" d="M86.2722 144.655C96.2756 160.974 109.308 173.823 127.346 180.876C139.401 185.514 152.73 185.618 164.856 181.168C166.627 180.366 168.197 179.18 169.454 177.696C170.71 176.213 171.622 174.469 172.122 172.59C175.637 153.437 171.497 136.174 157.689 121.219C133.161 94.6473 101.475 87.386 65.7539 84.4703C69.137 107.111 75.239 126.643 86.2722 144.655Z" fill="url(#paint3_linear_25_873)"/>
<path opacity="0.65" d="M66.8351 182.334C80.011 196.218 95.4315 206.076 114.543 209.223C127.299 211.255 140.36 208.585 151.296 201.712C152.861 200.558 154.15 199.072 155.071 197.359C155.991 195.647 156.52 193.752 156.618 191.81C156.075 172.345 148.436 156.32 131.822 144.567C102.297 123.677 69.8062 123.16 34.2539 127.735C42.258 149.175 52.2869 167.011 66.8351 182.334Z" fill="url(#paint4_linear_25_873)"/>
<path opacity="0.65" d="M55.6448 223.234C71.4193 234.073 88.5545 240.513 107.9 239.617C120.799 238.952 133.019 233.625 142.286 224.627C143.577 223.174 144.529 221.452 145.073 219.586C145.617 217.72 145.74 215.756 145.433 213.837C140.853 194.911 130.052 180.825 111.354 172.782C78.1346 158.486 46.2407 164.739 12.4238 176.609C24.7204 195.91 38.2296 211.271 55.6448 223.234Z" fill="url(#paint5_linear_25_873)"/>
<path opacity="0.65" d="M53.201 265.569C70.8846 272.89 88.9824 275.626 107.721 270.729C120.2 267.395 131.045 259.645 138.241 248.917C139.201 247.227 139.775 245.345 139.919 243.407C140.064 241.468 139.776 239.522 139.076 237.708C130.662 220.147 117.167 208.614 97.2064 204.634C61.7374 197.558 31.8405 210.304 1.22852 228.931C17.2622 245.273 33.6801 257.486 53.201 265.569Z" fill="url(#paint6_linear_25_873)"/>
<path opacity="0.65" d="M59.6177 307.482C78.4375 310.967 96.7089 309.882 114.018 301.195C125.531 295.34 134.528 285.504 139.335 273.515C139.924 271.663 140.093 269.702 139.831 267.776C139.57 265.85 138.883 264.006 137.822 262.378C125.939 246.95 110.341 238.474 89.9913 238.731C53.8258 239.194 27.2333 257.868 1.16602 282.466C20.2427 295.102 38.8357 303.648 59.6177 307.482Z" fill="url(#paint7_linear_25_873)"/>
<path opacity="0.65" d="M74.6075 347.151C93.7396 346.647 111.386 341.785 126.513 329.69C136.555 321.567 143.307 310.075 145.513 297.349C145.704 295.415 145.462 293.462 144.806 291.633C144.15 289.803 143.095 288.142 141.718 286.77C126.888 274.149 109.868 269.102 90.0164 273.58C54.7441 281.547 32.6152 305.351 12.2266 334.829C33.5154 343.218 53.4852 347.707 74.6075 347.151Z" fill="url(#paint8_linear_25_873)"/>
<path opacity="0.65" d="M97.5124 382.833C116.122 378.36 132.373 369.937 144.653 354.961C152.788 344.931 157.005 332.289 156.522 319.383C156.306 317.452 155.663 315.592 154.641 313.939C153.618 312.286 152.241 310.88 150.61 309.824C133.486 300.568 115.784 299.166 97.2972 307.677C64.4384 322.801 47.7475 350.685 33.9375 383.757C56.5083 387.538 76.9687 387.769 97.5124 382.833Z" fill="url(#paint9_linear_25_873)"/>
<path opacity="0.65" d="M127.338 412.973C144.612 404.731 158.755 393.112 167.653 375.91C173.526 364.406 175.022 351.16 171.864 338.636C171.251 336.791 170.237 335.105 168.893 333.701C167.549 332.296 165.91 331.207 164.094 330.514C145.413 325.018 127.813 327.33 111.501 339.499C82.509 361.121 71.978 391.867 65.3438 427.089C88.2061 426.101 108.269 422.074 127.338 412.973Z" fill="url(#paint10_linear_25_873)"/>
<path opacity="0.65" d="M162.782 436.254C177.964 424.601 189.393 410.294 194.511 391.62C197.863 379.145 196.573 365.878 190.881 354.283C189.898 352.606 188.555 351.168 186.948 350.074C185.342 348.979 183.512 348.255 181.592 347.954C162.175 346.462 145.44 352.383 132.015 367.677C108.153 394.857 104.247 427.121 105.077 462.951C127.234 457.231 146.024 449.12 162.782 436.254Z" fill="url(#paint11_linear_25_873)"/>
<path opacity="0.65" d="M202.287 451.656C214.716 437.101 222.91 420.734 224.039 401.401C224.725 388.502 220.704 375.792 212.723 365.636C211.412 364.198 209.798 363.07 207.997 362.333C206.196 361.597 204.253 361.27 202.31 361.378C183.009 363.953 167.871 373.223 157.918 390.976C140.23 422.523 143.109 454.894 151.379 489.768C171.879 479.565 188.57 467.727 202.287 451.656Z" fill="url(#paint12_linear_25_873)"/>
<path opacity="0.65" d="M244.132 458.51C253.261 441.688 257.875 423.976 254.962 404.826C252.948 392.066 246.37 380.472 236.45 372.198C234.87 371.066 233.058 370.299 231.145 369.953C229.232 369.606 227.266 369.689 225.389 370.194C207.046 376.727 194.164 388.938 188.12 408.375C177.376 442.909 186.926 473.975 202.263 506.369C220.189 492.131 234.055 477.08 244.132 458.51Z" fill="url(#paint13_linear_25_873)"/>
<path opacity="0.65" d="M286.485 456.513C291.918 438.161 292.747 419.876 285.918 401.753C281.298 389.69 272.456 379.716 261.036 373.681C259.255 372.902 257.323 372.529 255.38 372.588C253.437 372.647 251.532 373.136 249.801 374.022C233.217 384.226 223.158 398.853 221.286 419.119C217.956 455.132 233.756 483.534 255.494 512.031C270.058 494.377 280.489 476.772 286.485 456.513Z" fill="url(#paint14_linear_25_873)"/>
<path opacity="0.65" d="M327.504 445.753C329.003 426.672 326.011 408.616 315.564 392.3C308.538 381.461 297.815 373.541 285.389 370.014C283.485 369.622 281.517 369.658 279.629 370.12C277.74 370.582 275.978 371.458 274.469 372.684C260.37 386.105 253.572 402.512 255.957 422.722C260.19 458.642 281.55 483.136 308.735 506.489C319.308 486.207 325.852 466.818 327.504 445.753Z" fill="url(#paint15_linear_25_873)"/>
<path opacity="0.65" d="M365.386 426.702C362.884 407.727 356.204 390.685 342.595 376.907C333.468 367.767 321.333 362.25 308.445 361.382C306.501 361.395 304.585 361.839 302.834 362.683C301.083 363.527 299.542 364.75 298.321 366.263C287.32 382.331 284.078 399.783 290.613 419.059C302.218 453.306 328.204 472.832 359.651 490.025C365.779 467.975 368.149 447.648 365.386 426.702Z" fill="url(#paint16_linear_25_873)"/>
<path opacity="0.65" d="M398.478 400.191C392.087 382.141 382.009 366.869 365.832 356.225C355.004 349.181 341.988 346.308 329.201 348.139C327.303 348.556 325.521 349.388 323.983 350.578C322.446 351.767 321.193 353.283 320.313 355.017C312.892 373.022 313.353 390.768 323.75 408.262C342.225 439.355 371.703 453.045 406.036 463.335C407.442 440.48 405.536 420.105 398.478 400.191Z" fill="url(#paint17_linear_25_873)"/>
<path opacity="0.65" d="M425.337 367.376C415.334 351.06 402.299 338.219 384.262 331.157C372.207 326.518 358.878 326.414 346.752 330.863C344.981 331.666 343.411 332.852 342.155 334.335C340.899 335.819 339.988 337.563 339.488 339.441C335.973 358.594 340.113 375.857 353.92 390.812C378.449 417.384 410.134 424.647 445.856 427.561C442.482 404.923 436.382 385.39 425.337 367.376Z" fill="url(#paint18_linear_25_873)"/>
<path opacity="0.65" d="M444.781 329.697C431.605 315.813 416.185 305.955 397.076 302.808C384.319 300.777 371.259 303.447 360.322 310.322C358.757 311.474 357.468 312.96 356.547 314.672C355.627 316.384 355.098 318.28 355 320.221C355.546 339.686 363.182 355.711 379.797 367.464C409.321 388.354 441.812 388.87 477.364 384.296C469.36 362.856 459.329 345.02 444.781 329.697Z" fill="url(#paint19_linear_25_873)"/>
<path opacity="0.65" d="M455.973 288.797C440.198 277.958 423.063 271.518 403.718 272.414C390.818 273.08 378.599 278.407 369.332 287.404C368.04 288.857 367.088 290.579 366.543 292.445C365.999 294.311 365.875 296.274 366.182 298.194C370.762 317.12 381.566 331.208 400.261 339.249C433.483 353.545 465.377 347.295 499.196 335.429C486.906 316.121 473.388 300.76 455.973 288.797Z" fill="url(#paint20_linear_25_873)"/>
<path opacity="0.65" d="M458.417 246.464C440.733 239.143 422.635 236.405 403.897 241.304C391.417 244.636 380.573 252.388 373.38 263.116C372.418 264.806 371.845 266.688 371.7 268.627C371.556 270.565 371.844 272.512 372.544 274.325C380.958 291.884 394.453 303.419 414.412 307.397C449.881 314.473 479.777 301.727 510.389 283.1C494.358 266.761 477.94 254.545 458.417 246.464Z" fill="url(#paint21_linear_25_873)"/>
<path opacity="0.65" d="M452.003 204.549C433.185 201.064 414.914 202.149 397.603 210.836C386.09 216.691 377.093 226.527 372.286 238.516C371.697 240.369 371.528 242.329 371.789 244.256C372.051 246.182 372.737 248.027 373.799 249.655C385.681 265.081 401.28 273.557 421.629 273.3C457.795 272.837 484.387 254.163 510.457 229.565C491.378 216.929 472.78 208.394 452.003 204.549Z" fill="url(#paint22_linear_25_873)"/>
<path opacity="0.65" d="M437.013 164.882C417.881 165.386 400.234 170.248 385.11 182.343C375.065 190.464 368.31 201.955 366.1 214.682C365.91 216.616 366.152 218.569 366.808 220.398C367.464 222.228 368.519 223.889 369.895 225.261C384.726 237.882 401.745 242.929 421.597 238.451C456.876 230.489 479.005 206.684 499.391 177.206C478.103 168.807 458.133 164.324 437.013 164.882Z" fill="url(#paint23_linear_25_873)"/>
<path opacity="0.65" d="M414.106 129.2C395.497 133.671 379.245 142.096 366.965 157.072C358.828 167.104 354.61 179.749 355.096 192.657C355.312 194.589 355.955 196.448 356.977 198.102C358 199.755 359.377 201.16 361.009 202.216C378.132 211.472 395.834 212.874 414.321 204.363C447.18 189.239 463.871 161.355 477.681 128.284C455.124 124.493 434.649 124.262 414.106 129.2Z" fill="url(#paint24_linear_25_873)"/>
<path opacity="0.65" d="M384.281 99.0578C367.007 107.3 352.864 118.919 343.964 136.121C338.091 147.625 336.595 160.871 339.753 173.395C340.366 175.24 341.381 176.926 342.724 178.33C344.068 179.735 345.707 180.823 347.523 181.517C366.204 187.015 383.804 184.701 400.118 172.532C429.108 150.908 439.641 120.162 446.276 84.9401C423.422 85.9305 403.348 89.9592 384.281 99.0578Z" fill="url(#paint25_linear_25_873)"/>
<path opacity="0.65" d="M348.839 75.779C333.657 87.4323 322.228 101.737 317.11 120.414C313.758 132.888 315.048 146.155 320.74 157.75C321.724 159.427 323.067 160.865 324.674 161.959C326.281 163.054 328.11 163.778 330.031 164.079C349.445 165.572 366.18 159.652 379.606 144.357C403.468 117.179 407.374 84.9147 406.543 49.0823C384.387 54.8002 365.599 62.9108 348.839 75.779Z" fill="url(#paint26_linear_25_873)"/>
<path opacity="0.65" d="M309.342 60.3746C296.914 74.9297 288.72 91.2967 287.591 110.63C286.905 123.529 290.925 136.238 298.904 146.395C300.216 147.833 301.83 148.96 303.631 149.697C305.432 150.433 307.374 150.76 309.317 150.653C328.618 148.078 343.756 138.805 353.711 121.055C371.399 89.5079 368.521 57.1374 360.251 22.263C339.742 32.4654 323.053 44.3039 309.342 60.3746Z" fill="url(#paint27_linear_25_873)"/>
<path opacity="0.65" d="M267.487 53.5206C258.359 70.3434 253.745 88.0548 256.658 107.205C258.671 119.965 265.25 131.559 275.17 139.833C276.75 140.965 278.562 141.731 280.474 142.078C282.387 142.424 284.352 142.341 286.229 141.834C304.574 135.302 317.454 123.091 323.498 103.653C334.242 69.1193 324.692 38.0538 309.355 5.66005C291.43 19.9004 277.565 34.9507 267.487 53.5206Z" fill="url(#paint28_linear_25_873)"/>
<path opacity="0.65" d="M225.13 55.5176C219.696 73.8699 218.868 92.1552 225.697 110.278C230.317 122.341 239.159 132.315 250.579 138.35C252.36 139.128 254.292 139.502 256.235 139.443C258.178 139.384 260.083 138.895 261.814 138.009C278.398 127.805 288.459 113.178 290.329 92.9118C293.659 56.899 277.859 28.4969 256.123 0C241.559 17.6535 231.128 35.2585 225.13 55.5176Z" fill="url(#paint29_linear_25_873)"/>
</g>
<defs>
<linearGradient id="paint0_linear_25_873" x1="0.656665" y1="512.834" x2="514.365" y2="-0.874684" gradientUnits="userSpaceOnUse">
<stop stop-color="#0A00B2"/>
<stop offset="0.5" stop-color="#FF0000"/>
<stop offset="1" stop-color="#FFFC00"/>
</linearGradient>
<linearGradient id="paint1_linear_25_873" x1="0.65486" y1="512.834" x2="514.364" y2="-0.874629" gradientUnits="userSpaceOnUse">
<stop stop-color="#0A00B2"/>
<stop offset="0.5" stop-color="#FF0000"/>
<stop offset="1" stop-color="#FFFC00"/>
</linearGradient>
<linearGradient id="paint2_linear_25_873" x1="0.655704" y1="512.834" x2="514.364" y2="-0.874715" gradientUnits="userSpaceOnUse">
<stop stop-color="#0A00B2"/>
<stop offset="0.5" stop-color="#FF0000"/>
<stop offset="1" stop-color="#FFFC00"/>
</linearGradient>
<linearGradient id="paint3_linear_25_873" x1="0.654067" y1="512.834" x2="514.363" y2="-0.874773" gradientUnits="userSpaceOnUse">
<stop stop-color="#0A00B2"/>
<stop offset="0.5" stop-color="#FF0000"/>
<stop offset="1" stop-color="#FFFC00"/>
</linearGradient>
<linearGradient id="paint4_linear_25_873" x1="0.654575" y1="512.834" x2="514.363" y2="-0.874753" gradientUnits="userSpaceOnUse">
<stop stop-color="#0A00B2"/>
<stop offset="0.5" stop-color="#FF0000"/>
<stop offset="1" stop-color="#FFFC00"/>
</linearGradient>
<linearGradient id="paint5_linear_25_873" x1="0.654808" y1="512.834" x2="514.364" y2="-0.874642" gradientUnits="userSpaceOnUse">
<stop stop-color="#0A00B2"/>
<stop offset="0.5" stop-color="#FF0000"/>
<stop offset="1" stop-color="#FFFC00"/>
</linearGradient>
<linearGradient id="paint6_linear_25_873" x1="0.652335" y1="512.834" x2="514.361" y2="-0.874687" gradientUnits="userSpaceOnUse">
<stop stop-color="#0A00B2"/>
<stop offset="0.5" stop-color="#FF0000"/>
<stop offset="1" stop-color="#FFFC00"/>
</linearGradient>
<linearGradient id="paint7_linear_25_873" x1="0.654625" y1="512.834" x2="514.363" y2="-0.874706" gradientUnits="userSpaceOnUse">
<stop stop-color="#0A00B2"/>
<stop offset="0.5" stop-color="#FF0000"/>
<stop offset="1" stop-color="#FFFC00"/>
</linearGradient>
<linearGradient id="paint8_linear_25_873" x1="0.656547" y1="512.834" x2="514.365" y2="-0.874756" gradientUnits="userSpaceOnUse">
<stop stop-color="#0A00B2"/>
<stop offset="0.5" stop-color="#FF0000"/>
<stop offset="1" stop-color="#FFFC00"/>
</linearGradient>
<linearGradient id="paint9_linear_25_873" x1="0.655192" y1="512.834" x2="514.364" y2="-0.874687" gradientUnits="userSpaceOnUse">
<stop stop-color="#0A00B2"/>
<stop offset="0.5" stop-color="#FF0000"/>
<stop offset="1" stop-color="#FFFC00"/>
</linearGradient>
<linearGradient id="paint10_linear_25_873" x1="0.653487" y1="512.834" x2="514.362" y2="-0.874569" gradientUnits="userSpaceOnUse">
<stop stop-color="#0A00B2"/>
<stop offset="0.5" stop-color="#FF0000"/>
<stop offset="1" stop-color="#FFFC00"/>
</linearGradient>
<linearGradient id="paint11_linear_25_873" x1="0.657883" y1="512.834" x2="514.367" y2="-0.874774" gradientUnits="userSpaceOnUse">
<stop stop-color="#0A00B2"/>
<stop offset="0.5" stop-color="#FF0000"/>
<stop offset="1" stop-color="#FFFC00"/>
</linearGradient>
<linearGradient id="paint12_linear_25_873" x1="0.656475" y1="512.834" x2="514.365" y2="-0.874765" gradientUnits="userSpaceOnUse">
<stop stop-color="#0A00B2"/>
<stop offset="0.5" stop-color="#FF0000"/>
<stop offset="1" stop-color="#FFFC00"/>
</linearGradient>
<linearGradient id="paint13_linear_25_873" x1="0.655421" y1="512.834" x2="514.364" y2="-0.874699" gradientUnits="userSpaceOnUse">
<stop stop-color="#0A00B2"/>
<stop offset="0.5" stop-color="#FF0000"/>
<stop offset="1" stop-color="#FFFC00"/>
</linearGradient>
<linearGradient id="paint14_linear_25_873" x1="0.652402" y1="512.834" x2="514.361" y2="-0.874668" gradientUnits="userSpaceOnUse">
<stop stop-color="#0A00B2"/>
<stop offset="0.5" stop-color="#FF0000"/>
<stop offset="1" stop-color="#FFFC00"/>
</linearGradient>
<linearGradient id="paint15_linear_25_873" x1="0.655612" y1="512.834" x2="514.364" y2="-0.874818" gradientUnits="userSpaceOnUse">
<stop stop-color="#0A00B2"/>
<stop offset="0.5" stop-color="#FF0000"/>
<stop offset="1" stop-color="#FFFC00"/>
</linearGradient>
<linearGradient id="paint16_linear_25_873" x1="0.654683" y1="512.834" x2="514.363" y2="-0.874833" gradientUnits="userSpaceOnUse">
<stop stop-color="#0A00B2"/>
<stop offset="0.5" stop-color="#FF0000"/>
<stop offset="1" stop-color="#FFFC00"/>
</linearGradient>
<linearGradient id="paint17_linear_25_873" x1="0.654637" y1="512.834" x2="514.363" y2="-0.874731" gradientUnits="userSpaceOnUse">
<stop stop-color="#0A00B2"/>
<stop offset="0.5" stop-color="#FF0000"/>
<stop offset="1" stop-color="#FFFC00"/>
</linearGradient>
<linearGradient id="paint18_linear_25_873" x1="0.655504" y1="512.834" x2="514.364" y2="-0.874651" gradientUnits="userSpaceOnUse">
<stop stop-color="#0A00B2"/>
<stop offset="0.5" stop-color="#FF0000"/>
<stop offset="1" stop-color="#FFFC00"/>
</linearGradient>
<linearGradient id="paint19_linear_25_873" x1="0.652185" y1="512.834" x2="514.361" y2="-0.874669" gradientUnits="userSpaceOnUse">
<stop stop-color="#0A00B2"/>
<stop offset="0.5" stop-color="#FF0000"/>
<stop offset="1" stop-color="#FFFC00"/>
</linearGradient>
<linearGradient id="paint20_linear_25_873" x1="0.653143" y1="512.834" x2="514.362" y2="-0.874637" gradientUnits="userSpaceOnUse">
<stop stop-color="#0A00B2"/>
<stop offset="0.5" stop-color="#FF0000"/>
<stop offset="1" stop-color="#FFFC00"/>
</linearGradient>
<linearGradient id="paint21_linear_25_873" x1="0.656219" y1="512.834" x2="514.365" y2="-0.874666" gradientUnits="userSpaceOnUse">
<stop stop-color="#0A00B2"/>
<stop offset="0.5" stop-color="#FF0000"/>
<stop offset="1" stop-color="#FFFC00"/>
</linearGradient>
<linearGradient id="paint22_linear_25_873" x1="0.656646" y1="512.834" x2="514.365" y2="-0.874691" gradientUnits="userSpaceOnUse">
<stop stop-color="#0A00B2"/>
<stop offset="0.5" stop-color="#FF0000"/>
<stop offset="1" stop-color="#FFFC00"/>
</linearGradient>
<linearGradient id="paint23_linear_25_873" x1="0.654307" y1="512.834" x2="514.363" y2="-0.874673" gradientUnits="userSpaceOnUse">
<stop stop-color="#0A00B2"/>
<stop offset="0.5" stop-color="#FF0000"/>
<stop offset="1" stop-color="#FFFC00"/>
</linearGradient>
<linearGradient id="paint24_linear_25_873" x1="0.653628" y1="512.834" x2="514.362" y2="-0.874606" gradientUnits="userSpaceOnUse">
<stop stop-color="#0A00B2"/>
<stop offset="0.5" stop-color="#FF0000"/>
<stop offset="1" stop-color="#FFFC00"/>
</linearGradient>
<linearGradient id="paint25_linear_25_873" x1="0.654099" y1="512.834" x2="514.363" y2="-0.874696" gradientUnits="userSpaceOnUse">
<stop stop-color="#0A00B2"/>
<stop offset="0.5" stop-color="#FF0000"/>
<stop offset="1" stop-color="#FFFC00"/>
</linearGradient>
<linearGradient id="paint26_linear_25_873" x1="0.653435" y1="512.834" x2="514.362" y2="-0.87464" gradientUnits="userSpaceOnUse">
<stop stop-color="#0A00B2"/>
<stop offset="0.5" stop-color="#FF0000"/>
<stop offset="1" stop-color="#FFFC00"/>
</linearGradient>
<linearGradient id="paint27_linear_25_873" x1="0.654531" y1="512.834" x2="514.363" y2="-0.87459" gradientUnits="userSpaceOnUse">
<stop stop-color="#0A00B2"/>
<stop offset="0.5" stop-color="#FF0000"/>
<stop offset="1" stop-color="#FFFC00"/>
</linearGradient>
<linearGradient id="paint28_linear_25_873" x1="0.655197" y1="512.834" x2="514.364" y2="-0.87464" gradientUnits="userSpaceOnUse">
<stop stop-color="#0A00B2"/>
<stop offset="0.5" stop-color="#FF0000"/>
<stop offset="1" stop-color="#FFFC00"/>
</linearGradient>
<linearGradient id="paint29_linear_25_873" x1="0.65292" y1="512.834" x2="514.362" y2="-0.874764" gradientUnits="userSpaceOnUse">
<stop stop-color="#0A00B2"/>
<stop offset="0.5" stop-color="#FF0000"/>
<stop offset="1" stop-color="#FFFC00"/>
</linearGradient>
<clipPath id="clip0_25_873">
<rect width="512" height="512" fill="white"/>
</clipPath>
</defs>
</svg>
