<svg width="512" height="512" viewBox="0 0 512 512" fill="none" xmlns="http://www.w3.org/2000/svg">
<path d="M498.715 404.155C498.715 404.155 400.372 308.963 320.767 230.867L506.734 58.6086C515.688 40.8661 506.686 34.4864 490.254 40.15L296.902 207.41C260.424 171.481 231.326 142.419 223.355 133.41C207.385 115.362 175.254 88.3047 199.457 66.1494C260 10.7314 306.526 64.6138 323.733 23.1246C234.181 -21.0814 160.364 6.34886 126.53 36.8801C80.455 78.4574 105.466 94.5539 76.2783 119.58C57.6097 135.588 38.2125 111.713 22.1002 118.488L1.44014 138.83C-11.0526 156.648 61.2628 232.219 82.1012 223.875L110.972 195.827C114.901 186.278 85.3332 177.724 117.111 153.217C128.73 144.256 135.829 133.042 148.613 134.004C171.008 135.691 174.823 139.483 197.652 159.28C219.106 178.93 243.197 203.347 269.256 231.324L138.447 344.481C107.911 322.367 111.779 305.037 160.843 264.234C193.553 237.031 203.066 190.56 179.407 190.193C153.335 199.035 189.097 207.999 126.069 257.3C66.3739 303.994 85.5627 339.763 109.437 363.854L6.76113 457.733L39.5357 493.768L143.56 398.661C199.803 458.542 224.072 420.558 282.96 357.357C297.331 341.934 307.828 364.973 321.457 350.15C330.664 331.324 302.47 315.391 276.757 327.617C251.044 339.842 227.811 380.227 200.835 395.477C192.793 400.023 178.748 390.76 166.949 373.346L292.705 256.861C343.122 312.489 399.662 379.188 458.098 449.316C466.399 462.773 474.752 474.99 484.054 464.251L510.382 436.075C514.434 427.521 510.997 417 498.715 404.155Z" fill="#EF5035"/>
</svg>
