<svg width="512" height="512" viewBox="0 0 512 512" fill="none" xmlns="http://www.w3.org/2000/svg">
<g clip-path="url(#clip0_40_1595)">
<path d="M36.6094 39.04H132.737V86.784H88.3214V423.04H132.737V471.04H36.6094V39.04Z" fill="#B59E32"/>
<path d="M468.097 471.04H371.969V423.296H416.385V87.04H371.969V39.04H468.097V471.04Z" fill="#235681"/>
<g clip-path="url(#clip1_40_1595)">
<path d="M255.504 110C186.562 110 185.822 136.76 185.822 142.269C185.822 150.625 185.822 175.7 185.822 175.7H256.831V185.737C256.831 185.737 182.896 185.737 157.617 185.737C136.516 185.737 110 198.566 110 255.419C110 307.642 130.684 327.837 151.56 327.837C157.758 327.837 176.364 327.837 176.364 327.837C176.364 327.837 176.364 301.916 176.364 292.996C176.364 278.42 183.587 251.437 217.26 251.437C259.493 251.437 270.274 251.437 287.687 251.437C298.045 251.437 327.256 246.935 327.256 213.195C327.256 177.487 327.256 165.706 327.256 148.905C327.259 140.535 325.828 110 255.504 110ZM216.349 132.481C223.415 132.481 229.125 138.189 229.125 145.258C229.125 152.321 223.415 158.034 216.349 158.034C209.283 158.034 203.573 152.324 203.573 145.258C203.573 138.189 209.283 132.481 216.349 132.481Z" fill="url(#paint0_linear_40_1595)"/>
<path d="M256.497 402C325.407 402 326.264 374.735 326.264 369.731C326.264 361.375 326.264 336.3 326.264 336.3H255.17V326.263C255.17 326.263 329.582 326.263 354.384 326.263C375.644 326.263 402.001 313.113 402.001 256.581C402.001 194.672 374.027 184.163 360.441 184.163C354.24 184.163 335.637 184.163 335.637 184.163C335.637 184.163 335.637 211.282 335.637 219.004C335.637 233.58 328.653 260.563 294.741 260.563C252.507 260.563 243.041 260.563 224.311 260.563C213.979 260.563 184.742 265.596 184.742 298.805C184.742 337.229 184.742 347.29 184.742 363.095C184.742 376.978 193.226 402 256.497 402ZM295.654 379.519C288.588 379.519 282.878 373.809 282.878 366.742C282.878 359.676 288.585 353.966 295.654 353.966C302.718 353.966 308.431 359.676 308.431 366.742C308.431 373.809 302.718 379.519 295.654 379.519Z" fill="url(#paint1_linear_40_1595)"/>
</g>
</g>
<defs>
<linearGradient id="paint0_linear_40_1595" x1="137.364" y1="136.084" x2="282.508" y2="281.714" gradientUnits="userSpaceOnUse">
<stop stop-color="#387EB8"/>
<stop offset="1" stop-color="#366994"/>
</linearGradient>
<linearGradient id="paint1_linear_40_1595" x1="225.572" y1="229.128" x2="381.187" y2="378.215" gradientUnits="userSpaceOnUse">
<stop stop-color="#FFE052"/>
<stop offset="1" stop-color="#FFC331"/>
</linearGradient>
<clipPath id="clip0_40_1595">
<rect width="512" height="512" fill="white"/>
</clipPath>
<clipPath id="clip1_40_1595">
<rect width="292" height="292" fill="white" transform="translate(110 110)"/>
</clipPath>
</defs>
</svg>
