<svg width="512" height="512" viewBox="0 0 512 512" fill="none" xmlns="http://www.w3.org/2000/svg">
<g clip-path="url(#clip0_63_14)">
<g clip-path="url(#clip1_63_14)">
<path d="M2.378 219.087C1.15831 227.636 0.364658 236.24 0 244.867H388.9C387.542 242.214 385.717 239.823 383.877 237.482C317.392 151.586 281.628 159.034 230.467 156.852C213.41 156.15 201.843 155.868 133.949 155.868C97.6105 155.868 58.105 155.961 19.635 156.063C14.655 169.505 9.852 182.534 7.5135 193.133H206.799V219.087H2.378ZM391.965 270.848H0.1995C0.6095 277.773 1.2555 284.607 2.1885 291.348H363.884C380.008 291.348 389.033 282.199 391.965 270.848ZM22.5085 362.153C22.5085 362.153 82.4705 509.385 255.73 512C359.286 512 448.266 450.497 488.684 362.153H22.5085Z" fill="#7A3FF1"/>
<path d="M255.726 0C159.975 0 76.6542 52.58 32.6537 130.306C67.0392 130.234 134.006 130.193 134.006 130.193H134.021V130.167C213.176 130.167 216.118 130.521 231.58 131.167L241.155 131.52C274.505 132.632 315.496 136.212 347.75 160.615C365.257 173.85 390.535 203.062 405.604 223.874C419.534 243.124 423.542 265.252 414.07 286.453C405.352 305.938 386.594 317.561 363.879 317.561H8.34375C8.34375 317.561 10.4602 326.533 13.6337 336.436H498.95C507.568 310.531 511.974 283.41 511.999 256.109C512.004 114.678 397.265 0 255.726 0Z" fill="#7A3FF1"/>
</g>
</g>
<defs>
<clipPath id="clip0_63_14">
<rect width="512" height="512" fill="white"/>
</clipPath>
<clipPath id="clip1_63_14">
<rect width="512" height="512" fill="white"/>
</clipPath>
</defs>
</svg>
