<svg width="512" height="512" viewBox="0 0 512 512" fill="none" xmlns="http://www.w3.org/2000/svg">
<g clip-path="url(#clip0_22_727)">
<path d="M205.124 341.274C208.849 355.052 208.44 367.899 204.593 379.534C204.166 380.827 203.695 382.105 203.184 383.369C202.673 384.63 202.12 385.877 201.527 387.108C198.56 393.265 194.578 399.027 189.702 404.345C174.828 420.572 154.046 426.708 145.135 421.538C135.513 415.96 140.333 393.081 157.578 374.853C176.13 355.24 202.824 342.63 202.824 342.63L202.783 342.55C203.552 342.137 204.333 341.711 205.124 341.274ZM416.581 109.57C404.988 64.1038 329.6 49.1576 258.248 74.5065C215.786 89.591 169.818 113.268 136.765 144.184C97.4659 180.943 91.1987 212.936 93.7821 226.305C102.893 273.476 167.527 304.309 194.097 327.186V327.324C186.263 331.181 128.919 360.201 115.5 389.869C101.34 421.168 117.754 443.628 128.62 446.651C162.29 456.019 196.84 439.17 215.407 411.474C233.326 384.747 231.834 350.234 224.047 333.066C234.789 330.232 247.311 328.963 263.225 330.822C308.132 336.067 316.944 364.107 315.259 375.84C313.576 387.576 304.156 394.028 301.007 395.976C297.857 397.925 296.896 398.599 297.161 400.047C297.543 402.153 299.001 402.075 301.686 401.62C305.382 400.997 325.267 392.074 326.117 370.413C327.2 342.911 300.844 312.146 254.177 312.95C234.958 313.281 222.873 315.109 214.144 318.358C213.498 317.623 212.842 316.891 212.162 316.167C183.312 285.386 129.979 263.613 132.24 222.232C133.063 207.189 138.292 167.575 234.721 119.524C313.714 80.164 376.95 90.9954 387.879 115.001C403.489 149.296 354.082 213.038 272.048 222.232C240.794 225.736 224.337 213.623 220.244 209.112C215.933 204.363 215.292 204.148 213.683 205.039C211.061 206.491 212.722 210.684 213.683 213.184C216.131 219.558 226.183 230.862 243.318 236.484C258.392 241.431 295.088 244.149 339.467 226.984C389.169 207.757 427.981 154.275 416.581 109.57Z" fill="#CC499C"/>
</g>
<defs>
<clipPath id="clip0_22_727">
<rect width="512" height="512" fill="white"/>
</clipPath>
</defs>
</svg>
