<svg width="512" height="512" viewBox="0 0 512 512" fill="none" xmlns="http://www.w3.org/2000/svg">
<g clip-path="url(#clip0_21_652)">
<g clip-path="url(#clip1_21_652)">
<path d="M36.6074 39.04H132.735V86.784H88.3194V423.04H132.735V471.04H36.6074V39.04Z" fill="#005F4F"/>
<path d="M336.619 311.668C336.619 327.749 332.723 341.727 324.93 353.602C317.137 365.477 305.757 374.63 290.789 381.062C275.945 387.495 257.885 390.711 236.609 390.711C227.208 390.711 217.993 390.092 208.963 388.855C200.057 387.618 191.46 385.825 183.172 383.475C175.008 381.001 167.215 377.97 159.793 374.383V320.945C172.658 326.635 186.017 331.769 199.871 336.346C213.725 340.923 227.456 343.211 241.062 343.211C250.464 343.211 258.009 341.974 263.699 339.5C269.513 337.026 273.719 333.624 276.316 329.295C278.914 324.965 280.213 320.018 280.213 314.451C280.213 307.648 277.924 301.834 273.348 297.01C268.771 292.186 262.462 287.671 254.422 283.465C246.505 279.259 237.537 274.744 227.518 269.92C221.209 266.951 214.344 263.364 206.922 259.158C199.5 254.829 192.449 249.572 185.77 243.387C179.09 237.202 173.585 229.718 169.256 220.936C165.05 212.029 162.947 201.391 162.947 189.021C162.947 172.817 166.658 158.963 174.08 147.459C181.502 135.955 192.078 127.173 205.809 121.111C219.663 114.926 235.991 111.834 254.793 111.834C268.895 111.834 282.316 113.504 295.057 116.844C307.921 120.06 321.342 124.76 335.32 130.945L316.766 175.662C304.272 170.59 293.077 166.694 283.182 163.973C273.286 161.128 263.204 159.705 252.938 159.705C245.763 159.705 239.64 160.88 234.568 163.23C229.497 165.457 225.662 168.673 223.064 172.879C220.467 176.961 219.168 181.723 219.168 187.166C219.168 193.598 221.023 199.041 224.734 203.494C228.569 207.824 234.259 212.029 241.805 216.111C249.474 220.193 258.999 224.956 270.379 230.398C284.233 236.954 296.046 243.82 305.818 250.994C315.714 258.045 323.322 266.395 328.641 276.043C333.96 285.568 336.619 297.443 336.619 311.668Z" fill="#D70096"/>
<path d="M468.095 471.04H371.967V423.296H416.383V87.04H371.967V39.04H468.095V471.04Z" fill="#005F4F"/>
</g>
</g>
<defs>
<clipPath id="clip0_21_652">
<rect width="512" height="512" fill="white"/>
</clipPath>
<clipPath id="clip1_21_652">
<rect width="512" height="512" fill="white"/>
</clipPath>
</defs>
</svg>
