<svg width="512" height="512" viewBox="0 0 512 512" fill="none" xmlns="http://www.w3.org/2000/svg">
<g clip-path="url(#clip0_40_1608)">
<path opacity="0.999" fill-rule="evenodd" clip-rule="evenodd" d="M118.959 1.08434C210.304 1.08434 301.65 1.08434 392.995 1.08434C416.844 1.36535 439.144 7.47647 459.895 19.4177C486.982 37.2106 503.385 62.1912 509.106 94.3594C510.431 102.673 511.288 111.036 511.679 119.447C512.108 211.221 512.108 302.995 511.679 394.769C511.839 429.489 499.725 458.973 475.334 483.22C460.261 496.546 442.892 505.445 423.229 509.916C311.942 509.916 200.655 509.916 89.3685 509.916C40.0164 497.549 10.9618 466.242 2.20459 415.997C1.31722 408.622 0.566738 401.331 -0.046875 394.126C-0.046875 302.781 -0.046875 211.436 -0.046875 120.09C0.234141 96.2416 6.34526 73.9411 18.2865 53.1897C36.0794 26.1033 61.06 9.6998 93.2281 3.97908C101.874 2.75658 110.451 1.79166 118.959 1.08434Z" fill="#EF5035"/>
<path fill-rule="evenodd" clip-rule="evenodd" d="M243.113 242.313C243.436 243.332 244.079 243.654 245.043 243.278C244.481 242.606 243.838 242.07 243.113 241.67C203.659 199.122 167.958 153.878 136.007 105.938C193.388 163.778 256.107 214.597 324.166 258.395C332.726 236.716 336.049 214.202 334.136 190.851C332.427 164.93 325.994 140.271 314.838 116.874C307.59 102.049 299.12 88.0044 289.429 74.7394C339.83 104.769 376.175 146.903 398.464 201.143C411.524 234.007 415.169 267.886 409.4 302.781C408.715 307.452 407.535 311.955 405.862 316.29C411.266 324.304 416.519 332.452 421.622 340.734C434.406 363.353 439.553 387.583 437.061 413.424C436.291 415.09 435.647 416.805 435.131 418.57C434.687 419.122 434.152 419.55 433.523 419.857C428.905 411.61 423.116 404.212 416.154 397.664C403.735 388.501 389.797 384.856 374.341 386.728C367.576 387.963 360.928 389.679 354.4 391.875C344.4 396.981 334.322 401.913 324.166 406.67C284.872 420.783 244.989 422.284 204.516 411.173C140.102 392.109 89.4972 354.477 52.7031 298.278C52.9175 298.064 53.132 297.849 53.3464 297.635C87.229 322.696 125.182 338.027 167.206 343.629C199.782 347.187 230.874 342.255 260.481 328.833C264.018 326.958 267.449 324.922 270.774 322.722C239.872 298.583 211.031 271.994 184.253 242.956C150.221 205.72 118.379 166.802 88.7266 126.202C128.341 160.228 169.511 192.391 212.236 222.693C222.293 229.648 232.585 236.188 243.113 242.313Z" fill="#FFFEFE"/>
<path fill-rule="evenodd" clip-rule="evenodd" d="M243.109 241.67C243.834 242.07 244.478 242.606 245.039 243.278C244.076 243.654 243.432 243.332 243.109 242.313C243.109 242.099 243.109 241.884 243.109 241.67Z" fill="#F8A193"/>
</g>
<defs>
<clipPath id="clip0_40_1608">
<rect width="512" height="512" fill="white"/>
</clipPath>
</defs>
</svg>
