<svg width="512" height="512" viewBox="0 0 512 512" fill="none" xmlns="http://www.w3.org/2000/svg">
<g clip-path="url(#clip0_17_532)">
<path d="M197.588 417.267L181.122 483.126C181.122 483.126 330.959 487.242 393.529 436.201C456.098 385.16 440.456 388.453 440.456 388.453L374.593 325.887L197.588 417.267Z" fill="#F2C57E"/>
<path d="M241.221 426.322C241.221 426.322 246.161 474.894 262.626 483.949C262.626 483.949 182.768 489.712 184.415 468.308L195.941 416.444L241.221 426.322Z" fill="#BD704B"/>
<path d="M185.238 305.306C185.238 305.306 200.057 325.887 203.35 356.347C206.644 386.807 170.419 413.151 237.105 425.499C296.381 436.201 425.636 380.221 383.649 338.236C357.304 311.892 339.192 290.488 350.718 239.447C363.067 188.406 292.265 157.123 292.265 157.123L185.238 305.306Z" fill="#F2C57E"/>
<path d="M342.485 288.841C342.485 288.841 364.714 347.291 437.162 390.923L442.925 377.751C442.925 377.751 382.003 358.817 349.071 286.372C316.14 213.926 340.839 288.841 342.485 288.841ZM212.407 82.2079C212.407 82.2079 170.419 100.319 189.355 230.391C195.118 301.19 165.48 295.427 159.717 288.841C153.131 283.079 179.476 246.856 164.656 234.507C149.837 222.159 131.725 233.684 113.613 198.285C90.5612 152.183 117.729 171.118 139.135 131.602C154.777 102.789 166.303 86.3241 179.476 87.9705C190.178 88.7938 200.058 73.1522 212.407 82.2079Z" fill="#BD704B"/>
<path d="M128.432 231.214C128.432 231.214 130.078 261.674 124.315 278.962C115.259 304.483 138.311 339.059 172.066 302.013C205.82 264.967 128.432 231.214 128.432 231.214Z" fill="#F2C57E"/>
<path d="M299.674 90.4403C299.674 90.4403 234.635 57.5106 182.768 94.5565C130.901 131.602 172.065 126.663 140.781 173.588C109.496 220.512 135.018 325.887 235.458 327.534C335.898 329.18 334.252 136.542 334.252 136.542C334.252 136.542 324.372 93.7332 299.674 90.4403Z" fill="#F2C57E"/>
<path d="M277.446 304.483C277.446 304.483 246.161 332.473 247.808 351.408C248.631 370.342 326.019 366.226 257.687 385.16C238.751 390.1 239.575 421.383 254.394 427.146C269.213 432.908 197.587 421.383 198.411 397.509C199.234 374.458 209.113 332.473 185.238 316.831C183.592 316.831 243.691 334.943 277.446 304.483Z" fill="#BD704B"/>
<path d="M196.764 395.863C196.764 395.863 258.51 425.499 321.903 390.923C368.83 365.403 383.649 337.412 378.709 331.65C378.709 331.65 390.235 332.473 400.938 348.938C409.171 361.286 395.998 399.156 326.843 427.969C261.803 454.313 203.351 437.848 191.825 426.322C181.122 414.797 196.764 395.863 196.764 395.863Z" fill="#AD4646"/>
<path d="M172.066 163.709C167.949 163.709 164.656 160.416 164.656 156.3V139.011C164.656 134.895 167.949 131.602 172.066 131.602C176.182 131.602 179.475 134.895 179.475 139.011V156.3C179.475 160.416 176.182 163.709 172.066 163.709Z" fill="#3F2418"/>
<path d="M191.001 143.951C191.001 143.951 136.665 182.643 116.083 190.876C95.5007 199.108 96.324 221.336 124.316 244.386C152.307 267.437 235.459 206.517 191.001 143.951Z" fill="#F2C57E"/>
<path d="M111.966 231.214C111.966 231.214 132.548 253.442 120.199 278.139C111.966 294.604 120.199 325.887 150.66 316.831C150.66 316.831 115.259 318.478 129.255 278.962C134.194 264.144 134.194 241.917 111.966 231.214ZM286.501 85.5008C286.501 85.5008 345.778 109.375 324.372 239.447C316.963 310.246 351.541 304.483 359.773 297.897C367.183 292.134 368.006 269.083 385.295 257.558C401.761 245.21 442.925 208.987 422.343 172.764C401.761 136.542 380.355 143.951 367.183 120.077C354.834 98.6727 346.601 95.3797 331.782 95.3797C319.433 95.3797 302.144 77.2684 286.501 85.5008Z" fill="#BD704B"/>
<path d="M270.037 171.118C265.92 171.118 261.804 167.825 261.804 162.885V143.951C261.804 139.835 265.097 135.719 270.037 135.719C274.153 135.719 278.269 139.011 278.269 143.951V163.709C278.269 167.825 274.153 171.118 270.037 171.118Z" fill="#3F2418"/>
<path d="M256.864 130.779C256.864 130.779 238.752 120.9 253.571 112.668C272.506 101.966 293.911 119.254 297.205 129.133C297.205 129.133 274.976 108.552 256.864 118.43C246.984 123.37 256.864 130.779 256.864 130.779ZM178.652 115.137C178.005 113.666 176.83 112.491 175.359 111.845C172.889 110.198 168.773 110.198 165.48 111.021C162.187 111.845 159.717 114.314 157.247 115.961C158.893 111.845 161.363 108.552 165.48 106.905C167.126 106.082 169.596 106.082 171.243 106.082C175.359 106.082 179.475 107.728 182.769 110.198C186.062 112.668 187.708 116.784 187.708 120.9C186.885 124.193 185.238 127.486 181.945 128.309C181.122 128.309 180.299 129.133 180.299 128.309C180.299 127.486 181.122 126.663 181.122 125.84C181.945 124.193 181.945 122.547 181.122 120.077C181.122 119.254 180.299 116.784 178.652 115.137ZM149.837 271.553C149.837 271.553 167.95 332.473 235.459 317.655C297.205 303.66 306.261 250.972 306.261 250.972C310.377 263.321 293.088 334.943 209.114 328.357C148.191 323.417 149.837 271.553 149.837 271.553Z" fill="#BD704B"/>
<path d="M163.009 301.19C163.009 301.19 160.54 325.064 125.962 312.715C125.962 312.715 143.251 332.473 164.656 311.069C174.535 300.367 163.009 301.19 163.009 301.19ZM108.673 213.103C104.556 210.633 104.556 204.047 107.026 199.931C110.319 195.815 116.906 192.522 121.845 190.052C147.367 178.527 174.535 162.885 193.471 140.658C193.471 140.658 135.841 180.997 105.38 191.699C90.5607 197.462 108.673 213.103 108.673 213.103Z" fill="#BD704B"/>
<path d="M102.087 200.755C93.0309 209.81 107.85 236.977 125.962 245.21C146.544 254.265 176.182 218.866 170.419 208.987C163.833 195.815 121.022 181.82 102.087 200.755Z" fill="#AD4646"/>
<mask id="mask0_17_532" style="mask-type:luminance" maskUnits="userSpaceOnUse" x="99" y="191" width="73" height="56">
<path d="M102.087 200.755C93.0309 209.81 107.85 236.977 125.962 245.21C146.544 254.265 176.182 218.866 170.419 208.987C163.833 195.815 121.022 181.82 102.087 200.755V200.755Z" fill="white"/>
</mask>
<g mask="url(#mask0_17_532)">
<path d="M139.135 232.038C137.488 229.568 137.488 225.452 139.135 223.805C139.958 222.982 140.781 222.159 141.605 222.159C143.251 221.336 144.898 221.336 145.721 221.336C153.131 220.512 161.363 223.805 166.303 229.568C170.42 233.684 168.773 237.8 164.657 240.27C159.717 242.74 153.131 243.563 147.368 241.093C143.643 239.138 140.727 235.931 139.135 232.038ZM120.199 232.038C121.023 229.568 121.846 226.275 120.199 223.805C119.376 222.982 118.553 222.159 117.73 222.159C116.906 221.336 115.26 221.336 114.436 221.336C108.673 220.512 102.91 223.805 97.9708 229.568C94.6777 233.684 96.3243 237.8 99.6174 240.27C103.734 242.74 108.673 243.563 112.79 241.093C114.703 240.354 116.391 239.131 117.69 237.543C118.988 235.956 119.853 234.059 120.199 232.038Z" fill="#6A2524"/>
</g>
<path d="M252.747 502.061C116.906 502.061 5.7627 390.923 5.7627 255.088C5.7627 119.254 116.906 8.1162 252.747 8.1162C388.588 8.1162 499.731 119.254 499.731 255.088C499.731 390.923 389.412 502.061 252.747 502.061ZM252.747 41.0458C135.018 41.0458 38.6939 137.365 38.6939 255.088C38.6939 372.812 135.018 469.131 252.747 469.131C370.476 469.131 466.8 372.812 466.8 255.088C466.8 137.365 371.299 41.0458 252.747 41.0458Z" fill="#AD4646"/>
<path d="M182.769 89.617C182.769 89.617 257.687 58.3339 312.024 106.082C312.024 106.082 310.377 83.8543 268.39 74.7987C246.161 69.8593 196.764 70.6825 182.769 89.617Z" fill="#BD704B"/>
<path d="M176.182 279.786C178.91 279.786 181.122 278.311 181.122 276.493C181.122 274.674 178.91 273.2 176.182 273.2C173.454 273.2 171.242 274.674 171.242 276.493C171.242 278.311 173.454 279.786 176.182 279.786Z" fill="#BD704B"/>
<path d="M208.29 296.25C211.018 296.25 213.23 294.776 213.23 292.957C213.23 291.139 211.018 289.664 208.29 289.664C205.562 289.664 203.351 291.139 203.351 292.957C203.351 294.776 205.562 296.25 208.29 296.25Z" fill="#BD704B"/>
<path d="M237.105 295.427C239.833 295.427 242.044 293.953 242.044 292.134C242.044 290.316 239.833 288.841 237.105 288.841C234.377 288.841 232.165 290.316 232.165 292.134C232.165 293.953 234.377 295.427 237.105 295.427Z" fill="#BD704B"/>
<path d="M223.109 310.246C225.837 310.246 228.048 308.771 228.048 306.953C228.048 305.134 225.837 303.66 223.109 303.66C220.381 303.66 218.169 305.134 218.169 306.953C218.169 308.771 220.381 310.246 223.109 310.246Z" fill="#BD704B"/>
<path d="M186.885 301.19C189.613 301.19 191.825 299.716 191.825 297.897C191.825 296.078 189.613 294.604 186.885 294.604C184.157 294.604 181.945 296.078 181.945 297.897C181.945 299.716 184.157 301.19 186.885 301.19Z" fill="#BD704B"/>
</g>
<defs>
<clipPath id="clip0_17_532">
<rect width="512" height="512" fill="white"/>
</clipPath>
</defs>
</svg>
