<svg width="512" height="512" viewBox="0 0 512 512" fill="none" xmlns="http://www.w3.org/2000/svg">
<g clip-path="url(#clip0_29_1117)">
<path d="M256.001 0.0853333L482.134 128V383.915L256.001 511.829L29.8672 383.915V128L256.001 0.0853333Z" fill="white"/>
<path d="M441.77 375.04L263.509 475.989V397.483L374.613 336.299L441.77 375.04ZM453.973 364.032V153.088L388.778 190.72V326.4L453.973 364.032ZM69.5464 375.04L247.808 475.904V397.397L136.704 336.299L69.5464 375.04ZM57.3438 364.032V153.088L122.538 190.72V326.4L57.3438 364.032ZM64.9384 139.435L247.808 36.0107V111.957L130.645 176.384L129.706 176.896L64.9384 139.435ZM446.293 139.435L263.509 36.0107V111.957L380.586 176.469L381.525 176.981L446.293 139.435Z" fill="#8ED6FB"/>
<path d="M247.808 379.563L138.24 319.232V199.851L247.808 263.083V379.563ZM263.51 379.563L373.078 319.317V199.851L263.51 263.083V379.563ZM145.579 186.027L255.659 125.525L365.654 186.027L255.659 249.515L145.579 186.027Z" fill="#1C78C0"/>
</g>
<defs>
<clipPath id="clip0_29_1117">
<rect width="512" height="512" fill="white"/>
</clipPath>
</defs>
</svg>
