<svg width="512" height="512" viewBox="0 0 512 512" fill="none" xmlns="http://www.w3.org/2000/svg">
<g clip-path="url(#clip0_56_2)">
<path d="M468.451 222.592C466.374 217.031 461.055 213.333 455.11 213.333H283.377L382.435 20.736C385.549 14.6773 383.942 7.26756 378.58 3.05778C375.992 1.00978 372.877 0 369.777 0C366.463 0 363.149 1.16622 360.49 3.456L255.999 93.696L47.6008 273.678C43.1065 277.561 41.4852 283.833 43.5616 289.394C45.6381 294.955 50.943 298.667 56.8879 298.667H228.621L129.563 491.264C126.449 497.323 128.056 504.732 133.418 508.942C136.006 510.99 139.121 512 142.221 512C145.535 512 148.849 510.834 151.508 508.544L255.999 418.304L464.397 238.322C468.906 234.439 470.513 228.167 468.451 222.592Z" fill="#FFAC33"/>
</g>
<defs>
<clipPath id="clip0_56_2">
<rect width="512" height="512" fill="white"/>
</clipPath>
</defs>
</svg>
