<svg width="512" height="512" viewBox="0 0 512 512" fill="none" xmlns="http://www.w3.org/2000/svg">
<g clip-path="url(#clip0_53_164)">
<path d="M153.935 95.5429L93.6997 169.086L63.582 122.286L153.935 95.5429Z" fill="#F7A41D"/>
<path d="M153.935 95.5429L110.431 132.314L93.6993 169.086H73.6209V339.571H103.739L66.9281 356.286L40.1569 413.114H0V95.5429H153.935Z" fill="#F7A41D"/>
<path d="M103.74 339.571L40.158 413.114L13.3867 376.343L103.74 339.571Z" fill="#F7A41D"/>
<path d="M187.398 95.5429L207.477 142.343L123.816 169.086L187.398 95.5429Z" fill="#F7A41D"/>
<path d="M187.398 95.5429H371.45V169.086H123.816L187.398 128.971V95.5429Z" fill="#F7A41D"/>
<path d="M388.182 339.571L324.601 413.114L301.176 369.657L388.182 339.571Z" fill="#F7A41D"/>
<path d="M388.185 339.571L334.642 369.657L324.603 413.114H140.551V339.571H388.185Z" fill="#F7A41D"/>
<path d="M501.961 22L174.013 413.114L10.0391 490L337.987 95.5429L501.961 22Z" fill="#F7A41D"/>
<path d="M471.843 95.5429L468.497 155.714L408.262 172.429L471.843 95.5429Z" fill="#F7A41D"/>
<path d="M512 95.5429V413.114H354.719L401.568 373L418.3 339.571H438.379V172.429H408.261L441.725 142.343L471.843 95.5429H512Z" fill="#F7A41D"/>
<path d="M418.3 339.571L435.032 389.714L354.719 413.114L418.3 339.571Z" fill="#F7A41D"/>
</g>
<defs>
<clipPath id="clip0_53_164">
<rect width="512" height="468" fill="white" transform="translate(0 22)"/>
</clipPath>
</defs>
</svg>
